<?xml version="1.0" encoding="utf-8"?>
<!-- Generator: Adobe Illustrator 16.0.4, SVG Export Plug-In . SVG Version: 6.00 Build 0)  -->
<!DOCTYPE svg PUBLIC "-//W3C//DTD SVG 1.1//EN" "http://www.w3.org/Graphics/SVG/1.1/DTD/svg11.dtd">
<svg version="1.1" id="Layer_1" xmlns="http://www.w3.org/2000/svg" xmlns:xlink="http://www.w3.org/1999/xlink" x="0px" y="0px"
	 width="442px" height="83px" viewBox="0 0 442 83" enable-background="new 0 0 442 83" xml:space="preserve">
<polygon fill="#654202" points="142.926,55.623 1,55.623 1,49.048 141.333,49.048 "/>
<g>
	<path fill="#1D6F00" d="M2.147,42.148c1.674-0.191,3.205-0.479,4.64-1.34v-25.83c-1.435-0.813-3.252-1.148-4.927-1.339L2.1,11.726
		h14.159l-0.287,1.914c-1.674,0.191-3.205,0.479-4.64,1.339v11.145h15.02V14.979c-1.435-0.813-3.253-1.148-4.927-1.339l0.239-1.914
		h14.159l-0.287,1.914c-1.674,0.191-3.205,0.479-4.64,1.339v25.83c1.435,0.813,3.253,1.148,4.927,1.34l-0.239,1.913H21.425
		l0.287-1.913c1.674-0.191,3.205-0.479,4.64-1.34V28.803h-15.02v12.006c1.436,0.813,3.253,1.148,4.927,1.34l-0.239,1.913H1.861
		L2.147,42.148z"/>
	<path fill="#1D6F00" d="M44.63,32.342c0,5.262,0.526,9.902,6.17,9.902c3.252,0,5.022-1.626,6.027-2.822l1.626,1.626
		c-1.436,1.674-3.731,3.396-7.845,3.396c-8.084,0-10.715-4.831-10.715-12.628c0-7.462,3.492-12.293,10.523-12.293
		c7.032,0,8.945,4.114,9.137,10.667l-1.052,1.387H44.63V32.342z M54.915,29.281c0-5.118-1.004-7.653-4.688-7.653
		c-3.97,0-5.5,3.396-5.596,8.036C48.744,29.616,54.915,29.281,54.915,29.281z"/>
	<path fill="#1D6F00" d="M77.112,41.766c-2.152,2.056-4.401,2.678-7.032,2.678c-4.066,0-6.458-2.2-6.458-5.931
		c0-4.449,3.253-7.08,9.28-7.51l4.066-0.288v-4.209c0-3.444-1.291-4.926-4.305-4.926c-2.583,0-4.066,0.861-4.066,2.343
		c0,0.862,0.574,1.531,1.579,1.914c0,1.579-1.052,2.439-2.966,2.439c-1.77,0-2.965-1.196-2.965-2.966
		c0-3.54,3.253-5.788,8.418-5.788c5.453,0,8.706,2.583,8.706,6.983v14.398c0.622,0.479,2.105,1.101,3.587,1.387l-0.191,1.771h-7.127
		L77.112,41.766z M76.969,32.821l-3.875,0.334c-3.061,0.288-4.927,2.153-4.927,4.927c0,2.774,1.1,4.208,3.252,4.208
		c1.866,0,3.444-0.86,5.549-2.965V32.821z"/>
	<path fill="#1D6F00" d="M87.209,42.196c1.53-0.239,2.343-0.526,3.396-1.292V15.84c0-2.583-0.957-3.3-3.587-3.396l0.144-1.531
		c2.296-0.382,4.735-1.148,6.84-1.77l1.005,0.526v31.235c0.861,0.622,2.104,1.101,3.587,1.387l-0.191,1.771H87.018L87.209,42.196z"
		/>
	<path fill="#1D6F00" d="M105.053,22.537h-4.209v-1.435c3.492-1.196,5.597-3.301,6.601-6.266h2.057v5.022h5.836v2.679h-5.884v15.929
		c0,2.2,0.192,3.54,2.392,3.54c1.531,0,2.487-0.574,3.205-1.004l1.004,1.531c-0.717,0.574-2.344,1.913-5.5,1.913
		c-4.401,0-5.501-1.962-5.501-6.362V22.537z"/>
	<path fill="#1D6F00" d="M118.736,42.196c1.531-0.239,2.344-0.526,3.396-1.292V15.84c0-2.583-0.957-3.3-3.587-3.396l0.144-1.531
		c2.296-0.382,4.735-1.148,6.84-1.77l1.004,0.526v12.916c1.626-1.865,3.923-3.062,6.314-3.062c4.975,0,7.94,2.631,7.94,7.127v14.254
		c0.622,0.479,2.105,1.101,3.588,1.387l-0.191,1.771h-11.336l0.144-1.771c1.292-0.19,2.439-0.669,3.396-1.387V27.128
		c0-3.492-1.483-5.118-4.4-5.118c-2.153,0-4.305,1.483-5.454,3.635v15.259c0.862,0.622,2.105,1.101,3.588,1.387l-0.191,1.771
		h-11.385L118.736,42.196z"/>
	<path fill="#1D6F00" d="M157.15,44.301l-8.466-20.664c-0.574-1.435-2.104-1.913-3.683-2.201l0.144-1.579h11.241l-0.144,1.531
		c-1.148,0.144-2.105,0.335-3.062,1.148l5.979,15.689l5.118-15.689c-0.909-0.67-1.913-0.957-3.061-1.148l0.144-1.531h10.045
		l-0.143,1.531c-1.34,0.192-3.396,0.574-3.731,1.531l-8.945,25.878c-1.722,5.023-3.731,6.889-6.984,6.889
		c-2.679,0-4.735-1.674-4.735-3.971c0-1.913,1.148-2.918,2.535-2.918c0.574,0,1.244,0.191,1.818,0.574
		c-0.382,0.526-0.622,1.148-0.622,1.77c0,1.005,0.67,1.771,1.722,1.771c1.483,0,2.487-1.388,3.588-4.735L157.15,44.301z"/>
	<path fill="#1D6F00" d="M185.808,42.148c1.674-0.191,3.205-0.479,4.64-1.34v-25.83c-1.435-0.813-3.252-1.148-4.927-1.339
		l0.239-1.914h14.159l-0.287,1.914c-1.674,0.191-3.205,0.479-4.64,1.339v26.165h11.001c1.053-1.34,1.483-3.587,1.867-4.927
		l2.057,0.287l-1.292,7.558h-23.104L185.808,42.148z"/>
	<path fill="#1D6F00" d="M226.518,41.766c-2.152,2.056-4.398,2.678-7.032,2.678c-4.064,0-6.456-2.2-6.456-5.931
		c0-4.449,3.252-7.08,9.279-7.51l4.066-0.288v-4.209c0-3.444-1.291-4.926-4.305-4.926c-2.584,0-4.065,0.861-4.065,2.343
		c0,0.862,0.572,1.531,1.577,1.914c0,1.579-1.052,2.439-2.966,2.439c-1.77,0-2.965-1.196-2.965-2.966
		c0-3.54,3.253-5.788,8.418-5.788c5.451,0,8.705,2.583,8.705,6.983v14.398c0.623,0.479,2.105,1.101,3.59,1.387l-0.193,1.771h-7.127
		L226.518,41.766z M226.375,32.821l-3.875,0.334c-3.06,0.288-4.926,2.153-4.926,4.927c0,2.774,1.1,4.208,3.254,4.208
		c1.864,0,3.442-0.86,5.547-2.965V32.821z"/>
	<path fill="#1D6F00" d="M238.432,23.541c-0.477-1.435-2.104-1.865-3.682-2.153l0.143-1.531h11.48l-0.145,1.531
		c-1.146,0.144-2.246,0.335-3.205,1.148l4.641,15.689l5.07-17.506h2.01l5.5,17.506l4.594-15.689
		c-0.908-0.67-1.916-0.957-3.062-1.148l0.143-1.531h9.76l-0.145,1.531c-1.34,0.24-3.109,0.574-3.443,1.531l-7.127,21.143h-3.156
		l-4.689-14.637l-4.639,14.637h-3.158L238.432,23.541z"/>
	<path fill="#1D6F00" d="M273.691,42.196c1.531-0.239,2.346-0.526,3.396-1.292V26.172c0-2.583-0.955-3.3-3.588-3.396l0.145-1.531
		c2.201-0.383,4.352-1.148,6.314-1.722l0.908,0.479l0.479,3.205c1.627-2.249,4.16-3.684,6.791-3.684
		c4.977,0,7.939,2.631,7.939,7.127v14.254c0.625,0.479,2.105,1.101,3.59,1.387l-0.193,1.771h-11.336l0.145-1.771
		c1.293-0.19,2.439-0.669,3.396-1.387V27.128c0-3.492-1.482-5.118-4.4-5.118c-2.346,0-4.734,1.77-5.789,4.305v14.589
		c0.863,0.622,2.105,1.101,3.588,1.387l-0.191,1.771H273.5L273.691,42.196z"/>
</g>
<g>
	<path fill="#1D4600" d="M420.967,16.776c0.502-0.057,0.961-0.143,1.391-0.401V8.356c-0.875,0.014-1.477,0.043-1.906,0.086
		c-0.402,0.559-0.617,1.333-0.633,1.778c-0.113,0.014-0.244,0.029-0.373,0.029c-0.1,0-0.199-0.015-0.314-0.029V7.61
		c0,0,2.008,0.043,3.9,0.043c1.479,0,3.902-0.043,3.902-0.043v2.611c-0.115,0.014-0.215,0.029-0.316,0.029
		c-0.127,0-0.256-0.015-0.371-0.029c-0.029-0.445-0.244-1.19-0.631-1.765c-0.418-0.042-1.006-0.086-1.895-0.1v8.019
		c0.43,0.244,0.977,0.344,1.477,0.401l-0.07,0.574h-4.246L420.967,16.776z"/>
	<path fill="#1D4600" d="M427.9,16.776c0.502-0.057,0.961-0.143,1.391-0.401V8.628c-0.43-0.244-0.975-0.344-1.477-0.402l0.072-0.573
		h3.184l3.084,7.789l2.969-7.789h3.156l-0.088,0.573c-0.5,0.058-0.959,0.144-1.389,0.402v7.746c0.43,0.244,0.975,0.344,1.477,0.401
		l-0.072,0.574h-4.188l0.084-0.574c0.504-0.057,0.963-0.143,1.393-0.401h-0.059V9.231l-3.039,8.119h-0.918l-3.199-8.248v7.272
		c0.43,0.244,0.977,0.344,1.479,0.401l-0.072,0.574h-3.873L427.9,16.776z"/>
</g>
<g>
	<path fill="#654202" d="M69.871,62.617h8.845c0.045,0.299,0.067,0.626,0.067,0.984c0,0.164-0.004,0.336-0.011,0.516
		c-0.008,0.179-0.026,0.344-0.056,0.492h-6.561v4.613h5.24c0.03,0.148,0.052,0.311,0.066,0.48c0.015,0.172,0.023,0.34,0.023,0.505
		c0,0.163-0.008,0.336-0.023,0.515c-0.015,0.18-0.037,0.344-0.066,0.493h-5.24v5.509h6.74c0.045,0.299,0.067,0.627,0.067,0.985
		c0,0.163-0.004,0.335-0.011,0.515c-0.008,0.18-0.026,0.343-0.056,0.492h-9.024V62.617z"/>
	<path fill="#654202" d="M82.479,68.976h-1.881c-0.06-0.237-0.09-0.529-0.09-0.872c0-0.33,0.03-0.621,0.09-0.873h1.881v-0.807
		c0-1.418,0.354-2.497,1.063-3.236c0.709-0.738,1.743-1.109,3.102-1.109c0.373,0,0.702,0.02,0.986,0.057
		c0.283,0.037,0.552,0.094,0.806,0.168c-0.03,0.373-0.071,0.694-0.123,0.963s-0.123,0.545-0.212,0.828
		c-0.149-0.029-0.325-0.062-0.526-0.1s-0.445-0.057-0.728-0.057c-0.329,0-0.623,0.033-0.884,0.101s-0.485,0.194-0.672,0.382
		c-0.187,0.186-0.333,0.446-0.437,0.783c-0.104,0.336-0.157,0.765-0.157,1.287v0.74h2.934c0.044,0.298,0.066,0.604,0.066,0.918
		c0,0.283-0.022,0.559-0.066,0.827h-2.934v9.741c-0.165,0.03-0.347,0.053-0.548,0.067s-0.385,0.022-0.549,0.022
		s-0.351-0.008-0.56-0.022c-0.209-0.015-0.396-0.037-0.56-0.067V68.976z"/>
	<path fill="#654202" d="M90.764,68.976h-1.881c-0.06-0.237-0.089-0.529-0.089-0.872c0-0.33,0.029-0.621,0.089-0.873h1.881v-0.807
		c0-1.418,0.355-2.497,1.063-3.236c0.709-0.738,1.743-1.109,3.102-1.109c0.374,0,0.702,0.02,0.985,0.057s0.552,0.094,0.807,0.168
		c-0.031,0.373-0.071,0.694-0.123,0.963c-0.053,0.269-0.124,0.545-0.213,0.828c-0.149-0.029-0.325-0.062-0.526-0.1
		c-0.202-0.037-0.445-0.057-0.728-0.057c-0.328,0-0.623,0.033-0.884,0.101s-0.485,0.194-0.672,0.382
		c-0.187,0.186-0.333,0.446-0.437,0.783c-0.105,0.336-0.157,0.765-0.157,1.287v0.74h2.933c0.045,0.298,0.067,0.604,0.067,0.918
		c0,0.283-0.022,0.559-0.067,0.827h-2.933v9.741c-0.165,0.03-0.348,0.053-0.549,0.067c-0.202,0.015-0.385,0.022-0.549,0.022
		c-0.165,0-0.351-0.008-0.56-0.022c-0.209-0.015-0.396-0.037-0.56-0.067V68.976z"/>
	<path fill="#654202" d="M99.922,73.522c0.03,1.253,0.354,2.172,0.974,2.753c0.62,0.582,1.534,0.875,2.743,0.875
		c1.06,0,2.067-0.188,3.023-0.561c0.12,0.225,0.216,0.496,0.292,0.817c0.074,0.321,0.119,0.638,0.134,0.95
		c-0.493,0.21-1.034,0.367-1.624,0.473c-0.59,0.104-1.243,0.156-1.959,0.156c-1.045,0-1.941-0.146-2.688-0.438
		c-0.746-0.291-1.362-0.701-1.847-1.23c-0.485-0.531-0.84-1.158-1.063-1.883c-0.224-0.723-0.336-1.518-0.336-2.384
		c0-0.851,0.108-1.646,0.325-2.386c0.217-0.738,0.549-1.381,0.997-1.926c0.448-0.544,1.011-0.977,1.691-1.298
		c0.679-0.321,1.481-0.482,2.407-0.482c0.791,0,1.486,0.136,2.083,0.403c0.597,0.27,1.097,0.639,1.5,1.108
		c0.403,0.471,0.709,1.03,0.918,1.681c0.209,0.648,0.314,1.354,0.314,2.115c0,0.209-0.008,0.43-0.022,0.662
		c-0.015,0.23-0.03,0.428-0.045,0.593H99.922z M105.61,71.864c0-0.417-0.055-0.817-0.167-1.198
		c-0.112-0.381-0.276-0.713-0.493-0.996c-0.217-0.283-0.493-0.511-0.828-0.683c-0.336-0.171-0.736-0.257-1.199-0.257
		c-0.911,0-1.608,0.275-2.093,0.827c-0.485,0.554-0.781,1.321-0.885,2.307H105.61z"/>
	<path fill="#654202" d="M118.375,76.725c0.119,0.209,0.224,0.47,0.313,0.783c0.089,0.314,0.142,0.635,0.157,0.963
		c-0.881,0.344-1.889,0.516-3.023,0.516c-1.911,0-3.352-0.541-4.322-1.625c-0.97-1.082-1.456-2.54-1.456-4.377
		c0-0.852,0.12-1.643,0.359-2.373c0.238-0.732,0.593-1.367,1.063-1.904s1.057-0.963,1.758-1.275
		c0.702-0.314,1.515-0.472,2.441-0.472c0.626,0,1.179,0.038,1.657,0.112c0.478,0.075,0.933,0.193,1.366,0.359
		c0,0.253-0.033,0.547-0.101,0.885c-0.067,0.335-0.16,0.63-0.28,0.884c-0.731-0.254-1.567-0.38-2.508-0.38
		c-1.15,0-2.008,0.38-2.575,1.141c-0.568,0.762-0.851,1.77-0.851,3.023c0,1.434,0.321,2.482,0.962,3.146
		c0.642,0.664,1.523,0.997,2.643,0.997c0.448,0,0.862-0.03,1.243-0.091C117.602,76.978,117.986,76.873,118.375,76.725z"/>
	<path fill="#654202" d="M121.845,68.998h-1.747l-0.089-0.313l3.852-4.3h0.179v2.846h2.912c0.06,0.252,0.089,0.535,0.089,0.85
		c0,0.166-0.008,0.321-0.022,0.471c-0.015,0.148-0.037,0.299-0.067,0.447h-2.912v5.24c0,0.627,0.026,1.127,0.079,1.5
		c0.052,0.374,0.141,0.661,0.269,0.863c0.127,0.201,0.298,0.336,0.515,0.402c0.216,0.066,0.488,0.102,0.817,0.102
		c0.253,0,0.493-0.02,0.716-0.057c0.224-0.037,0.426-0.078,0.604-0.123c0.104,0.299,0.168,0.604,0.19,0.918
		c0.022,0.312,0.034,0.59,0.034,0.828c-0.299,0.075-0.613,0.131-0.94,0.168c-0.329,0.037-0.679,0.057-1.053,0.057
		c-1.075,0-1.914-0.261-2.519-0.783c-0.604-0.523-0.907-1.389-0.907-2.598V68.998z"/>
	<path fill="#654202" d="M130.108,68.976h-1.455c-0.031-0.118-0.053-0.257-0.067-0.415c-0.015-0.155-0.023-0.309-0.023-0.457
		c0-0.15,0.008-0.303,0.023-0.459c0.015-0.158,0.037-0.296,0.067-0.414h3.628v11.486c-0.165,0.03-0.348,0.053-0.549,0.067
		s-0.384,0.022-0.549,0.022c-0.149,0-0.325-0.008-0.526-0.022s-0.385-0.037-0.549-0.067V68.976z M129.616,64.699
		c-0.03-0.179-0.049-0.373-0.056-0.582s-0.011-0.396-0.011-0.561s0.003-0.35,0.011-0.56c0.007-0.209,0.026-0.396,0.056-0.56
		c0.194-0.029,0.403-0.053,0.627-0.068c0.224-0.014,0.418-0.021,0.583-0.021c0.164,0,0.358,0.008,0.582,0.021
		c0.225,0.016,0.425,0.039,0.604,0.068c0.03,0.164,0.048,0.351,0.056,0.56c0.007,0.21,0.011,0.396,0.011,0.56
		s-0.004,0.352-0.011,0.561c-0.008,0.209-0.026,0.403-0.056,0.582c-0.179,0.03-0.377,0.053-0.593,0.066
		c-0.217,0.016-0.407,0.022-0.571,0.022c-0.179,0-0.38-0.007-0.604-0.022C130.019,64.752,129.81,64.729,129.616,64.699z"/>
	<path fill="#654202" d="M134.475,67.23c0.209-0.031,0.426-0.054,0.649-0.068c0.224-0.015,0.426-0.022,0.605-0.022
		c0.193,0,0.406,0.008,0.638,0.022c0.231,0.015,0.428,0.037,0.593,0.068l3.135,9.471l3.158-9.471
		c0.164-0.031,0.351-0.054,0.56-0.068s0.41-0.022,0.604-0.022c0.165,0,0.351,0.008,0.56,0.022c0.209,0.015,0.417,0.037,0.627,0.068
		l-4.479,11.486c-0.194,0.03-0.388,0.053-0.582,0.067c-0.194,0.015-0.374,0.022-0.538,0.022c-0.164,0-0.339-0.008-0.526-0.022
		c-0.187-0.015-0.37-0.037-0.549-0.067L134.475,67.23z"/>
	<path fill="#654202" d="M149.434,73.522c0.03,1.253,0.354,2.172,0.974,2.753c0.62,0.582,1.534,0.875,2.743,0.875
		c1.06,0,2.067-0.188,3.023-0.561c0.119,0.225,0.216,0.496,0.292,0.817c0.074,0.321,0.119,0.638,0.134,0.95
		c-0.493,0.21-1.034,0.367-1.624,0.473c-0.59,0.104-1.243,0.156-1.959,0.156c-1.045,0-1.941-0.146-2.687-0.438
		c-0.747-0.291-1.363-0.701-1.848-1.23c-0.485-0.531-0.839-1.158-1.063-1.883c-0.224-0.723-0.336-1.518-0.336-2.384
		c0-0.851,0.108-1.646,0.325-2.386c0.216-0.738,0.548-1.381,0.997-1.926c0.447-0.544,1.011-0.977,1.69-1.298
		c0.679-0.321,1.481-0.482,2.407-0.482c0.791,0,1.485,0.136,2.083,0.403c0.597,0.27,1.097,0.639,1.5,1.108
		c0.403,0.471,0.709,1.03,0.918,1.681c0.209,0.648,0.314,1.354,0.314,2.115c0,0.209-0.008,0.43-0.022,0.662
		c-0.015,0.23-0.031,0.428-0.045,0.593H149.434z M155.122,71.864c0-0.417-0.056-0.817-0.168-1.198
		c-0.112-0.381-0.276-0.713-0.493-0.996c-0.217-0.283-0.492-0.511-0.829-0.683c-0.336-0.171-0.735-0.257-1.198-0.257
		c-0.911,0-1.609,0.275-2.094,0.827c-0.485,0.554-0.781,1.321-0.885,2.307H155.122z"/>
	<path fill="#654202" d="M165.423,70.342c0-0.402,0.075-0.779,0.224-1.131c0.149-0.35,0.354-0.656,0.616-0.918
		c0.261-0.26,0.567-0.465,0.918-0.615c0.35-0.149,0.728-0.225,1.13-0.225c0.403,0,0.776,0.075,1.12,0.225
		c0.343,0.15,0.646,0.355,0.907,0.615c0.261,0.262,0.466,0.568,0.616,0.918c0.149,0.352,0.224,0.729,0.224,1.131
		c0,0.403-0.075,0.781-0.224,1.131c-0.149,0.352-0.355,0.658-0.616,0.918c-0.261,0.262-0.564,0.467-0.907,0.617
		c-0.344,0.148-0.717,0.224-1.12,0.224c-0.403,0-0.78-0.075-1.13-0.224c-0.351-0.15-0.657-0.355-0.918-0.617
		c-0.262-0.26-0.467-0.566-0.616-0.918C165.498,71.123,165.423,70.745,165.423,70.342z"/>
	<path fill="#654202" d="M179.731,76.275c0.494,0.18,1.008,0.337,1.545,0.471c0.538,0.135,1.194,0.202,1.971,0.202
		c1.224,0,2.139-0.25,2.743-0.751c0.605-0.5,0.907-1.174,0.907-2.026c0-0.417-0.064-0.776-0.19-1.075
		c-0.127-0.298-0.317-0.555-0.571-0.771s-0.571-0.414-0.952-0.594s-0.825-0.373-1.333-0.582l-1.276-0.516
		c-0.433-0.178-0.828-0.377-1.187-0.594c-0.358-0.215-0.668-0.481-0.929-0.795c-0.262-0.312-0.467-0.674-0.616-1.086
		c-0.149-0.41-0.224-0.898-0.224-1.467c0-1.357,0.462-2.421,1.388-3.189c0.926-0.77,2.224-1.154,3.896-1.154
		c0.717,0,1.396,0.061,2.038,0.18c0.642,0.12,1.208,0.269,1.702,0.447c-0.075,0.627-0.239,1.247-0.493,1.859
		c-0.403-0.15-0.869-0.284-1.399-0.402c-0.53-0.121-1.13-0.18-1.802-0.18c-0.941,0-1.665,0.189-2.173,0.57
		c-0.507,0.381-0.761,0.951-0.761,1.713c0,0.313,0.063,0.594,0.19,0.84c0.126,0.247,0.294,0.463,0.504,0.65
		c0.209,0.186,0.455,0.354,0.739,0.504c0.283,0.148,0.582,0.283,0.896,0.402l1.254,0.492c0.597,0.239,1.127,0.49,1.589,0.75
		c0.463,0.262,0.858,0.568,1.187,0.918c0.329,0.352,0.579,0.766,0.75,1.243c0.172,0.479,0.258,1.037,0.258,1.681
		c0,1.537-0.53,2.75-1.59,3.639c-1.06,0.888-2.546,1.332-4.457,1.332c-0.463,0-0.88-0.016-1.254-0.045
		c-0.373-0.029-0.72-0.076-1.041-0.135c-0.321-0.06-0.631-0.135-0.929-0.225c-0.299-0.089-0.605-0.186-0.918-0.291
		c0.029-0.328,0.097-0.663,0.201-1.008C179.5,76.941,179.612,76.605,179.731,76.275z"/>
	<path fill="#654202" d="M198.229,71.148c0-0.881-0.225-1.493-0.672-1.836c-0.448-0.344-1.098-0.516-1.948-0.516
		c-0.523,0-1.011,0.042-1.467,0.123c-0.456,0.082-0.899,0.191-1.333,0.324c-0.284-0.492-0.425-1.082-0.425-1.77
		c0.507-0.162,1.067-0.291,1.679-0.379c0.612-0.09,1.202-0.136,1.769-0.136c1.493,0,2.627,0.341,3.404,1.019
		c0.775,0.68,1.164,1.766,1.164,3.26v7.188c-0.523,0.119-1.156,0.242-1.903,0.369c-0.747,0.127-1.508,0.191-2.284,0.191
		c-0.732,0-1.392-0.067-1.982-0.202c-0.589-0.134-1.09-0.351-1.5-0.649s-0.727-0.679-0.951-1.143
		c-0.224-0.461-0.336-1.022-0.336-1.678c0-0.643,0.13-1.206,0.392-1.691c0.261-0.484,0.616-0.889,1.064-1.209
		c0.448-0.322,0.962-0.561,1.545-0.717c0.583-0.158,1.194-0.236,1.836-0.236c0.478,0,0.869,0.012,1.175,0.034
		c0.306,0.023,0.564,0.049,0.773,0.078V71.148z M198.229,73.32c-0.225-0.029-0.507-0.06-0.851-0.089
		c-0.344-0.03-0.635-0.046-0.874-0.046c-0.926,0-1.631,0.172-2.116,0.516c-0.485,0.344-0.728,0.865-0.728,1.566
		c0,0.449,0.082,0.799,0.246,1.055c0.165,0.252,0.37,0.445,0.616,0.581c0.246,0.134,0.519,0.218,0.817,0.247
		c0.298,0.029,0.582,0.044,0.851,0.044c0.343,0,0.698-0.019,1.063-0.056c0.366-0.037,0.691-0.094,0.975-0.168V73.32z"/>
	<path fill="#654202" d="M204.521,68.976h-1.881c-0.06-0.237-0.089-0.529-0.089-0.872c0-0.33,0.029-0.621,0.089-0.873h1.881v-0.807
		c0-1.418,0.355-2.497,1.063-3.236c0.709-0.738,1.744-1.109,3.102-1.109c0.373,0,0.701,0.02,0.985,0.057s0.553,0.094,0.808,0.168
		c-0.031,0.373-0.072,0.694-0.123,0.963c-0.054,0.269-0.125,0.545-0.214,0.828c-0.149-0.029-0.325-0.062-0.526-0.1
		s-0.444-0.057-0.729-0.057c-0.328,0-0.623,0.033-0.883,0.101c-0.262,0.067-0.486,0.194-0.672,0.382
		c-0.188,0.186-0.334,0.446-0.438,0.783c-0.104,0.336-0.156,0.765-0.156,1.287v0.74h2.933c0.046,0.298,0.067,0.604,0.067,0.918
		c0,0.283-0.021,0.559-0.067,0.827h-2.933v9.741c-0.165,0.03-0.348,0.053-0.549,0.067c-0.202,0.015-0.385,0.022-0.549,0.022
		s-0.352-0.008-0.56-0.022c-0.21-0.015-0.396-0.037-0.561-0.067V68.976z"/>
	<path fill="#654202" d="M213.68,73.522c0.029,1.253,0.354,2.172,0.975,2.753c0.619,0.582,1.533,0.875,2.742,0.875
		c1.061,0,2.068-0.188,3.023-0.561c0.118,0.225,0.215,0.496,0.291,0.817c0.074,0.321,0.119,0.638,0.135,0.95
		c-0.494,0.21-1.035,0.367-1.624,0.473c-0.59,0.104-1.243,0.156-1.96,0.156c-1.045,0-1.939-0.146-2.687-0.438
		s-1.362-0.701-1.848-1.23c-0.485-0.531-0.839-1.158-1.063-1.883c-0.223-0.723-0.336-1.518-0.336-2.384
		c0-0.851,0.108-1.646,0.324-2.386c0.217-0.738,0.549-1.381,0.996-1.926c0.449-0.544,1.012-0.977,1.691-1.298
		c0.679-0.321,1.482-0.482,2.407-0.482c0.791,0,1.485,0.136,2.083,0.403c0.597,0.27,1.097,0.639,1.5,1.108
		c0.404,0.471,0.709,1.03,0.918,1.681c0.209,0.648,0.313,1.354,0.313,2.115c0,0.209-0.007,0.43-0.021,0.662
		c-0.015,0.23-0.03,0.428-0.045,0.593H213.68z M219.368,71.864c0-0.417-0.056-0.817-0.168-1.198
		c-0.111-0.381-0.276-0.713-0.492-0.996c-0.217-0.283-0.492-0.511-0.828-0.683c-0.337-0.171-0.736-0.257-1.199-0.257
		c-0.91,0-1.608,0.275-2.094,0.827c-0.484,0.554-0.78,1.321-0.885,2.307H219.368z"/>
	<path fill="#654202" d="M229.668,70.342c0-0.402,0.076-0.779,0.225-1.131c0.148-0.35,0.354-0.656,0.615-0.918
		c0.262-0.26,0.568-0.465,0.918-0.615c0.352-0.149,0.729-0.225,1.131-0.225s0.777,0.075,1.121,0.225
		c0.344,0.15,0.646,0.355,0.906,0.615c0.262,0.262,0.469,0.568,0.615,0.918c0.15,0.352,0.227,0.729,0.227,1.131
		c0,0.403-0.076,0.781-0.227,1.131c-0.146,0.352-0.354,0.658-0.615,0.918c-0.26,0.262-0.562,0.467-0.906,0.617
		c-0.344,0.148-0.719,0.224-1.121,0.224s-0.779-0.075-1.131-0.224c-0.35-0.15-0.656-0.355-0.918-0.617
		c-0.262-0.26-0.467-0.566-0.615-0.918C229.744,71.123,229.668,70.745,229.668,70.342z"/>
	<path fill="#654202" d="M252.309,75h-6.113l-1.098,3.717c-0.193,0.03-0.387,0.053-0.582,0.067
		c-0.193,0.015-0.389,0.022-0.582,0.022c-0.211,0-0.414-0.008-0.615-0.022s-0.387-0.037-0.549-0.067l5.24-16.1
		c0.193-0.031,0.402-0.053,0.625-0.068c0.225-0.014,0.457-0.021,0.697-0.021c0.207,0,0.424,0.008,0.646,0.021
		c0.225,0.016,0.441,0.037,0.652,0.068l5.215,16.1c-0.178,0.03-0.379,0.053-0.605,0.067c-0.223,0.015-0.438,0.022-0.646,0.022
		c-0.195,0-0.393-0.008-0.594-0.022s-0.393-0.037-0.57-0.067L252.309,75z M246.801,73.008h4.904l-2.465-8.22L246.801,73.008z"/>
	<path fill="#654202" d="M258.801,68.976h-1.881c-0.059-0.237-0.09-0.529-0.09-0.872c0-0.33,0.031-0.621,0.09-0.873h1.881v-0.807
		c0-1.418,0.355-2.497,1.064-3.236c0.709-0.738,1.742-1.109,3.102-1.109c0.373,0,0.703,0.02,0.984,0.057
		c0.285,0.037,0.553,0.094,0.809,0.168c-0.031,0.373-0.072,0.694-0.125,0.963c-0.051,0.269-0.123,0.545-0.213,0.828
		c-0.148-0.029-0.322-0.062-0.525-0.1c-0.201-0.037-0.445-0.057-0.727-0.057c-0.33,0-0.625,0.033-0.885,0.101
		c-0.262,0.067-0.488,0.194-0.674,0.382c-0.186,0.186-0.33,0.446-0.436,0.783c-0.105,0.336-0.158,0.765-0.158,1.287v0.74h2.934
		c0.047,0.298,0.068,0.604,0.068,0.918c0,0.283-0.021,0.559-0.068,0.827h-2.934v9.741c-0.162,0.03-0.346,0.053-0.547,0.067
		s-0.385,0.022-0.551,0.022c-0.162,0-0.35-0.008-0.559-0.022s-0.395-0.037-0.561-0.067V68.976z"/>
	<path fill="#654202" d="M267.086,68.976h-1.881c-0.059-0.237-0.09-0.529-0.09-0.872c0-0.33,0.031-0.621,0.09-0.873h1.881v-0.807
		c0-1.418,0.355-2.497,1.064-3.236c0.709-0.738,1.742-1.109,3.102-1.109c0.373,0,0.701,0.02,0.986,0.057
		c0.283,0.037,0.551,0.094,0.805,0.168c-0.029,0.373-0.07,0.694-0.123,0.963c-0.051,0.269-0.123,0.545-0.213,0.828
		c-0.148-0.029-0.322-0.062-0.525-0.1c-0.201-0.037-0.443-0.057-0.729-0.057c-0.328,0-0.623,0.033-0.883,0.101
		c-0.262,0.067-0.488,0.194-0.674,0.382c-0.186,0.186-0.33,0.446-0.436,0.783c-0.104,0.336-0.158,0.765-0.158,1.287v0.74h2.936
		c0.045,0.298,0.066,0.604,0.066,0.918c0,0.283-0.021,0.559-0.066,0.827h-2.936v9.741c-0.162,0.03-0.346,0.053-0.547,0.067
		s-0.385,0.022-0.551,0.022c-0.162,0-0.35-0.008-0.559-0.022s-0.395-0.037-0.561-0.067V68.976z"/>
	<path fill="#654202" d="M279.246,78.986c-0.895,0-1.678-0.154-2.352-0.459c-0.67-0.307-1.23-0.729-1.68-1.266
		c-0.445-0.537-0.779-1.172-0.996-1.904c-0.217-0.73-0.324-1.521-0.324-2.373s0.107-1.643,0.324-2.373
		c0.217-0.732,0.551-1.367,0.996-1.904c0.449-0.537,1.01-0.963,1.68-1.275c0.674-0.314,1.457-0.472,2.352-0.472
		c0.896,0,1.68,0.157,2.352,0.472c0.672,0.312,1.232,0.738,1.68,1.275s0.781,1.172,0.996,1.904c0.217,0.73,0.324,1.521,0.324,2.373
		s-0.107,1.643-0.324,2.373c-0.215,0.732-0.549,1.367-0.996,1.904s-1.008,0.959-1.68,1.266
		C280.926,78.832,280.143,78.986,279.246,78.986z M279.246,77.217c1.029,0,1.791-0.373,2.285-1.119
		c0.492-0.746,0.738-1.784,0.738-3.113c0-1.328-0.246-2.361-0.738-3.102c-0.494-0.738-1.256-1.109-2.285-1.109
		s-1.789,0.371-2.273,1.109c-0.484,0.74-0.727,1.773-0.727,3.102c0,1.329,0.242,2.367,0.727,3.113S278.217,77.217,279.246,77.217z"
		/>
	<path fill="#654202" d="M287.51,67.23c0.162-0.031,0.32-0.054,0.469-0.068c0.15-0.015,0.307-0.022,0.471-0.022
		s0.328,0.008,0.492,0.022c0.166,0.015,0.312,0.037,0.449,0.068c0.045,0.223,0.09,0.518,0.135,0.884
		c0.043,0.364,0.066,0.675,0.066,0.929c0.312-0.506,0.729-0.947,1.244-1.32c0.512-0.374,1.174-0.561,1.98-0.561
		c0.117,0,0.242,0.004,0.369,0.012c0.127,0.007,0.236,0.019,0.326,0.033c0.027,0.135,0.051,0.275,0.066,0.426
		c0.014,0.148,0.021,0.307,0.021,0.471c0,0.178-0.012,0.365-0.033,0.559c-0.023,0.195-0.049,0.381-0.078,0.561
		c-0.121-0.03-0.244-0.045-0.369-0.045c-0.127,0-0.229,0-0.303,0c-0.402,0-0.787,0.056-1.154,0.168
		c-0.365,0.111-0.693,0.31-0.984,0.594c-0.291,0.283-0.523,0.672-0.693,1.164c-0.172,0.492-0.258,1.128-0.258,1.904v5.709
		c-0.166,0.03-0.348,0.053-0.549,0.067s-0.385,0.022-0.549,0.022c-0.166,0-0.348-0.008-0.549-0.022
		c-0.203-0.015-0.393-0.037-0.57-0.067V67.23z"/>
	<path fill="#654202" d="M303.207,62.303c0.164-0.03,0.35-0.053,0.559-0.066c0.209-0.016,0.389-0.022,0.539-0.022
		c0.162,0,0.346,0.007,0.547,0.022c0.201,0.014,0.385,0.036,0.549,0.066v16.102c-0.568,0.163-1.201,0.303-1.902,0.414
		s-1.488,0.168-2.352,0.168c-0.807,0-1.572-0.102-2.297-0.303s-1.354-0.533-1.891-0.996s-0.963-1.061-1.275-1.791
		c-0.314-0.732-0.471-1.637-0.471-2.711c0-0.925,0.137-1.768,0.412-2.529c0.277-0.762,0.67-1.414,1.178-1.96
		c0.506-0.545,1.113-0.966,1.822-1.265c0.711-0.299,1.498-0.449,2.365-0.449c0.387,0,0.779,0.031,1.174,0.09
		c0.396,0.061,0.742,0.135,1.043,0.225V62.303z M303.207,69.178c-0.301-0.119-0.621-0.209-0.965-0.269
		c-0.342-0.06-0.717-0.089-1.119-0.089c-0.613,0-1.141,0.111-1.59,0.335c-0.447,0.224-0.816,0.53-1.109,0.918
		c-0.291,0.389-0.508,0.848-0.648,1.378c-0.143,0.529-0.213,1.107-0.213,1.734c0.016,1.419,0.35,2.435,1.008,3.046
		c0.656,0.612,1.553,0.919,2.688,0.919c0.389,0,0.748-0.02,1.074-0.057c0.328-0.037,0.619-0.094,0.875-0.168V69.178z"/>
	<path fill="#654202" d="M315.029,71.148c0-0.881-0.225-1.493-0.672-1.836c-0.447-0.344-1.096-0.516-1.949-0.516
		c-0.523,0-1.012,0.042-1.465,0.123c-0.457,0.082-0.9,0.191-1.334,0.324c-0.283-0.492-0.424-1.082-0.424-1.77
		c0.506-0.162,1.066-0.291,1.68-0.379c0.611-0.09,1.201-0.136,1.768-0.136c1.492,0,2.629,0.341,3.404,1.019
		c0.775,0.68,1.164,1.766,1.164,3.26v7.188c-0.521,0.119-1.156,0.242-1.904,0.369c-0.746,0.127-1.508,0.191-2.283,0.191
		c-0.73,0-1.393-0.067-1.982-0.202c-0.588-0.134-1.088-0.351-1.5-0.649c-0.41-0.299-0.729-0.679-0.951-1.143
		c-0.223-0.461-0.336-1.022-0.336-1.678c0-0.643,0.131-1.206,0.391-1.691c0.262-0.484,0.617-0.889,1.064-1.209
		c0.449-0.322,0.963-0.561,1.545-0.717c0.582-0.158,1.195-0.236,1.838-0.236c0.477,0,0.869,0.012,1.174,0.034
		c0.307,0.023,0.564,0.049,0.773,0.078V71.148z M315.029,73.32c-0.225-0.029-0.508-0.06-0.85-0.089
		c-0.346-0.03-0.637-0.046-0.875-0.046c-0.924,0-1.629,0.172-2.115,0.516s-0.729,0.865-0.729,1.566c0,0.449,0.082,0.799,0.246,1.055
		c0.164,0.252,0.371,0.445,0.615,0.581c0.248,0.134,0.52,0.218,0.818,0.247s0.582,0.044,0.852,0.044
		c0.342,0,0.695-0.019,1.064-0.056c0.363-0.037,0.689-0.094,0.973-0.168V73.32z"/>
	<path fill="#654202" d="M320.516,62.303c0.162-0.03,0.348-0.053,0.549-0.066c0.201-0.016,0.385-0.022,0.549-0.022
		c0.162,0,0.35,0.007,0.559,0.022c0.209,0.014,0.395,0.036,0.561,0.066v6.316c0.268-0.449,0.686-0.838,1.254-1.166
		s1.254-0.493,2.061-0.493c0.688,0,1.322,0.112,1.904,0.337s1.082,0.57,1.5,1.041c0.416,0.471,0.742,1.067,0.973,1.792
		c0.232,0.724,0.346,1.579,0.346,2.563c0,1.97-0.555,3.512-1.666,4.625c-1.113,1.112-2.715,1.668-4.805,1.668
		c-0.654,0-1.33-0.064-2.027-0.191c-0.693-0.127-1.279-0.271-1.756-0.438V62.303z M322.732,76.857
		c0.268,0.091,0.555,0.154,0.861,0.191s0.623,0.057,0.953,0.057c0.551,0,1.062-0.086,1.533-0.258s0.877-0.433,1.221-0.785
		c0.344-0.35,0.615-0.797,0.816-1.342c0.203-0.546,0.303-1.191,0.303-1.938c0-1.239-0.217-2.203-0.65-2.889
		c-0.432-0.687-1.148-1.031-2.148-1.031c-0.344,0-0.682,0.057-1.02,0.17c-0.334,0.111-0.645,0.291-0.93,0.536
		c-0.283,0.247-0.512,0.575-0.682,0.985c-0.172,0.411-0.258,0.906-0.258,1.489V76.857z"/>
	<path fill="#654202" d="M333.705,62.303c0.164-0.03,0.348-0.053,0.549-0.066c0.201-0.016,0.385-0.022,0.547-0.022
		c0.166,0,0.35,0.007,0.551,0.022c0.201,0.014,0.385,0.036,0.549,0.066v12.943c0,0.418,0.037,0.746,0.111,0.985
		c0.074,0.238,0.174,0.422,0.303,0.548c0.127,0.128,0.275,0.21,0.449,0.248c0.17,0.035,0.352,0.055,0.547,0.055
		c0.135,0,0.287-0.008,0.459-0.023c0.172-0.014,0.316-0.035,0.436-0.066c0.135,0.523,0.203,1.09,0.203,1.703
		c-0.209,0.074-0.463,0.123-0.762,0.145c-0.299,0.022-0.574,0.033-0.828,0.033c-0.434,0-0.838-0.052-1.209-0.156
		c-0.373-0.104-0.703-0.275-0.986-0.514c-0.283-0.24-0.508-0.561-0.672-0.964s-0.246-0.903-0.246-1.501V62.303z"/>
	<path fill="#654202" d="M342.08,73.522c0.029,1.253,0.355,2.172,0.975,2.753c0.617,0.582,1.533,0.875,2.742,0.875
		c1.059,0,2.066-0.188,3.023-0.561c0.119,0.225,0.217,0.496,0.291,0.817s0.119,0.638,0.135,0.95
		c-0.492,0.21-1.035,0.367-1.623,0.473c-0.59,0.104-1.244,0.156-1.961,0.156c-1.045,0-1.939-0.146-2.688-0.438
		c-0.744-0.291-1.361-0.701-1.846-1.23c-0.484-0.531-0.842-1.158-1.066-1.883c-0.221-0.723-0.334-1.518-0.334-2.384
		c0-0.851,0.109-1.646,0.326-2.386c0.215-0.738,0.547-1.381,0.996-1.926c0.447-0.544,1.01-0.977,1.689-1.298
		s1.482-0.482,2.408-0.482c0.791,0,1.484,0.136,2.082,0.403c0.598,0.27,1.098,0.639,1.5,1.108c0.404,0.471,0.709,1.03,0.92,1.681
		c0.207,0.648,0.311,1.354,0.311,2.115c0,0.209-0.008,0.43-0.02,0.662c-0.016,0.23-0.031,0.428-0.047,0.593H342.08z M347.766,71.864
		c0-0.417-0.055-0.817-0.166-1.198s-0.275-0.713-0.492-0.996s-0.492-0.511-0.83-0.683c-0.334-0.171-0.734-0.257-1.197-0.257
		c-0.91,0-1.609,0.275-2.094,0.827c-0.484,0.554-0.779,1.321-0.885,2.307H347.766z"/>
</g>
<path fill="none" d="M357.783,19.523c-2.488,0-4.736,1.913-6.172,4.066l-0.525-3.587l-0.91-0.479
	c-1.959,0.574-4.113,1.339-6.312,1.722l-0.143,1.531c2.629,0.096,3.588,0.813,3.588,3.396v14.732
	c-1.055,0.766-1.867,1.053-3.396,1.292l-0.191,1.865h11.861l0.191-1.771c-1.674-0.286-3.109-0.765-4.066-1.387V29.186
	c0-3.348,2.441-6.84,4.354-6.84c1.006,0,1.482,0.573,1.482,1.578c0,0.431-0.285,1.196-0.527,1.436
	c0.289,1.004,1.484,1.579,2.633,1.579c1.77,0,2.727-1.626,2.727-3.205C362.375,20.862,360.078,19.523,357.783,19.523z"/>
<path fill="none" d="M328.936,11.726h-13.824l-0.238,1.914c1.674,0.191,3.49,0.526,4.926,1.339v25.83
	c-1.436,0.861-2.967,1.148-4.641,1.34l-0.285,1.913h14.158l0.238-1.913c-1.674-0.191-3.492-0.526-4.928-1.34v-10.81h2.346
	c8.18,0,13.535-2.057,13.535-9.232C340.223,15.075,336.828,11.726,328.936,11.726z M326.688,27.655h-2.346V14.309
	c0.957-0.143,2.154-0.43,4.594-0.43c4.16,0,6.648,2.2,6.648,6.792C335.584,25.598,332.141,27.655,326.688,27.655z"/>
<path fill="none" d="M375.627,19.523c-7.078,0-10.666,4.353-10.666,12.437s3.588,12.484,10.666,12.484
	c7.08,0,10.666-4.4,10.666-12.484S382.707,19.523,375.627,19.523z M375.627,42.053c-4.305,0-6.074-2.966-6.074-10.093
	s1.77-10.045,6.074-10.045c4.307,0,6.123,2.918,6.123,10.045S379.934,42.053,375.627,42.053z"/>
<path fill="none" d="M394.908,25.072c0-2.105,1.676-3.444,4.307-3.444c2.15,0,3.873,0.957,3.873,2.392
	c0,0.766-0.285,1.435-0.812,1.866c0.621,0.957,1.482,1.387,2.727,1.387c1.578,0,2.391-0.909,2.391-2.679
	c0-2.774-3.492-5.022-7.844-5.022c-5.166,0-8.514,2.487-8.514,6.41c0,9.28,12.58,5.74,12.58,12.102c0,2.2-1.867,4.018-4.641,4.018
	c-1.578,0-2.869-0.239-3.828-0.526c-0.812-1.482-1.146-2.87-1.387-5.884l-2.773,0.335v6.361c1.531,1.005,5.166,1.962,7.557,1.962
	c5.789,0,9.137-2.679,9.137-7.318C407.68,28.468,394.908,31.529,394.908,25.072z"/>
<path fill="#1D6F00" d="M375.627,21.915c-4.305,0-6.074,2.918-6.074,10.045s1.77,10.093,6.074,10.093
	c4.307,0,6.123-2.966,6.123-10.093S379.934,21.915,375.627,21.915z"/>
<path fill="#1D6F00" d="M305.988,2.998v46.05h108.838V2.998H305.988z M326.688,29.999h-2.346v10.81
	c1.436,0.813,3.254,1.148,4.928,1.34l-0.238,1.913h-14.158l0.285-1.913c1.674-0.191,3.205-0.479,4.641-1.34v-25.83
	c-1.436-0.813-3.252-1.148-4.926-1.339l0.238-1.914h13.824c7.893,0,11.287,3.349,11.287,9.041
	C340.223,27.942,334.867,29.999,326.688,29.999z M359.648,26.938c-1.148,0-2.344-0.574-2.633-1.579
	c0.242-0.239,0.527-1.004,0.527-1.436c0-1.004-0.477-1.578-1.482-1.578c-1.912,0-4.354,3.492-4.354,6.84v11.719
	c0.957,0.622,2.393,1.101,4.066,1.387l-0.191,1.771h-11.861l0.191-1.865c1.529-0.239,2.342-0.526,3.396-1.292V26.172
	c0-2.583-0.959-3.3-3.588-3.396l0.143-1.531c2.199-0.383,4.354-1.148,6.312-1.722l0.91,0.479l0.525,3.587
	c1.436-2.153,3.684-4.066,6.172-4.066c2.295,0,4.592,1.339,4.592,4.209C362.375,25.311,361.418,26.938,359.648,26.938z
	 M375.627,44.444c-7.078,0-10.666-4.4-10.666-12.484s3.588-12.437,10.666-12.437c7.08,0,10.666,4.353,10.666,12.437
	S382.707,44.444,375.627,44.444z M398.543,44.349c-2.391,0-6.025-0.957-7.557-1.962v-6.361l2.773-0.335
	c0.24,3.014,0.574,4.401,1.387,5.884c0.959,0.287,2.25,0.526,3.828,0.526c2.773,0,4.641-1.818,4.641-4.018
	c0-6.362-12.58-2.822-12.58-12.102c0-3.922,3.348-6.41,8.514-6.41c4.352,0,7.844,2.249,7.844,5.022c0,1.77-0.812,2.679-2.391,2.679
	c-1.244,0-2.105-0.43-2.727-1.387c0.527-0.431,0.812-1.1,0.812-1.866c0-1.435-1.723-2.392-3.873-2.392
	c-2.631,0-4.307,1.339-4.307,3.444c0,6.458,12.771,3.396,12.771,11.958C407.68,41.67,404.332,44.349,398.543,44.349z"/>
<path fill="#1D6F00" d="M328.936,13.879c-2.439,0-3.637,0.287-4.594,0.43v13.346h2.346c5.453,0,8.896-2.057,8.896-6.983
	C335.584,16.079,333.096,13.879,328.936,13.879z"/>
<polygon fill="#654202" points="305.988,49.048 165.055,49.048 163.26,55.623 414.826,55.623 414.826,55.225 414.826,49.048 "/>
</svg>
