<svg xmlns="http://www.w3.org/2000/svg" width="256" height="256"><path fill-opacity=".016" d="M0 128.004v128.004l128.25-.254 128.25-.254.254-127.75L257.008 0H0v128.004m.485.496c0 70.4.119 99.053.265 63.672.146-35.38.146-92.98 0-128C.604 29.153.485 58.1.485 128.5" fill="#212121" fill-rule="evenodd"/><path fill-opacity=".131" d="M101.22 38.578c-5.746 2.863-9.61 6.905-12.353 12.922-1.397 3.065-1.828 6.511-1.845 14.75L87 77H68.678c-14.133 0-19.39.364-22.994 1.592-6.377 2.173-13.968 9.249-17.384 16.205l-2.8 5.703v96l2.59 5.5c3.631 7.709 6.844 11.144 14.109 15.083L48.5 220.5h159l5-2.476c6.393-3.166 13.059-9.831 15.83-15.828 2.133-4.616 2.17-5.526 2.17-53.696v-49l-2.65-5c-3.185-6.008-8.897-11.916-14.35-14.843-3.596-1.93-6.019-2.198-24-2.652l-20-.505-.273-10c-.429-15.669-4.455-23.369-14.72-28.149-4.754-2.214-6.094-2.332-26.561-2.341-21.169-.01-21.646.036-26.726 2.568m7.815 20.356c-.569 1.064-1.035 5.564-1.035 10V77h40v-8.8c0-5.511-.448-9.248-1.2-10-.843-.843-6.481-1.2-18.965-1.2-16.54 0-17.836.133-18.8 1.934m-59.112 41.989L47 103.846v90.245l2.455 2.454L51.909 199h152.182l2.374-2.374c1.424-1.424 2.631-4.127 3.014-6.75.352-2.407.501-22.751.331-45.209l-.31-40.833-3.266-2.917L202.968 98H52.846l-2.923 2.923m71.484 12.054c-11.061 2.338-21.423 10.553-26.219 20.787-2.295 4.897-2.688 7.055-2.688 14.757 0 8.157.311 9.654 3.25 15.623 3.862 7.844 10.153 13.993 18.075 17.667 4.698 2.178 7.138 2.636 14.175 2.66 7.306.025 9.383-.379 14.782-2.872 8.062-3.723 16.207-12.28 19.133-20.102 2.857-7.634 2.824-18.443-.077-26.209-2.984-7.984-12.134-17.14-20.109-20.119-6.824-2.55-14.641-3.393-20.322-2.192m-1.225 23.053c-7.617 4.644-9.041 16.311-2.759 22.593 9.653 9.653 25.587 3.221 25.573-10.323-.011-10.986-13.245-18.103-22.814-12.27" fill="#212121" fill-rule="evenodd"/><path fill-opacity=".399" d="M104.5 37.207c-3.189 1.114-9.139 5.194-11.305 7.752-.717.848-2.4 3.791-3.74 6.541-2.091 4.292-2.437 6.441-2.445 15.175L87 76.85l-19.75.325c-18.238.3-20.073.498-23.972 2.581-6.699 3.58-10.951 7.902-14.231 14.466L26 100.319v47.663c0 53.558-.031 53.293 7.174 61.478 5.321 6.045 10.909 9.17 18.826 10.527 4.493.77 29.353 1.022 80.5.814l74-.301 5.5-2.613c3.025-1.437 7.249-4.362 9.387-6.5 2.138-2.138 5.063-6.362 6.5-9.387l2.613-5.5v-48c0-46.92-.048-48.104-2.137-52.622-2.931-6.339-8.748-12.512-14.8-15.706-4.912-2.592-5.649-2.682-24.71-2.996l-19.647-.324-.39-11.676c-.44-13.164-1.389-15.823-7.905-22.147-6.433-6.243-10.262-7.041-33.339-6.95-11.203.044-21.398.542-23.072 1.128m4.7 20.993c-.752.752-1.2 4.489-1.2 10V77h40v-8.8c0-5.511-.448-9.248-1.2-10-1.688-1.688-35.912-1.688-37.6 0M50.301 99.772c-1.209.951-2.671 2.995-3.25 4.543-.673 1.804-1.051 17.895-1.051 44.8 0 46.101.023 46.294 6.004 49.387 2.606 1.348 12.079 1.503 77.46 1.267l74.491-.269 2.773-2.772 2.772-2.772.281-43.696c.203-31.636-.042-44.475-.888-46.518-2.499-6.034 1.599-5.744-80.866-5.72-70.025.021-75.687.148-77.726 1.75m65.391 15.142c-9.048 3.644-15.559 9.766-19.767 18.586-3.826 8.019-4.601 15.305-2.502 23.536 4.195 16.458 17.824 27.228 34.457 27.231 14.506.002 25.966-7.108 32.339-20.067 2.972-6.042 3.281-7.518 3.28-15.685 0-7.649-.399-9.867-2.635-14.635-3.578-7.633-8.615-12.933-16.096-16.936-5.559-2.974-7.286-3.388-15.268-3.66-7.099-.241-10.016.103-13.808 1.63m7.808 19.628c-11.142 3.828-13.856 17.548-5.009 25.316 4.716 4.141 9.517 4.923 15.358 2.503 5.924-2.456 9.151-7.078 9.151-13.108 0-11.162-9.334-18.204-19.5-14.711" fill="#212121" fill-rule="evenodd"/><path fill-opacity=".985" d="M104.969 37.536c-5.953 1.835-12.241 7.328-15.064 13.161-1.797 3.711-2.364 6.933-2.714 15.421l-.442 10.729-18.624.327c-17.637.309-18.92.464-24.192 2.937-6.584 3.088-12.002 8.365-15.153 14.762-2.263 4.593-2.282 4.981-2.566 52.242-.282 46.831-.251 47.711 1.893 53.441 2.899 7.75 9.574 14.433 17.302 17.324 5.783 2.164 5.895 2.166 84.441 1.893l78.65-.273 4.222-2.256c6.364-3.401 11.107-7.996 14.092-13.654l2.686-5.09v-100l-2.291-4.291c-3.115-5.833-8.788-11.302-14.751-14.219-4.62-2.26-6.272-2.451-24.208-2.8L169 76.816v-8.727c0-12.133-2.033-18.401-7.861-24.228-6.846-6.846-11.29-7.877-33.571-7.791-12.458.048-19.475.503-22.599 1.466m4.472 19.883c-1.622 1.185-1.998 2.911-2.29 10.5l-.35 9.081H149v-8.5c0-12.626.209-12.5-20.809-12.5-12.935 0-17.256.327-18.75 1.419M52.388 97.97c-1.161.475-3.074 2.087-4.25 3.582-2.111 2.684-2.138 3.274-2.138 47.183V193.2l3.4 3.4 3.4 3.4h74.65c81.039 0 78.793.151 81.355-5.472.869-1.906 1.195-14.624 1.195-46.559v-43.937l-2.918-3.266-2.917-3.266-74.833-.196c-41.157-.108-75.782.192-76.944.666m65.482 16.595c-10.329 3.18-20.01 12.615-23.255 22.665-7.172 22.205 8.024 45.049 30.964 46.548 17.709 1.158 32.723-9.688 37.018-26.742 6.615-26.262-18.847-50.44-44.727-42.471m3.535 20.284c-11.142 5.209-11.376 21.878-.385 27.399 9.574 4.81 21.302-1.327 22.616-11.835.582-4.661-2.67-11.729-6.772-14.714-3.846-2.8-10.506-3.166-15.459-.85" fill="#212121" fill-rule="evenodd"/></svg>