<svg xmlns="http://www.w3.org/2000/svg" width="256" height="256"><path fill-opacity=".016" d="M0 128.004v128.004l128.25-.254 128.25-.254.254-127.75L257.008 0H0v128.004m.485.496c0 70.4.119 99.053.265 63.672.146-35.38.146-92.98 0-128C.604 29.153.485 58.1.485 128.5" fill="#1976D2" fill-rule="evenodd"/><path fill-opacity=".127" d="M107.435 1.89C98.708 5.854 91 16.081 91 23.696V27h-6.822c-3.752 0-8.902.709-11.444 1.575-5.444 1.855-12.54 7.792-15.186 12.706-1.874 3.48-1.891 3.486-10.136 3.919-9.798.514-15.114 3.336-18.392 9.761C27.037 58.848 27 60.594 27 151.01c0 77.324.226 92.522 1.411 94.79 1.894 3.625 6.455 7.833 9.904 9.136 3.925 1.483 174.445 1.483 178.37 0 3.449-1.303 8.01-5.511 9.904-9.136 1.185-2.268 1.411-17.466 1.411-94.79 0-90.416-.037-92.162-2.02-96.049-3.278-6.425-8.594-9.247-18.392-9.761-8.245-.433-8.262-.439-10.136-3.919-2.646-4.914-9.742-10.851-15.186-12.706-2.542-.866-7.692-1.575-11.444-1.575H164v-3.304c0-7.615-7.708-17.842-16.435-21.806-5.983-2.717-34.147-2.717-40.13 0m5.02 19.565c-1.35 1.35-2.458 3.487-2.461 4.75-.01 4.179-2.034 9.689-4.741 12.906-4.083 4.852-9.465 6.841-18.58 6.867-7.304.021-8.022.217-10.75 2.945-2.589 2.589-2.923 3.617-2.923 9V64h109v-6.077c0-5.383-.334-6.411-2.923-9-2.728-2.728-3.446-2.924-10.75-2.945-9.115-.026-14.497-2.015-18.58-6.867-2.707-3.217-4.731-8.727-4.741-12.906-.003-1.263-1.111-3.4-2.461-4.75C140.199 19.108 139.535 19 127.5 19s-12.699.108-15.045 2.455m8.468 8.468C118.759 32.087 118 33.795 118 36.5c0 5.081 4.419 9.5 9.5 9.5s9.5-4.419 9.5-9.5-4.419-9.5-9.5-9.5c-2.705 0-4.413.759-6.577 2.923M46 150.5V237h163V64h-3.793c-3.668 0-3.833.152-5.037 4.655-1.552 5.8-7.222 11.711-12.693 13.23-5.525 1.533-114.429 1.533-119.954 0-5.471-1.519-11.141-7.43-12.693-13.23C53.626 64.152 53.461 64 49.793 64H46v86.5m21.888-49c-5.505 2.992-6.157 11.57-1.176 15.488C69.208 118.952 70.666 119 127.5 119c56.834 0 58.292-.048 60.788-2.012 5.072-3.99 4.308-12.594-1.379-15.535-4.134-2.138-115.082-2.094-119.021.047m-1.176 46.512c-3.185 2.505-4.301 7.153-2.665 11.101C66.525 165.096 65.486 165 127.5 165s60.975.096 63.453-5.887c1.636-3.948.52-8.596-2.665-11.101-2.496-1.964-3.954-2.012-60.788-2.012-56.834 0-58.292.048-60.788 2.012m-1.123 47.065c-3.453 4.103-3.347 8.044.329 12.157l2.918 3.266h62.328l2.918-3.266c3.676-4.113 3.782-8.054.329-12.157L131.822 192H68.178l-2.589 3.077" fill="#1976D2" fill-rule="evenodd"/><path fill-opacity=".242" d="M106.146 3.085c-3.396 1.697-7.27 4.522-8.61 6.278-3.292 4.316-6.487 11.556-6.514 14.759-.022 2.566-.188 2.631-7.911 3.078-12.566.727-21.778 6.392-26.208 16.114C55.725 45.898 55.38 46 47.79 46c-4.848 0-8.93.544-10.59 1.411-3.625 1.894-7.833 6.455-9.136 9.904-.724 1.915-1.057 31.807-1.042 93.5.021 85.854.12 90.898 1.859 94.685 2.185 4.758 4.415 6.89 9.373 8.962C41.47 255.805 52.762 256 127.5 256s86.03-.195 89.246-1.538c4.958-2.072 7.188-4.204 9.373-8.962 1.739-3.787 1.838-8.831 1.859-94.685.015-61.693-.318-91.585-1.042-93.5-1.303-3.449-5.511-8.01-9.136-9.904-1.66-.867-5.742-1.411-10.59-1.411-7.59 0-7.935-.102-9.113-2.686-4.43-9.722-13.642-15.387-26.208-16.114-7.8-.452-7.889-.487-7.889-3.169 0-4.036-5.713-14.71-9.363-17.495C147.254.906 143.66.046 127.41.022 112.531 0 112.233.043 106.146 3.085m7.964 16.311c-3.169 1.756-5.031 5.301-5.075 9.658-.049 4.986-4.815 12.131-9.65 14.468-2.548 1.232-7.099 2.067-13.224 2.428C74.42 46.641 73 47.9 73 57.611V64h109v-6.389c0-9.711-1.42-10.97-13.161-11.661-6.125-.361-10.676-1.196-13.224-2.428-4.764-2.303-9.615-9.501-9.615-14.267 0-4.458-2.248-8.591-5.472-10.06-3.652-1.664-23.323-1.515-26.418.201m7.706 10.477c-2.54 2.269-3.216 3.663-3.216 6.627s.676 4.358 3.216 6.627c3.506 3.132 5.692 3.51 9.712 1.678 2.649-1.206 5.472-5.442 5.472-8.208 0-4.69-5.079-9.597-9.935-9.597-1.118 0-3.481 1.293-5.249 2.873M45.244 150.75l.256 86.75h164l.256-86.75.255-86.75h-4.347c-4.236 0-4.379.107-5.599 4.178-1.777 5.931-3.748 8.552-8.545 11.363L187.324 82H67.676l-4.196-2.459c-4.797-2.811-6.768-5.432-8.545-11.363C53.715 64.107 53.572 64 49.336 64h-4.347l.255 86.75M69.5 100.933c-6.57 2.73-7.942 10.496-2.684 15.194L70.032 119h114.936l3.216-2.873c4.269-3.814 4.464-8.933.494-12.904l-2.722-2.723-57.228-.199c-31.475-.11-58.128.175-59.228.632m-2.684 47.94c-4.269 3.814-4.464 8.933-.493 12.904l2.722 2.723h116.91l2.722-2.723c3.971-3.971 3.776-9.09-.493-12.904L184.968 146H70.032l-3.216 2.873m.84 44.26c-1.014.589-2.482 2.6-3.263 4.469-1.228 2.938-1.226 3.861.009 6.818.786 1.88 2.337 3.905 3.448 4.5 1.319.706 12.563 1.08 32.449 1.08 28.979 0 30.553-.096 32.989-2.012 1.407-1.107 2.847-3.324 3.199-4.927.743-3.384-1.501-8.463-4.432-10.031-2.672-1.43-61.924-1.336-64.399.103" fill="#1976D2" fill-rule="evenodd"/><path fill-opacity=".524" d="M112.5.923C100.864 4.121 93.468 12.174 91.534 23.75l-.71 4.25-7.662.022c-11.741.034-20.494 4.962-25.27 14.228L55.959 46l-7.229.022c-9.359.028-14.613 2.333-18.414 8.076L27.5 58.353l-.271 89.889c-.192 63.845.053 91.092.846 94.038 1.419 5.267 7.236 11.158 12.448 12.605 5.577 1.548 168.377 1.548 173.954 0 5.212-1.447 11.029-7.338 12.448-12.605.793-2.946 1.038-30.193.846-94.038l-.271-89.889-2.816-4.255c-3.801-5.743-9.055-8.048-18.414-8.076L199.041 46l-1.933-3.75c-4.776-9.266-13.529-14.194-25.27-14.228L164.176 28l-.701-4.148c-1.593-9.428-7.109-17.002-15.254-20.944C144.103.915 141.712.589 129.5.36c-7.7-.144-15.35.109-17 .563m-.577 20C109.946 22.9 109 24.852 109 26.955c0 5.929-4.424 13.533-9.5 16.331-1.1.606-6.401 1.376-11.781 1.711-8.852.552-10.034.863-12.451 3.28-2.22 2.22-2.74 3.77-3.085 9.197L71.767 64h111.466l-.416-6.526c-.345-5.427-.865-6.977-3.085-9.197-2.417-2.417-3.599-2.728-12.451-3.28-5.38-.335-10.681-1.105-11.781-1.711-5.076-2.798-9.5-10.402-9.5-16.331 0-2.103-.946-4.055-2.923-6.032C140.154 18 140.152 18 127.5 18c-12.652 0-12.654 0-15.577 2.923m9.532 9.532C115.901 36.008 119.874 45 127.882 45c4.984 0 8.118-3.46 8.118-8.961 0-7.469-9.148-10.982-14.545-5.584M45 151v87h165V64h-9.744l-.628 3.923c-.786 4.917-4.833 9.811-10.087 12.197-3.772 1.714-7.905 1.836-62.041 1.836-54.136 0-58.269-.122-62.041-1.836-5.254-2.386-9.301-7.28-10.087-12.197L54.744 64H45v87m21.455-47.545a8.546 8.546 0 000 12.09L68.909 118h117.182l2.454-2.455c1.695-1.694 2.455-3.566 2.455-6.045s-.76-4.351-2.455-6.045L186.091 101H68.909l-2.454 2.455m0 46a8.546 8.546 0 000 12.09L68.909 164h117.182l2.454-2.455c1.695-1.694 2.455-3.566 2.455-6.045s-.76-4.351-2.455-6.045L186.091 147H68.909l-2.454 2.455m2.902 43.515c-5.765 2.385-7 9.541-2.434 14.107L69.846 210h29.643c30.167 0 32.416-.25 35.229-3.913 2.198-2.863 1.544-8.493-1.297-11.163l-2.579-2.424-29.671-.208c-16.319-.115-30.635.19-31.814.678" fill="#1976D2" fill-rule="evenodd"/></svg>