<svg xmlns="http://www.w3.org/2000/svg" viewBox="0 0 33.04 56.02"><defs><style>.a79d12e1-8c27-4b34-b9b5-c33a8151690c{fill:#174283;}.a79d12e1-8c27-4b34-b9b5-c33a8151690c,.ab2730c3-7cd7-423e-a0ac-d75d070d1197,.b052124f-0992-4e36-a346-f2e7b4491f9b{fill-rule:evenodd;}.b052124f-0992-4e36-a346-f2e7b4491f9b,.e67d7c49-926e-42b1-b906-d4f855f66edf{fill:#fff;}.ab2730c3-7cd7-423e-a0ac-d75d070d1197{fill:#1aa9e2;}</style></defs><g id="e9cf4860-c3db-46ae-a997-1dd1ae8fcc88" data-name="Layer 2"><g id="bc5a0cf2-2be5-454d-bac8-8dd1651bc40a" data-name="Layer 1"><path class="a79d12e1-8c27-4b34-b9b5-c33a8151690c" d="M32.43,6.55H.44v33a16,16,0,1,0,32,0v-33Z"/><path class="e67d7c49-926e-42b1-b906-d4f855f66edf" d="M16.53,56A16.55,16.55,0,0,1,0,39.49V0H33V39.49A16.54,16.54,0,0,1,16.53,56ZM1.05,7V39.49a15.47,15.47,0,1,0,30.94,0V7Z"/><polygon class="e67d7c49-926e-42b1-b906-d4f855f66edf" points="24.21 25.81 25.66 27.11 28.39 27.11 29.84 25.81 29.84 25.81 24.21 25.81 24.21 25.81"/><polygon class="e67d7c49-926e-42b1-b906-d4f855f66edf" points="5.85 10.01 4.51 17.27 7.18 17.27 5.85 10.01"/><polygon class="e67d7c49-926e-42b1-b906-d4f855f66edf" points="25.66 23.95 25.66 23.95 24.21 23.95 24.21 25.06 29.84 25.06 29.84 23.95 28.39 23.95 28.39 23.95 25.66 23.95"/><polygon class="e67d7c49-926e-42b1-b906-d4f855f66edf" points="8.67 25.81 8.67 25.81 3.03 25.81 3.03 25.81 4.47 27.11 7.21 27.11 8.67 25.81"/><rect class="e67d7c49-926e-42b1-b906-d4f855f66edf" x="25.66" y="27.82" width="2.72" height="2.56"/><polygon class="e67d7c49-926e-42b1-b906-d4f855f66edf" points="7.2 27.77 4.48 27.77 4.49 30.38 7.2 30.38 7.2 27.77"/><path class="e67d7c49-926e-42b1-b906-d4f855f66edf" d="M25.66,33h-.85V31.13H24v.5H23.1v-.5H9.77v.5H8.92v-.5H8.06V33H7.2V31.12H4.48v9a12,12,0,0,0,6,10.34A9.8,9.8,0,0,1,15.18,33H17.7a9.81,9.81,0,0,1,4.7,17.51,12,12,0,0,0,6-10.34v-9H25.66Z"/><rect class="e67d7c49-926e-42b1-b906-d4f855f66edf" x="3.03" y="23.95" width="5.64" height="1.11"/><polygon class="e67d7c49-926e-42b1-b906-d4f855f66edf" points="7.2 18.01 4.49 18.01 4.48 23.21 7.2 23.21 7.2 18.01"/><rect class="e67d7c49-926e-42b1-b906-d4f855f66edf" x="25.66" y="18.01" width="2.72" height="5.19"/><polygon class="e67d7c49-926e-42b1-b906-d4f855f66edf" points="27.02 10.01 25.68 17.27 28.37 17.27 27.02 10.01"/><polygon class="ab2730c3-7cd7-423e-a0ac-d75d070d1197" points="13.85 36.47 19.02 36.47 19.47 45.6 13.41 45.6 13.85 36.47"/><polygon class="b052124f-0992-4e36-a346-f2e7b4491f9b" points="16.45 41.68 17.7 45.56 21.77 45.56 18.48 47.95 19.72 51.84 16.45 49.44 13.14 51.84 14.4 47.95 11.11 45.56 15.19 45.56 16.45 41.68 16.45 41.68"/><polygon class="ab2730c3-7cd7-423e-a0ac-d75d070d1197" points="20.8 34.73 20.8 35.23 19.7 35.23 19.7 35.97 13.18 35.97 13.18 35.23 12.07 35.23 12.07 34.73 20.8 34.73 20.8 34.73"/><polygon class="ab2730c3-7cd7-423e-a0ac-d75d070d1197" points="13.85 33.56 10.62 31.63 22.27 31.63 18.99 33.56 18.99 34.23 13.85 34.23 13.85 33.56 13.85 33.56"/><path class="ab2730c3-7cd7-423e-a0ac-d75d070d1197" d="M16.72,23.55a6.68,6.68,0,0,1,6.38,6.66H9.77a6.68,6.68,0,0,1,6.39-6.66l.29-2.08.27,2.08Z"/><path class="a79d12e1-8c27-4b34-b9b5-c33a8151690c" d="M20.37,4.67H18.44l-.23.43h-1.3L18.65,2H20.2l1.74,3.1H20.6l-.23-.43Zm-1.64-.53h1.36L19.4,2.9l-.67,1.24Z"/><path class="a79d12e1-8c27-4b34-b9b5-c33a8151690c" d="M3.91,4.67H2l-.23.43H.44L2.18,2H3.73L5.49,5.1H4.14l-.23-.43ZM2.27,4.15H3.62L3,2.9,2.27,4.15Z"/><path class="a79d12e1-8c27-4b34-b9b5-c33a8151690c" d="M30.87,4.67H28.92l-.22.43H27.39L29.14,2h1.54l1.75,3.1H31.08l-.21-.43Zm-1.66-.52h1.37L29.9,2.9l-.69,1.25Z"/><polygon class="a79d12e1-8c27-4b34-b9b5-c33a8151690c" points="6.16 2 7.49 2 9.25 3.72 9.25 2 10.6 2 10.6 5.1 9.25 5.1 7.52 3.4 7.52 5.1 6.16 5.1 6.16 2 6.16 2"/><polygon class="a79d12e1-8c27-4b34-b9b5-c33a8151690c" points="11.74 2.01 13.17 2.01 13.17 3.17 14.84 2 16.58 2.01 14.88 3.17 16.65 5.1 14.96 5.1 13.85 3.86 13.17 4.33 13.17 5.1 11.74 5.1 11.74 2.01 11.74 2.01"/><path class="a79d12e1-8c27-4b34-b9b5-c33a8151690c" d="M26.2,3.62a1.15,1.15,0,0,1,.82,1l.05.51h-1.5l-.05-.52c-.05-.47-.18-.74-.74-.74h-.71V5.1H22.63V2h2.82a2.11,2.11,0,0,1,1,.19.71.71,0,0,1,.39.64.87.87,0,0,1-.66.79Zm-2.13-.36h.6a1.07,1.07,0,0,0,.61-.12.28.28,0,0,0,.09-.2.25.25,0,0,0-.14-.23,1.14,1.14,0,0,0-.53-.08h-.63v.63Z"/><polygon class="a79d12e1-8c27-4b34-b9b5-c33a8151690c" points="8.92 32.98 9.77 32.98 9.77 32.13 8.92 32.13 8.92 32.98 8.92 32.98"/><polygon class="a79d12e1-8c27-4b34-b9b5-c33a8151690c" points="23.96 32.98 23.1 32.98 23.1 32.13 23.96 32.13 23.96 32.98 23.96 32.98"/><polygon class="b052124f-0992-4e36-a346-f2e7b4491f9b" points="10.08 18.47 8.09 16.91 10.63 17.63 11.36 16.74 12.12 18.17 14.69 19 12.67 19.25 13.41 20.89 11.22 19.39 9.34 19.51 10.08 18.47"/><polygon class="b052124f-0992-4e36-a346-f2e7b4491f9b" points="15.2 16.19 17.43 16.77 18 16.06 18.55 17.21 20.64 17.9 19 18.08 19.65 19.44 17.84 18.15 16.31 18.32 16.86 17.47 15.2 16.19"/><polygon class="b052124f-0992-4e36-a346-f2e7b4491f9b" points="20.04 14.57 21.75 15.03 22.18 14.3 22.7 15.31 24.35 15.85 23.07 16 23.53 17.05 22.16 16.11 20.9 16.27 21.32 15.57 20.04 14.57"/><polygon class="b052124f-0992-4e36-a346-f2e7b4491f9b" points="22.11 12.1 23.51 12.43 23.83 11.87 24.33 12.65 25.66 12.98 24.61 13.18 25.07 13.99 23.9 13.27 22.87 13.44 23.17 12.87 22.11 12.1"/><polygon class="b052124f-0992-4e36-a346-f2e7b4491f9b" points="21.15 9.87 22.17 10.02 22.4 9.66 22.74 10.16 23.75 10.35 22.99 10.51 23.35 11.11 22.47 10.63 21.69 10.85 21.94 10.38 21.15 9.87"/></g></g></svg>