<svg xmlns="http://www.w3.org/2000/svg" viewBox="0 0 27.92 22.09"><defs><style>.cls-1{fill:#fff;}</style></defs><title>rain-light</title><g id="Layer_2" data-name="Layer 2"><g id="Layer_1-2" data-name="Layer 1"><path class="cls-1" d="M0,12.86A6.5,6.5,0,0,1,1.43,8.71,6.59,6.59,0,0,1,5.12,6.33,8.07,8.07,0,0,1,19.21,3,7.91,7.91,0,0,1,20.8,6.2h.43a6.53,6.53,0,0,1,3.34.89,6.64,6.64,0,0,1-3.07,12.4c-.18,0-.27-.08-.27-.23V17.47q0-.24.27-.24a4.21,4.21,0,0,0,2.93-1.38,4.4,4.4,0,0,0-3.22-7.41H19a.21.21,0,0,1-.24-.18v0l-.11-.78a5.74,5.74,0,0,0-11.42.05l-.08.67A.24.24,0,0,1,7,8.41h0L6.2,8.5A4.21,4.21,0,0,0,3.37,9.93a4.39,4.39,0,0,0,.07,6A4.22,4.22,0,0,0,6.37,17.3a.21.21,0,0,1,.23.19v1.85a.19.19,0,0,1-.17.22H6.37a6.41,6.41,0,0,1-4.58-2A6.69,6.69,0,0,1,0,12.86Zm8.57,5.49a1.12,1.12,0,1,1,2.24,0,1.09,1.09,0,0,1-.32.8,1.05,1.05,0,0,1-.8.34,1.1,1.1,0,0,1-.8-.34A1.09,1.09,0,0,1,8.57,18.35ZM12.31,21a1.19,1.19,0,0,1,.32-.84,1.1,1.1,0,0,1,.78-.32,1.16,1.16,0,0,1,.81.33,1.09,1.09,0,0,1,.34.83,1.14,1.14,0,0,1-1.14,1.14h0a1,1,0,0,1-.78-.33,1.11,1.11,0,0,1-.32-.83Zm.56-4.88a1.11,1.11,0,0,1,.34-.81,1.17,1.17,0,0,1,.77-.33,1.09,1.09,0,0,1,.82.34,1.12,1.12,0,0,1,0,1.61,1.17,1.17,0,0,1-.82.32,1.06,1.06,0,0,1-.78-.32A1.16,1.16,0,0,1,12.87,16.07Zm4.34,2.28a1.07,1.07,0,0,1,.34-.79,1.08,1.08,0,0,1,.81-.33,1,1,0,0,1,.79.32,1.12,1.12,0,0,1,0,1.59,1,1,0,0,1-.79.34A1.17,1.17,0,0,1,17.21,18.35Z"/></g></g></svg>