<svg xmlns="http://www.w3.org/2000/svg" viewBox="0 0 42.12 34.01"><defs><style>.b0b812fe-8e48-4d09-8d17-976b5aacec78,.b0f862a6-c423-4b79-8e1e-3bf095962e80,.b92e3d06-f2b2-4088-adba-31b27a1e71cf{fill:#fff;}.b0f862a6-c423-4b79-8e1e-3bf095962e80{opacity:0.15;}.b92e3d06-f2b2-4088-adba-31b27a1e71cf{opacity:0.4;}</style></defs><g id="a61cf0c8-a00e-442f-aedf-759585343ffc" data-name="Layer 2"><g id="a4d9b908-061e-451c-99aa-adc5c34f865d" data-name="Layer 1"><path class="b0f862a6-c423-4b79-8e1e-3bf095962e80" d="M34.14,21.06a6.46,6.46,0,0,0-2.43-2.38,6.59,6.59,0,0,0-3.32-.87H28a8,8,0,0,0-7.74-6.13,7.77,7.77,0,0,0-5,1.76,7.94,7.94,0,0,0-2.83,4.5,6.43,6.43,0,0,0-3.65,2.32A6.61,6.61,0,0,0,9.1,29,6.54,6.54,0,0,0,13.65,31l15,0a6.14,6.14,0,0,0,3.21-.95,6.63,6.63,0,0,0,2.27-9Zm-2.56,6.33a4.14,4.14,0,0,1-2.92,1.36l-15,0a4.15,4.15,0,0,1-2.92-1.37,4.3,4.3,0,0,1-1.21-3,4.09,4.09,0,0,1,1.14-2.89A4.51,4.51,0,0,1,13.48,20l.71,0a.24.24,0,0,0,.27-.25l.09-.71a5.38,5.38,0,0,1,1.82-3.63,5.73,5.73,0,0,1,7.64,0A5.47,5.47,0,0,1,25.87,19l.11.78c0,.14.08.22.24.22h2.16a4.25,4.25,0,0,1,3.09,1.29,4.12,4.12,0,0,1,1.32,3A4.31,4.31,0,0,1,31.58,27.39Z"/><path class="b92e3d06-f2b2-4088-adba-31b27a1e71cf" d="M34.14,15.22a6.46,6.46,0,0,0-2.43-2.38A6.59,6.59,0,0,0,28.39,12H28a8,8,0,0,0-7.74-6.12,7.77,7.77,0,0,0-5,1.76,7.94,7.94,0,0,0-2.83,4.5,6.43,6.43,0,0,0-3.65,2.32,6.35,6.35,0,0,0-1.45,4.11,6.35,6.35,0,0,0,1.84,4.6,6.54,6.54,0,0,0,4.55,2.05l15,0a6.24,6.24,0,0,0,3.21-.95,6.63,6.63,0,0,0,2.27-9Zm-2.56,6.33a4.14,4.14,0,0,1-2.92,1.36l-15,0a4.15,4.15,0,0,1-2.92-1.37,4.3,4.3,0,0,1-1.21-3,4.09,4.09,0,0,1,1.14-2.89,4.51,4.51,0,0,1,2.82-1.44l.71,0a.24.24,0,0,0,.27-.25l.09-.71a5.36,5.36,0,0,1,1.82-3.63,5.73,5.73,0,0,1,7.64,0,5.47,5.47,0,0,1,1.86,3.63L26,14a.21.21,0,0,0,.24.23h2.16a4.25,4.25,0,0,1,3.09,1.29,4.12,4.12,0,0,1,1.32,3A4.31,4.31,0,0,1,31.58,21.55Z"/><path class="b0b812fe-8e48-4d09-8d17-976b5aacec78" d="M34.14,9.38A6.48,6.48,0,0,0,31.71,7a6.69,6.69,0,0,0-3.32-.87H28a7.76,7.76,0,0,0-2.81-4.4,8,8,0,0,0-10,0,7.91,7.91,0,0,0-2.83,4.5A6.43,6.43,0,0,0,8.71,8.58a6.35,6.35,0,0,0-1.45,4.11,6.35,6.35,0,0,0,1.84,4.6,6.58,6.58,0,0,0,4.55,2.05l15,0a6.24,6.24,0,0,0,3.21-.95A6.64,6.64,0,0,0,35,12.69,6.45,6.45,0,0,0,34.14,9.38ZM31.58,15.7a4.12,4.12,0,0,1-2.92,1.37h-15a4.14,4.14,0,0,1-2.92-1.36,4.31,4.31,0,0,1-1.21-3,4.13,4.13,0,0,1,1.14-2.9,4.55,4.55,0,0,1,2.82-1.43l.71,0a.24.24,0,0,0,.27-.25l.09-.71a5.41,5.41,0,0,1,1.82-3.64,5.73,5.73,0,0,1,7.64,0,5.52,5.52,0,0,1,1.86,3.64l.11.77a.21.21,0,0,0,.24.23h2.16a4.25,4.25,0,0,1,3.09,1.29,4.11,4.11,0,0,1,1.32,3A4.27,4.27,0,0,1,31.58,15.7Z"/><path class="b0b812fe-8e48-4d09-8d17-976b5aacec78" d="M36.18,27.71l3-4.85,3,4.85H40.57c-.14,0-.18,0-.18.18V34H37.91V27.89c0-.14,0-.18-.18-.18H36.18Z"/><path class="b0b812fe-8e48-4d09-8d17-976b5aacec78" d="M3,22.86l3,4.85H4.41c-.17,0-.2,0-.2.2V34H1.73V27.88c0-.12-.05-.17-.17-.17H0Z"/></g></g></svg>