<svg xmlns="http://www.w3.org/2000/svg" viewBox="0 0 42.12 31.02"><defs><style>.a6f114a1-01e3-45f9-9b05-02f75f42b44f,.bb01b3c1-bbd4-4a70-a7c7-c56e7c7e9f7b,.e2832367-3037-4c7f-83c0-d5c19ff6f057{fill:#fff;}.bb01b3c1-bbd4-4a70-a7c7-c56e7c7e9f7b{opacity:0.4;}.e2832367-3037-4c7f-83c0-d5c19ff6f057{opacity:0.15;}</style></defs><g id="f4d5e8be-8401-4b23-b9da-8702e5aa661c" data-name="Layer 2"><g id="a2fc4c75-be19-4cf2-b56c-94d4ebf2ce27" data-name="Layer 1"><path class="a6f114a1-01e3-45f9-9b05-02f75f42b44f" d="M34,21.06a6.46,6.46,0,0,0-2.43-2.38,6.61,6.61,0,0,0-3.32-.87h-.43a8,8,0,0,0-7.74-6.13,7.77,7.77,0,0,0-5,1.76,7.94,7.94,0,0,0-2.83,4.5,6.43,6.43,0,0,0-3.65,2.32A6.63,6.63,0,0,0,9,29,6.56,6.56,0,0,0,13.55,31l15,0a6.14,6.14,0,0,0,3.21-.95,6.47,6.47,0,0,0,2.32-2.41,6.59,6.59,0,0,0,.85-3.27A6.48,6.48,0,0,0,34,21.06Zm-2.56,6.33a4.16,4.16,0,0,1-2.92,1.36l-15,0a4.15,4.15,0,0,1-2.92-1.37,4.3,4.3,0,0,1-1.21-3,4.09,4.09,0,0,1,1.14-2.89A4.51,4.51,0,0,1,13.38,20l.71,0a.23.23,0,0,0,.26-.25l.1-.71a5.34,5.34,0,0,1,1.82-3.63,5.73,5.73,0,0,1,7.64,0A5.47,5.47,0,0,1,25.77,19l.11.78c0,.14.08.22.24.22h2.16a4.25,4.25,0,0,1,3.09,1.29,4.11,4.11,0,0,1,1.31,3A4.3,4.3,0,0,1,31.48,27.39Z"/><path class="bb01b3c1-bbd4-4a70-a7c7-c56e7c7e9f7b" d="M34,15.22a6.46,6.46,0,0,0-2.43-2.38A6.62,6.62,0,0,0,28.29,12h-.43a8,8,0,0,0-7.74-6.12,7.77,7.77,0,0,0-5,1.76,7.94,7.94,0,0,0-2.83,4.5,6.43,6.43,0,0,0-3.65,2.32,6.35,6.35,0,0,0-1.45,4.11A6.38,6.38,0,0,0,9,23.13a6.56,6.56,0,0,0,4.56,2.05l15,0a6.24,6.24,0,0,0,3.21-.95,6.54,6.54,0,0,0,2.32-2.41,6.62,6.62,0,0,0,.85-3.27A6.48,6.48,0,0,0,34,15.22Zm-2.56,6.33a4.16,4.16,0,0,1-2.92,1.36l-15,0a4.15,4.15,0,0,1-2.92-1.37,4.3,4.3,0,0,1-1.21-3,4.09,4.09,0,0,1,1.14-2.89,4.51,4.51,0,0,1,2.82-1.44l.71,0a.23.23,0,0,0,.26-.25l.1-.71a5.32,5.32,0,0,1,1.82-3.63,5.73,5.73,0,0,1,7.64,0,5.47,5.47,0,0,1,1.86,3.63l.11.77a.21.21,0,0,0,.24.23h2.16a4.25,4.25,0,0,1,3.09,1.29,4.11,4.11,0,0,1,1.31,3A4.3,4.3,0,0,1,31.48,21.55Z"/><path class="e2832367-3037-4c7f-83c0-d5c19ff6f057" d="M34,9.38A6.48,6.48,0,0,0,31.61,7a6.72,6.72,0,0,0-3.32-.87h-.43a7.76,7.76,0,0,0-2.81-4.4,8,8,0,0,0-10,0,7.91,7.91,0,0,0-2.83,4.5A6.43,6.43,0,0,0,8.61,8.58a6.35,6.35,0,0,0-1.45,4.11A6.38,6.38,0,0,0,9,17.29a6.6,6.6,0,0,0,4.56,2.05l15,0a6.24,6.24,0,0,0,3.21-.95A6.54,6.54,0,0,0,34.09,16a6.62,6.62,0,0,0,.85-3.27A6.45,6.45,0,0,0,34,9.38ZM31.48,15.7a4.13,4.13,0,0,1-2.92,1.37h-15a4.14,4.14,0,0,1-2.92-1.36,4.31,4.31,0,0,1-1.21-3,4.13,4.13,0,0,1,1.14-2.9,4.55,4.55,0,0,1,2.82-1.43l.71,0a.23.23,0,0,0,.26-.25l.1-.71a5.37,5.37,0,0,1,1.82-3.64,5.73,5.73,0,0,1,7.64,0,5.52,5.52,0,0,1,1.86,3.64l.11.77a.21.21,0,0,0,.24.23h2.16a4.25,4.25,0,0,1,3.09,1.29,4.1,4.1,0,0,1,1.31,3A4.26,4.26,0,0,1,31.48,15.7Z"/><path class="a6f114a1-01e3-45f9-9b05-02f75f42b44f" d="M42.12,26.16l-3,4.85-3-4.85h1.55c.14,0,.18,0,.18-.18V19.86h2.48V26c0,.13,0,.18.18.18h1.55Z"/><path class="a6f114a1-01e3-45f9-9b05-02f75f42b44f" d="M3,31,0,26.16H1.53c.16,0,.2,0,.2-.2v-6.1H4.2V26c0,.13,0,.17.17.17H5.93Z"/></g></g></svg>