<svg xmlns="http://www.w3.org/2000/svg" viewBox="0 0 42.12 33.01"><defs><style>.a229b530-13ba-45a9-ae91-f4135e41d91e,.a5c3338b-0959-4b85-9d8a-cb3f88938339,.ada9ecce-9c77-46fd-b90d-254a452867c6{fill:#fff;}.ada9ecce-9c77-46fd-b90d-254a452867c6{opacity:0.15;}.a5c3338b-0959-4b85-9d8a-cb3f88938339{opacity:0.4;}</style></defs><g id="bc498ab3-0f09-4fec-9c5a-e20a6e983f31" data-name="Layer 2"><g id="a78b9914-7dd4-4cc6-9619-f83a0a664b76" data-name="Layer 1"><path class="ada9ecce-9c77-46fd-b90d-254a452867c6" d="M34.05,9.38A6.48,6.48,0,0,0,31.62,7a6.69,6.69,0,0,0-3.32-.87h-.43A8,8,0,0,0,20.13,0a7.77,7.77,0,0,0-5,1.76,7.84,7.84,0,0,0-2.82,4.5A6.42,6.42,0,0,0,8.62,8.58a6.35,6.35,0,0,0-1.45,4.11A6.35,6.35,0,0,0,9,17.29a6.58,6.58,0,0,0,4.55,2.05l15,0a6.24,6.24,0,0,0,3.21-.95A6.64,6.64,0,0,0,35,12.69,6.45,6.45,0,0,0,34.05,9.38ZM31.49,15.7a4.12,4.12,0,0,1-2.92,1.37h-15a4.14,4.14,0,0,1-2.92-1.36,4.31,4.31,0,0,1-1.21-3,4.13,4.13,0,0,1,1.14-2.9,4.58,4.58,0,0,1,2.82-1.43l.71,0a.24.24,0,0,0,.27-.25l.09-.71a5.41,5.41,0,0,1,1.82-3.64,5.73,5.73,0,0,1,7.64,0,5.52,5.52,0,0,1,1.86,3.64l.11.77a.21.21,0,0,0,.24.23h2.16a4.25,4.25,0,0,1,3.09,1.29,4.11,4.11,0,0,1,1.32,3A4.27,4.27,0,0,1,31.49,15.7Z"/><path class="a5c3338b-0959-4b85-9d8a-cb3f88938339" d="M34.05,21.06a6.46,6.46,0,0,0-2.43-2.38,6.59,6.59,0,0,0-3.32-.87h-.43a8,8,0,0,0-7.74-6.13,7.77,7.77,0,0,0-5,1.76,7.88,7.88,0,0,0-2.82,4.5,6.42,6.42,0,0,0-3.66,2.32A6.61,6.61,0,0,0,9,29,6.54,6.54,0,0,0,13.56,31l15,0a6.14,6.14,0,0,0,3.21-.95,6.63,6.63,0,0,0,2.27-9Zm-2.56,6.33a4.14,4.14,0,0,1-2.92,1.36l-15,0a4.15,4.15,0,0,1-2.92-1.37,4.3,4.3,0,0,1-1.21-3,4.09,4.09,0,0,1,1.14-2.89A4.54,4.54,0,0,1,13.39,20l.71,0a.24.24,0,0,0,.27-.25l.09-.71a5.38,5.38,0,0,1,1.82-3.63,5.73,5.73,0,0,1,7.64,0A5.47,5.47,0,0,1,25.78,19l.11.78c0,.14.08.22.24.22h2.16a4.25,4.25,0,0,1,3.09,1.29,4.12,4.12,0,0,1,1.32,3A4.31,4.31,0,0,1,31.49,27.39Z"/><path class="a229b530-13ba-45a9-ae91-f4135e41d91e" d="M34.05,15.22a6.46,6.46,0,0,0-2.43-2.38A6.59,6.59,0,0,0,28.3,12h-.43a8,8,0,0,0-7.74-6.12,7.77,7.77,0,0,0-5,1.76,7.88,7.88,0,0,0-2.82,4.5,6.42,6.42,0,0,0-3.66,2.32,6.35,6.35,0,0,0-1.45,4.11A6.35,6.35,0,0,0,9,23.13a6.54,6.54,0,0,0,4.55,2.05l15,0a6.24,6.24,0,0,0,3.21-.95,6.63,6.63,0,0,0,2.27-9Zm-2.56,6.33a4.14,4.14,0,0,1-2.92,1.36l-15,0a4.15,4.15,0,0,1-2.92-1.37,4.3,4.3,0,0,1-1.21-3,4.09,4.09,0,0,1,1.14-2.89,4.54,4.54,0,0,1,2.82-1.44l.71,0a.24.24,0,0,0,.27-.25l.09-.71a5.36,5.36,0,0,1,1.82-3.63,5.73,5.73,0,0,1,7.64,0,5.47,5.47,0,0,1,1.86,3.63l.11.77a.21.21,0,0,0,.24.23h2.16a4.25,4.25,0,0,1,3.09,1.29,4.12,4.12,0,0,1,1.32,3A4.31,4.31,0,0,1,31.49,21.55Z"/><path class="a229b530-13ba-45a9-ae91-f4135e41d91e" d="M36.18,26.71l3-4.85,3,4.85H40.57c-.14,0-.18,0-.18.18V33H37.91V26.89c0-.14,0-.18-.18-.18H36.18Z"/><path class="a229b530-13ba-45a9-ae91-f4135e41d91e" d="M3,33,0,28.16H1.53c.16,0,.2,0,.2-.2v-6.1H4.2V28c0,.13,0,.17.17.17H5.93Z"/></g></g></svg>