<svg xmlns="http://www.w3.org/2000/svg" viewBox="0 0 40.16 39.75"><defs><style>.ef9b4434-2336-46b9-839a-bd15ef26026f{fill:#fff;}</style></defs><g id="bc42e690-b0b7-4257-8afd-7c864973577a" data-name="Layer 2"><g id="b36fc6a4-e586-4ad5-8540-25423b4f84b7" data-name="Layer 1"><path class="ef9b4434-2336-46b9-839a-bd15ef26026f" d="M38.25,32a12.19,12.19,0,0,1-1.14-.65.62.62,0,0,1-.09-.48c.37-1.41.76-2.81,1.13-4.22.09-.34.15-.68.23-1.06l-12-3.17L24,31.62,22.62,31c.21-.81.41-1.63.63-2.45.58-2.2,1.17-4.39,1.74-6.59a.92.92,0,0,0-.07-.61c-1.29-2.4-2.6-4.79-3.9-7.18L20.9,14l-4.43,2.74c-.85.52-1.7,1-2.52,1.58a1.36,1.36,0,0,0-.53.7c-.82,3-1.61,6-2.42,9.06-.29,1.12-.59,2.25-.91,3.42l-1.38-.61c.26-1,.52-2.07.79-3.09.84-3.14,1.68-6.27,2.5-9.41a1.88,1.88,0,0,1,.89-1.22q4-2.45,8-4.94A1.54,1.54,0,0,1,22.2,12q6.18,1.65,12.35,3.27a1.73,1.73,0,0,1,1.19.92c1.38,2.59,2.81,5.16,4.18,7.75a1.8,1.8,0,0,1,.14,1.21c-.52,2.15-1.11,4.29-1.67,6.43C38.35,31.71,38.31,31.83,38.25,32Z"/><path class="ef9b4434-2336-46b9-839a-bd15ef26026f" d="M40.14,35.76a7.1,7.1,0,0,1-3.8-1.09,7.56,7.56,0,0,0-2.08-.86,4.88,4.88,0,0,0-3.78.79,7,7,0,0,1-6.41.74,9.44,9.44,0,0,1-1.61-.83,4.94,4.94,0,0,0-5.51,0,7.22,7.22,0,0,1-5.85,1A5.81,5.81,0,0,1,9.59,35a6.28,6.28,0,0,0-3.47-1.22v-2a6,6,0,0,1,3,.63,9.09,9.09,0,0,1,.86.49,5,5,0,0,0,5.86,0,6.85,6.85,0,0,1,5.31-1,8.52,8.52,0,0,1,2.46,1,5.21,5.21,0,0,0,5.83,0,7,7,0,0,1,7.87,0,5,5,0,0,0,2.83.86Z"/><path class="ef9b4434-2336-46b9-839a-bd15ef26026f" d="M40.16,37.68v2A5.9,5.9,0,0,1,37.07,39c-.29-.15-.58-.32-.86-.49a5,5,0,0,0-5.76,0,7,7,0,0,1-5.53,1,8,8,0,0,1-2.24-1,5.26,5.26,0,0,0-5.93,0,6.9,6.9,0,0,1-7.61.06,5.41,5.41,0,0,0-3-1v-2a6.07,6.07,0,0,1,3.29.78c.39.22.76.47,1.16.67a4.9,4.9,0,0,0,4.6,0c.27-.14.54-.31.81-.47a6.9,6.9,0,0,1,7.46,0,5.39,5.39,0,0,0,4.16.87,6.77,6.77,0,0,0,1.86-.79,7.09,7.09,0,0,1,7.78,0A5.41,5.41,0,0,0,40.16,37.68Z"/><path class="ef9b4434-2336-46b9-839a-bd15ef26026f" d="M13.81,23.52l3.83,1L17,27c-.36,1.35-.71,2.7-1.09,4.05a1.19,1.19,0,0,1-.42.57,4.19,4.19,0,0,1-3.63.78c-.11,0-.21-.09-.37-.15Z"/><path class="ef9b4434-2336-46b9-839a-bd15ef26026f" d="M0,7.73a3.86,3.86,0,0,1,.88-2.5A4,4,0,0,1,3.11,3.81,4.8,4.8,0,0,1,4.83,1.07,4.77,4.77,0,0,1,7.9,0a4.69,4.69,0,0,1,3,1.05,4.72,4.72,0,0,1,1.72,2.68h.26a4,4,0,0,1,2,.53,3.84,3.84,0,0,1,1.48,1.46,3.92,3.92,0,0,1,.55,2A4,4,0,0,1,15,11.2a3.94,3.94,0,0,1-2,.58c-.1,0-.16,0-.16-.14V10.55A.14.14,0,0,1,13,10.4a2.51,2.51,0,0,0,1.78-.83,2.59,2.59,0,0,0,.74-1.84,2.52,2.52,0,0,0-.8-1.85,2.61,2.61,0,0,0-1.89-.78H11.56c-.1,0-.15,0-.15-.14l-.07-.48a3.33,3.33,0,0,0-1.13-2.21,3.36,3.36,0,0,0-2.33-.89,3.35,3.35,0,0,0-2.33.89A3.29,3.29,0,0,0,4.44,4.48l-.05.44c0,.09-.06.15-.17.15l-.43,0A2.73,2.73,0,0,0,2.07,6a2.52,2.52,0,0,0-.69,1.76,2.62,2.62,0,0,0,.74,1.85,2.51,2.51,0,0,0,1.78.83c.09,0,.13.05.13.15v1.09c0,.09,0,.13-.13.13a4,4,0,0,1-2.78-1.24A3.89,3.89,0,0,1,0,7.73ZM4.37,13.2a.86.86,0,0,1,0-.17L5.73,8.32A.69.69,0,0,1,6,8a.73.73,0,0,1,.38-.12l.2,0A.64.64,0,0,1,7,8.17a.63.63,0,0,1,.06.54L5.74,13.39a.65.65,0,0,1-.67.53L5,13.9l-.08,0a.69.69,0,0,1-.4-.27A.73.73,0,0,1,4.37,13.2Zm2.14,2.29,2-7.16A.55.55,0,0,1,8.75,8a.75.75,0,0,1,.4-.12l.22,0a.64.64,0,0,1,.4.32.67.67,0,0,1,.05.52l-2,7.17a.61.61,0,0,1-.24.36.7.7,0,0,1-.41.14.46.46,0,0,1-.21,0A.75.75,0,0,1,6.56,16,.63.63,0,0,1,6.51,15.49Zm3.37-2.28a1.05,1.05,0,0,1,0-.18l1.34-4.72A.7.7,0,0,1,11.49,8a.68.68,0,0,1,.38-.12.82.82,0,0,1,.21,0,.63.63,0,0,1,.37.25.62.62,0,0,1,.13.38.74.74,0,0,1,0,.12.84.84,0,0,0,0,.1l-1.33,4.68a.56.56,0,0,1-.23.37.68.68,0,0,1-.41.14l-.2,0A.66.66,0,0,1,10,13.6.71.71,0,0,1,9.88,13.21Z"/></g></g></svg>