<svg xmlns="http://www.w3.org/2000/svg" viewBox="0 0 39.6 39.75"><defs><style>.e49e626b-0a79-45bc-8d90-36950a3cd571{fill:#fff;}</style></defs><g id="ae2132fb-9ae1-4049-b6d5-30f89b9db17b" data-name="Layer 2"><g id="a01d9f36-78b9-4086-9b37-bacb28034889" data-name="Layer 1"><path class="e49e626b-0a79-45bc-8d90-36950a3cd571" d="M37.69,32a12.19,12.19,0,0,1-1.14-.65.55.55,0,0,1-.09-.48c.37-1.41.75-2.81,1.13-4.22.09-.34.14-.68.23-1.06l-12-3.17-2.44,9.2L22.06,31c.2-.81.41-1.63.62-2.45.59-2.2,1.18-4.39,1.75-6.59a1,1,0,0,0-.08-.61q-1.94-3.6-3.89-7.18L20.34,14l-4.43,2.74c-.85.52-1.7,1-2.52,1.58a1.36,1.36,0,0,0-.53.7c-.82,3-1.62,6-2.42,9.06-.3,1.12-.59,2.25-.91,3.42l-1.39-.61c.27-1,.53-2.07.8-3.09.83-3.14,1.68-6.27,2.5-9.41a1.85,1.85,0,0,1,.89-1.22q4-2.45,8-4.94a1.54,1.54,0,0,1,1.32-.2Q27.81,13.65,34,15.27a1.75,1.75,0,0,1,1.19.92c1.38,2.59,2.81,5.16,4.18,7.75a1.86,1.86,0,0,1,.14,1.21c-.52,2.15-1.11,4.29-1.67,6.43C37.79,31.71,37.75,31.83,37.69,32Z"/><path class="e49e626b-0a79-45bc-8d90-36950a3cd571" d="M39.58,35.76a7.1,7.1,0,0,1-3.8-1.09,7.69,7.69,0,0,0-2.08-.86,4.87,4.87,0,0,0-3.78.79,7,7,0,0,1-6.41.74,9.08,9.08,0,0,1-1.61-.83,4.94,4.94,0,0,0-5.51,0,7.24,7.24,0,0,1-5.86,1A5.74,5.74,0,0,1,9,35a6.29,6.29,0,0,0-3.48-1.22v-2a6,6,0,0,1,3,.63c.29.15.58.31.86.49a5,5,0,0,0,5.86,0,6.85,6.85,0,0,1,5.31-1,8.63,8.63,0,0,1,2.46,1,5.21,5.21,0,0,0,5.83,0,7,7,0,0,1,7.86,0,5.05,5.05,0,0,0,2.84.86Z"/><path class="e49e626b-0a79-45bc-8d90-36950a3cd571" d="M39.6,37.68v2A5.88,5.88,0,0,1,36.51,39c-.29-.15-.58-.32-.86-.49a5,5,0,0,0-5.76,0,7,7,0,0,1-5.54,1,8.11,8.11,0,0,1-2.23-1,5.26,5.26,0,0,0-5.93,0,6.9,6.9,0,0,1-7.61.06,5.43,5.43,0,0,0-3-1v-2a6.09,6.09,0,0,1,3.29.78c.39.22.76.47,1.16.67a4.88,4.88,0,0,0,4.59,0c.28-.14.55-.31.81-.47a6.92,6.92,0,0,1,7.47,0,5.39,5.39,0,0,0,4.16.87,6.77,6.77,0,0,0,1.86-.79,7.09,7.09,0,0,1,7.78,0A5.38,5.38,0,0,0,39.6,37.68Z"/><path class="e49e626b-0a79-45bc-8d90-36950a3cd571" d="M13.25,23.52l3.83,1L16.44,27c-.36,1.35-.71,2.7-1.09,4.05a1.19,1.19,0,0,1-.42.57,4.21,4.21,0,0,1-3.64.78c-.11,0-.21-.09-.36-.15Z"/><path class="e49e626b-0a79-45bc-8d90-36950a3cd571" d="M16,5.56a4,4,0,0,0-3.43-2h-.25A4.66,4.66,0,0,0,10.63,1,4.61,4.61,0,0,0,7.7,0,4.75,4.75,0,0,0,3,3.72,3.81,3.81,0,0,0,.86,5.09,3.89,3.89,0,0,0,0,7.56,3.77,3.77,0,0,0,.79,9.92a4,4,0,0,0,2.05,1.43l.49-1.28a2.52,2.52,0,0,1-1.41-.92A2.55,2.55,0,0,1,2,5.82,2.68,2.68,0,0,1,3.71,5l.42,0a.14.14,0,0,0,.16-.15l0-.4a3.36,3.36,0,0,1,3.36-3A3.27,3.27,0,0,1,10,2.2a3.28,3.28,0,0,1,1.11,2.17l.06.46a.13.13,0,0,0,.14.14h1.28a2.53,2.53,0,0,1,1.84.75,2.48,2.48,0,0,1,.77,1.82,2.45,2.45,0,0,1-.7,1.75,2.59,2.59,0,0,1-1.75.83c-.11,0-.16.05-.16.14v1.09c0,.09,0,.14.16.14a3.8,3.8,0,0,0,2.69-1.2,3.82,3.82,0,0,0,1.11-2.75A3.92,3.92,0,0,0,16,5.56Z"/><path class="e49e626b-0a79-45bc-8d90-36950a3cd571" d="M7.05,7.67H4.71a.21.21,0,0,0-.18.12l-.85,2.28-1,2.61c0,.11,0,.18.11.18H4.47l-.78,3.42h.23L7,11.7a.07.07,0,0,0,0-.11s-.06-.05-.12-.05H5.19l2-3.69C7.22,7.73,7.18,7.67,7.05,7.67Z"/><path class="e49e626b-0a79-45bc-8d90-36950a3cd571" d="M12.28,5.37H9.71a.22.22,0,0,0-.2.13L8.57,8,7.46,10.89c0,.12,0,.19.12.19H9.45l-.86,3.77h.24l3.44-5a.11.11,0,0,0,0-.12s-.07-.06-.14-.06H10.23l2.18-4.07C12.47,5.44,12.43,5.37,12.28,5.37Z"/></g></g></svg>