<svg xmlns="http://www.w3.org/2000/svg" viewBox="0 0 26.6 26.75"><defs><style>.b693c0de-bfb6-4923-8cc9-89496303bbb6{fill:#fff;}</style></defs><g id="b10b0f6d-c2b7-48ba-aa3c-3b3eab2fabc4" data-name="Layer 2"><g id="abd6c1de-877c-4f69-85c5-60ace6452e2c" data-name="Layer 1"><path class="b693c0de-bfb6-4923-8cc9-89496303bbb6" d="M26.58,21.88a1.6,1.6,0,0,0-1.65-1.36H23.06a.39.39,0,0,1-.3-.13L22.33,20c-.66-.66-1.34-1.35-2-2a2.46,2.46,0,0,0-2.76-.59,6.79,6.79,0,0,0-1,.55l-.42.24-.51.3-.14.09a1.55,1.55,0,0,0-1.4-.77H7.26a2.3,2.3,0,0,0-1.86.9l-.15.17h0l-.16-.15a2.69,2.69,0,0,0-4.4,2.6,2.65,2.65,0,0,0,3,2.08c.07,0,.09,0,.14.08l.1.18c.2.37.42.77.66,1.14a2,2,0,0,0,1.27.91L9,26.45l.34.08a4,4,0,0,0,.91.18c1,0,2,0,3,0h1.12a1.44,1.44,0,0,0,.91-.32,1.33,1.33,0,0,0,.4-1.48,1.36,1.36,0,0,0-1.28-.9H10.8a1.53,1.53,0,0,1-.4-.07l-1.54-.56-1-.37a.52.52,0,0,0-.73.28.47.47,0,0,0,0,.37.65.65,0,0,0,.38.32l2.27.81.15.05a2.64,2.64,0,0,0,.91.21h3.54c.24,0,.4.13.4.32a.3.3,0,0,1-.08.21.43.43,0,0,1-.31.11h-.7L11,25.7h-.18a3.44,3.44,0,0,1-.72-.05l-3.5-.83-.54-.13a1,1,0,0,1-.62-.42C5.25,23.9,5,23.49,4.75,23a.28.28,0,0,1,0-.08l.06-.05s.05,0,.06,0a2.65,2.65,0,0,0,1-2.86c-.06-.18,0-.27.07-.37a1.15,1.15,0,0,0,.14-.17,1.52,1.52,0,0,1,1.47-.68c.93,0,1.87,0,2.78,0H14a.56.56,0,0,1,.51.24.1.1,0,0,0,0,0l-.15.09a1,1,0,0,1-.54.23H8.14a.55.55,0,0,0-.47.24.48.48,0,0,0,0,.48.56.56,0,0,0,.56.3h5.85a.87.87,0,0,0,.45-.12l2-1.19,1.1-.65a1.55,1.55,0,0,1,2,.22l1.23,1.22.47.47.15.16h-5a.49.49,0,0,0-.51.37.47.47,0,0,0,.22.57.85.85,0,0,0,.39.08h8.27a1.45,1.45,0,0,1,.32,0,.53.53,0,0,1,.41.36.59.59,0,0,1-.09.56.71.71,0,0,1-.62.22H9.91a.52.52,0,0,0-.46.53.5.5,0,0,0,.5.48H25a1.57,1.57,0,0,0,1.21-.57A1.59,1.59,0,0,0,26.58,21.88ZM3.29,19.05A1.67,1.67,0,1,1,2.12,21.9a1.55,1.55,0,0,1-.48-1.15h0a1.65,1.65,0,0,1,1.61-1.7Z"/><path class="b693c0de-bfb6-4923-8cc9-89496303bbb6" d="M7.44,8.87h0A2.83,2.83,0,0,0,10.32,6a2.78,2.78,0,0,0-.83-2,2.87,2.87,0,0,0-2-.83h0a2.83,2.83,0,0,0-2,.86,2.84,2.84,0,0,0,2,4.84ZM5.64,6A1.82,1.82,0,0,1,7.45,4.19h0A1.82,1.82,0,0,1,8.75,7.32a1.8,1.8,0,0,1-1.26.53h0A1.86,1.86,0,0,1,6.17,7.3,1.76,1.76,0,0,1,5.64,6Z"/><path class="b693c0de-bfb6-4923-8cc9-89496303bbb6" d="M9.73,8.27a.47.47,0,0,0-.16.39.63.63,0,0,0,.21.39l2.57,2.58.08.08.63.62a.5.5,0,0,0,.34.15.4.4,0,0,0,.23-.08.8.8,0,0,0,.22-.23l.1-.11L14,12l0-.08-.1-.15a2.48,2.48,0,0,0-.19-.26L10.89,8.71l-.38-.38A.53.53,0,0,0,9.73,8.27Z"/><path class="b693c0de-bfb6-4923-8cc9-89496303bbb6" d="M2.11,6.53h1.6a.52.52,0,0,0,.44-.87A.65.65,0,0,0,3.7,5.5H.57A.52.52,0,0,0,0,6a.5.5,0,0,0,.13.36.61.61,0,0,0,.45.16H2.11Z"/><path class="b693c0de-bfb6-4923-8cc9-89496303bbb6" d="M14,6.53h2.48c.38,0,.59-.19.6-.51a.51.51,0,0,0-.14-.36.63.63,0,0,0-.45-.16H14a.61.61,0,0,0-.45.17.51.51,0,0,0-.14.36C13.43,6.34,13.64,6.52,14,6.53Z"/><path class="b693c0de-bfb6-4923-8cc9-89496303bbb6" d="M5,8.19a.45.45,0,0,0-.58.13L2.79,10a.57.57,0,0,0-.18.41.5.5,0,0,0,.16.35.52.52,0,0,0,.35.14.6.6,0,0,0,.4-.17C4.08,10.15,4.63,9.59,5.18,9a1.07,1.07,0,0,0,.13-.21l.07-.13,0-.08-.06-.07-.09-.11A1.36,1.36,0,0,0,5,8.19Z"/><path class="b693c0de-bfb6-4923-8cc9-89496303bbb6" d="M3,2.27c.45.46,1,1,1.5,1.49a.49.49,0,0,0,.32.1.72.72,0,0,0,.22,0,.58.58,0,0,0,.25-.24l.07-.11,0-.06,0-.08a.67.67,0,0,1-.06-.12A1.1,1.1,0,0,0,5.17,3c-.12-.14-.26-.27-.39-.4l-.34-.34-.69-.68a.5.5,0,0,0-.71,0,.5.5,0,0,0-.18.36A.52.52,0,0,0,3,2.27Z"/><path class="b693c0de-bfb6-4923-8cc9-89496303bbb6" d="M10.68,2.54a1.07,1.07,0,0,0,.22.25.46.46,0,0,0,.25.08.57.57,0,0,0,.37-.17l1.35-1.36a.5.5,0,0,0,0-.74.5.5,0,0,0-.35-.16h0a.62.62,0,0,0-.42.19c-.44.44-.89.88-1.33,1.33a1.07,1.07,0,0,0-.13.21l-.07.12,0,.08.06.07Z"/><path class="b693c0de-bfb6-4923-8cc9-89496303bbb6" d="M7,13.8a.48.48,0,0,0,.5.49h0a.48.48,0,0,0,.48-.5c0-.7,0-1.34,0-2a.5.5,0,0,0-.51-.53h0a.48.48,0,0,0-.5.53c0,.22,0,.44,0,.67v.59C7,13.32,7,13.56,7,13.8Z"/><path class="b693c0de-bfb6-4923-8cc9-89496303bbb6" d="M7.47,2.8h0A.5.5,0,0,0,8,2.26c0-.2,0-.4,0-.6V.51A.56.56,0,0,0,7.81.13.52.52,0,0,0,7.45,0,.5.5,0,0,0,7,.52C7,1.1,7,1.67,7,2.25A.52.52,0,0,0,7.47,2.8Z"/><path class="b693c0de-bfb6-4923-8cc9-89496303bbb6" d="M11.42,6.53h1.06A.5.5,0,0,0,13,6a.49.49,0,0,0-.49-.52c-.44,0-.89,0-1.34,0a.51.51,0,1,0,0,1Z"/><path class="b693c0de-bfb6-4923-8cc9-89496303bbb6" d="M15.83,13.66,15,12.83a.49.49,0,0,0-.68,0,.47.47,0,0,0-.05.68,9.73,9.73,0,0,0,.85.85.59.59,0,0,0,.32.09.73.73,0,0,0,.22,0,.53.53,0,0,0,.24-.23.7.7,0,0,1,.06-.09l.05-.06L16,14a.76.76,0,0,1,0-.11A.76.76,0,0,0,15.83,13.66Z"/><path class="b693c0de-bfb6-4923-8cc9-89496303bbb6" d="M2.26,11a.6.6,0,0,0-.52,0,3.35,3.35,0,0,0-.59.6.56.56,0,0,0,0,.52.59.59,0,0,0,.43.28h0A.78.78,0,0,0,2,12.22a1.59,1.59,0,0,0,.55-.87v0l0,0,0,0A.51.51,0,0,0,2.26,11Z"/><path class="b693c0de-bfb6-4923-8cc9-89496303bbb6" d="M18.48,6.52h.45a.5.5,0,0,0,.52-.48A.5.5,0,0,0,19,5.5a2.7,2.7,0,0,0-.5,0A.5.5,0,0,0,18,6,.49.49,0,0,0,18.48,6.52Z"/><path class="b693c0de-bfb6-4923-8cc9-89496303bbb6" d="M7.47,16.24h0A.46.46,0,0,0,8,15.85c0-.07,0-.13,0-.2v-.18a2,2,0,0,0,0-.23.49.49,0,0,0-.49-.4h0a.51.51,0,0,0-.5.44,4.86,4.86,0,0,0,0,.54A.46.46,0,0,0,7.47,16.24Z"/><path class="b693c0de-bfb6-4923-8cc9-89496303bbb6" d="M8,10a.51.51,0,0,0-1,0,3.62,3.62,0,0,0,0,.46.5.5,0,0,0,.24.36.51.51,0,0,0,.48,0,.54.54,0,0,0,.27-.6v-.09A.75.75,0,0,0,8,10Z"/><path class="b693c0de-bfb6-4923-8cc9-89496303bbb6" d="M2.1,1.34a.82.82,0,0,0,.28.06.46.46,0,0,0,.21,0,.54.54,0,0,0,.23-.25l0-.05,0,0V1A1,1,0,0,0,2.55.37.51.51,0,0,0,2.17.21a.71.71,0,0,0-.43.22.42.42,0,0,0,0,.57A1.3,1.3,0,0,0,2.1,1.34Z"/><path class="b693c0de-bfb6-4923-8cc9-89496303bbb6" d="M10.13,3.87h0a.71.71,0,0,0,.46-.24.7.7,0,0,0,.22-.47.49.49,0,0,0-.51-.5.71.71,0,0,0-.47.25.69.69,0,0,0-.22.46A.52.52,0,0,0,10.13,3.87Z"/></g></g></svg>