<svg xmlns="http://www.w3.org/2000/svg" viewBox="0 0 30.92 26.71"><defs><style>.b4f1e6f2-4179-4668-b292-507fadf1fc97{fill:#fff;}</style></defs><g id="ba4a9074-d059-41ab-9bf3-7683fe0eedcb" data-name="Layer 2"><g id="a306dc21-3926-43f5-a092-9af84b8530b1" data-name="Layer 1"><path class="b4f1e6f2-4179-4668-b292-507fadf1fc97" d="M20.59,4l.68-.36,2.09-1.09A1,1,0,0,1,24,2.51a.6.6,0,0,1,.42.88,1.27,1.27,0,0,1-.62.65L21.48,5.27c-.37.2-.75.39-1.12.6a.27.27,0,0,0-.13.17c-.2,1.11-.39,2.22-.58,3.33-.14.8-.29,1.6-.43,2.4,0,0,0,.09,0,.18l.39-.19,1.61-.85,3.17-1.67L24.82,9A.27.27,0,0,0,25,8.8c.2-1.18.41-2.35.62-3.53a1.19,1.19,0,0,1,.72-1,.65.65,0,0,1,.83.28.89.89,0,0,1,.1.58c-.16.88-.32,1.77-.47,2.66,0,0,0,.1,0,.18l.14-.06,2.22-1.16c.23-.12.45-.25.69-.35a.88.88,0,0,1,.85,0,.64.64,0,0,1,.2.82,1.43,1.43,0,0,1-.68.67L27.4,9.36l-.07.05.1.07,2.06,1.34a.75.75,0,0,1,.36.9,1,1,0,0,1-.84.64,1.35,1.35,0,0,1-.82-.3l-1.6-1-.94-.61a.23.23,0,0,0-.26,0l-3.14,1.65L20.06,13.2l-.3.16.57.37,2.19,1.41,1.8,1.16a.23.23,0,0,0,.26,0l2.11-1.1,1.3-.69a1.09,1.09,0,0,1,.81-.14.6.6,0,0,1,.44.81,1.1,1.1,0,0,1-.56.67c-.52.29-1,.55-1.57.83L26,17.26l-.08.06a1.21,1.21,0,0,0,.2.14l2.17,1.4a.8.8,0,0,1,.37.8.88.88,0,0,1-.67.71,1,1,0,0,1-.83-.15L25,18.82l-.14-.08c0,.08,0,.14-.06.21l-.45,2.58a1.14,1.14,0,0,1-.68.9.67.67,0,0,1-1-.61,1.8,1.8,0,0,1,0-.4c.2-1.18.41-2.35.63-3.53a.15.15,0,0,0-.08-.17L21,16.26,19.14,15l-.44-.27c0,.19-.07.36-.1.53l-.45,2.51c-.17,1-.33,1.92-.51,2.88a.14.14,0,0,0,.08.17c.43.27.86.54,1.28.82l1.53,1a.81.81,0,0,1,.38.9.92.92,0,0,1-.82.66,1,1,0,0,1-.63-.16c-.68-.45-1.37-.88-2.05-1.32l-.11-.06-.12.64c-.15.83-.29,1.66-.44,2.49a1.14,1.14,0,0,1-.62.81.66.66,0,0,1-1-.61,8.39,8.39,0,0,1,.13-1c.13-.76.26-1.51.4-2.27a.22.22,0,0,1,0-.06l-.37.18L13.14,24a1.57,1.57,0,0,1-.72.23.62.62,0,0,1-.6-.92,1.21,1.21,0,0,1,.61-.63l2.92-1.53.56-.3a.28.28,0,0,0,.1-.14c0-.23.09-.47.14-.71,0-.07,0-.11-.08-.11H9.83c-.49,0-1,0-1.46,0a.64.64,0,0,1-.67-.65.65.65,0,0,1,.67-.65h4a.84.84,0,0,0,.83-.68.83.83,0,0,0-.6-.93,1,1,0,0,0-.24,0H10.2a.62.62,0,0,1-.59-.36.61.61,0,0,1,.05-.67.66.66,0,0,1,.57-.27H14.1a.81.81,0,0,0,.83-1,.79.79,0,0,0-.78-.6H8.37a.64.64,0,0,1-.61-.95.62.62,0,0,1,.58-.35H15a.82.82,0,0,0,.72-1.25.77.77,0,0,0-.7-.38h-4a1.08,1.08,0,0,1-.53-.08.66.66,0,0,1-.34-.71.62.62,0,0,1,.61-.52h5.56a.88.88,0,0,0,.7-.27.79.79,0,0,0,.15-.86.72.72,0,0,0-.72-.5H13.7A.83.83,0,0,1,13.19,8a.64.64,0,0,1-.25-.73.6.6,0,0,1,.61-.44h4.68c.24,0,.24,0,.28-.23s.06-.39.1-.58a.17.17,0,0,0-.09-.19l-1-.62L15.69,4a.76.76,0,0,1-.35-.78.83.83,0,0,1,.59-.7,1.05,1.05,0,0,1,1,.17l1.78,1.15L19,4c0-.15.06-.28.08-.41.1-.53.2-1.06.29-1.59.07-.37.12-.74.2-1.11A1.1,1.1,0,0,1,20.14.1a.63.63,0,0,1,.72,0,.71.71,0,0,1,.28.68C21,1.56,20.89,2.3,20.76,3,20.7,3.36,20.65,3.68,20.59,4Z"/><path class="b4f1e6f2-4179-4668-b292-507fadf1fc97" d="M7.93,8.14H4.86A.76.76,0,0,1,4.31,8a.62.62,0,0,1-.16-.71.59.59,0,0,1,.58-.4h6.43a.62.62,0,0,1,.62.62.63.63,0,0,1-.55.66l-.37,0Z"/><path class="b4f1e6f2-4179-4668-b292-507fadf1fc97" d="M5.52,9.77H8.45a.66.66,0,0,1,.67.64.67.67,0,0,1-.65.67H2.65a.77.77,0,0,1-.56-.21.66.66,0,0,1,0-.89.7.7,0,0,1,.53-.21Z"/><path class="b4f1e6f2-4179-4668-b292-507fadf1fc97" d="M11.24,3.75H9.68a.65.65,0,0,1-.6-.37.61.61,0,0,1,.08-.67.6.6,0,0,1,.51-.26c1,0,2.09,0,3.13,0a.64.64,0,0,1,.64.65.65.65,0,0,1-.66.65Z"/><path class="b4f1e6f2-4179-4668-b292-507fadf1fc97" d="M8.24,24.05H6.81a.63.63,0,0,1-.59-.37.62.62,0,0,1,.1-.71.64.64,0,0,1,.48-.22c1,0,1.91,0,2.87,0a.65.65,0,1,1,0,1.3Z"/><path class="b4f1e6f2-4179-4668-b292-507fadf1fc97" d="M17.37,1.31c-.27,0-.54,0-.8,0A.66.66,0,0,1,15.88.7.63.63,0,0,1,16.52,0c.57,0,1.15,0,1.72,0a.65.65,0,0,1,.63.52.63.63,0,0,1-.63.77h-.87Z"/><path class="b4f1e6f2-4179-4668-b292-507fadf1fc97" d="M1.52,6.84h.87A.61.61,0,0,1,3,7.4a.64.64,0,0,1-.47.7,1.17,1.17,0,0,1-.26,0H.72A.67.67,0,0,1,0,7.55a.63.63,0,0,1,.58-.71Z"/><path class="b4f1e6f2-4179-4668-b292-507fadf1fc97" d="M5.14,12.71H6A.65.65,0,1,1,6,14H4.28a.66.66,0,0,1-.65-.56.65.65,0,0,1,.5-.72l.16,0Z"/><path class="b4f1e6f2-4179-4668-b292-507fadf1fc97" d="M12.41,26.7h-.87a.64.64,0,0,1-.06-1.28c.63,0,1.25,0,1.87,0a.6.6,0,0,1,.55.65.63.63,0,0,1-.59.62Z"/><path class="b4f1e6f2-4179-4668-b292-507fadf1fc97" d="M7.21,17H6.5a.65.65,0,1,1,0-1.3H7.94a.65.65,0,1,1,0,1.3Z"/></g></g></svg>