<svg xmlns="http://www.w3.org/2000/svg" viewBox="0 0 25 27.35"><defs><style>.e7556b36-99db-45d0-8b9b-208424fa398e{fill:#fff;}</style></defs><g id="bf3270c3-95fc-4f42-ab2f-01da6d2e81c0" data-name="Layer 2"><g id="add3c684-b68c-4a7c-b077-1cb79fff0e09" data-name="Layer 1"><path class="e7556b36-99db-45d0-8b9b-208424fa398e" d="M23.64,20.72a.42.42,0,0,1-.18-.38c0-.69,0-1.38,0-2.07V5.91a2.21,2.21,0,0,0-.58-1.53,2.17,2.17,0,0,0-2.35-.61,2.13,2.13,0,0,0-1.45,2q0,2.63,0,5.25v3.7c0,1.87,0,3.74,0,5.61a.44.44,0,0,1-.18.39,3.67,3.67,0,0,0-1.38,2.77,3.71,3.71,0,0,0,1.23,2.9,3.78,3.78,0,0,0,2.53,1,3.48,3.48,0,0,0,.55,0A3.76,3.76,0,0,0,25,23.82,3.71,3.71,0,0,0,23.64,20.72Zm-3.23-9.83V6.12a1.08,1.08,0,0,1,.28-.91A.86.86,0,0,1,21.24,5a1,1,0,0,1,.29,0,.77.77,0,0,1,.55.63c0,.51,0,1,0,1.55V13h0v2.12c0,1.77,0,3.54,0,5.3a1.57,1.57,0,0,0,.65,1.29,2.24,2.24,0,0,1,.84,2.39A2.27,2.27,0,0,1,21.81,26a2.42,2.42,0,0,1-2.72-1.29,2.37,2.37,0,0,1,.6-2.87,1.87,1.87,0,0,0,.73-1.58C20.41,17.1,20.41,14,20.41,10.89Z"/><path class="e7556b36-99db-45d0-8b9b-208424fa398e" d="M18.46,19.05a.69.69,0,0,0,0-.53.67.67,0,0,0-.86-.38l-.2.08a5,5,0,0,1-3.15.23A5.09,5.09,0,0,1,16.36,8.5a5.77,5.77,0,0,1,.93.28l.38.13a.69.69,0,0,0,.82-.21.61.61,0,0,0,0-.81,1.11,1.11,0,0,0-.38-.26,6.44,6.44,0,0,0-9,5.52A6.46,6.46,0,0,0,15.46,20h.31a5.56,5.56,0,0,0,.7-.08c.49-.12,1-.27,1.6-.47A.63.63,0,0,0,18.46,19.05Z"/><path class="e7556b36-99db-45d0-8b9b-208424fa398e" d="M6.13,13.51A.67.67,0,0,0,6,13a.8.8,0,0,0-.56-.21H.75A.67.67,0,0,0,0,13.5.67.67,0,0,0,.18,14a.8.8,0,0,0,.58.2H5.38A.68.68,0,0,0,6.13,13.51Z"/><path class="e7556b36-99db-45d0-8b9b-208424fa398e" d="M10.46,18.86a1.19,1.19,0,0,0-.27-.28.62.62,0,0,0-.8.14L6.24,21.86A.67.67,0,0,0,6.65,23h0a.78.78,0,0,0,.54-.25q1.56-1.54,3.1-3.11a1,1,0,0,0,.2-.29l.07-.13.09-.16L10.54,19A.76.76,0,0,1,10.46,18.86Z"/><path class="e7556b36-99db-45d0-8b9b-208424fa398e" d="M6.79,5.71l1.7,1.7c.3.31.6.61.91.89a.84.84,0,0,0,.52.18l.17,0a.73.73,0,0,0,.36-.31l.1-.12.13-.14-.11-.16-.09-.15a2.28,2.28,0,0,0-.21-.3L8,5l-.27-.27a.66.66,0,0,0-1-.08.59.59,0,0,0-.2.44A.84.84,0,0,0,6.79,5.71Z"/><path class="e7556b36-99db-45d0-8b9b-208424fa398e" d="M16.22,23.21c0-.54,0-1.08,0-1.63a.74.74,0,0,0-.34-.65.62.62,0,0,0-.63,0,.76.76,0,0,0-.38.7V23.7c0,.39,0,.79,0,1.18a.67.67,0,0,0,.65.75h0a.67.67,0,0,0,.67-.7c0-.29,0-.58,0-.88v-.84Z"/><path class="e7556b36-99db-45d0-8b9b-208424fa398e" d="M14.87,4.38c0,.37,0,.74,0,1.11a.67.67,0,0,0,.67.68h0a.68.68,0,0,0,.67-.64c0-.1,0-.2,0-.3V3.58c0-.39,0-.79,0-1.18a.63.63,0,0,0-.67-.66.68.68,0,0,0-.66.64,2.1,2.1,0,0,0,0,.27V4.38Z"/><path class="e7556b36-99db-45d0-8b9b-208424fa398e" d="M6,4.52l.12,0,.07,0a.79.79,0,0,0,.31-.28.8.8,0,0,0,0-.66A1.76,1.76,0,0,0,5.94,3,.61.61,0,0,0,5.3,3a.67.67,0,0,0-.37.57.91.91,0,0,0,.29.61A1.11,1.11,0,0,0,6,4.52Z"/><path class="e7556b36-99db-45d0-8b9b-208424fa398e" d="M7,12.84a.67.67,0,0,0,0,1.32H7.5a.67.67,0,1,0,0-1.34A4.09,4.09,0,0,0,7,12.84Z"/><path class="e7556b36-99db-45d0-8b9b-208424fa398e" d="M5.16,23a1.8,1.8,0,0,0-.56.54.61.61,0,0,0,0,.65.67.67,0,0,0,.58.34h0a1.19,1.19,0,0,0,.92-.93.67.67,0,0,0-.34-.6A.62.62,0,0,0,5.16,23Z"/><path class="e7556b36-99db-45d0-8b9b-208424fa398e" d="M15.25,1.58a.67.67,0,0,0,.3.08A.66.66,0,0,0,16,1.43a1,1,0,0,0,0-1.18.66.66,0,0,0-.78-.19.76.76,0,0,0-.42.77A.75.75,0,0,0,15.25,1.58Z"/></g></g></svg>