<svg xmlns="http://www.w3.org/2000/svg" viewBox="0 0 24.64 26.72"><defs><style>.abf788e9-7f36-47ce-a87d-75233d4dba0c{fill:#fff;}</style></defs><g id="a71f9b59-6302-43e5-b239-a48f51d8229a" data-name="Layer 2"><g id="a80d1aa3-9379-46ec-823b-ff2183b416c1" data-name="Layer 1"><path class="abf788e9-7f36-47ce-a87d-75233d4dba0c" d="M23.91,18.25a3.46,3.46,0,0,0-2.56-3.33l-2.71-.87-2.42-.78s-.06,0-.07-.07c0-.52-.06-1-.12-1.56a.57.57,0,0,1,.15-.46A3.73,3.73,0,0,0,17,9.41a3,3,0,0,1,.39-1.23,3.36,3.36,0,0,0,.37-1.61c0-.6,0-1.21,0-1.81a4.24,4.24,0,0,0-1.33-3.22,4.23,4.23,0,0,0-4.76-.9A4.32,4.32,0,0,0,9,4.58v.93c0,.41,0,.82,0,1.23a3.93,3.93,0,0,0,.37,1.57A2.26,2.26,0,0,1,9.55,9a4.48,4.48,0,0,0,.91,2.26.18.18,0,0,1,0,.11c0,.27,0,.53-.07.8s-.05.66-.08,1c0,.08,0,.08-.08.11L7.88,14l-2.74.88a3.32,3.32,0,0,0-2.49,2.8c-.11.67-.18,1.37-.24,2l-.09,1c-.07.58-.13,1.16-.2,1.74L2,24.05,1.74,26a.7.7,0,0,0,.19.57.66.66,0,0,0,.45.17h.11A.59.59,0,0,0,3,26.12l0-.29c.1-.88.2-1.76.29-2.64l.18-1.7c.12-1.14.24-2.28.37-3.41a2.49,2.49,0,0,1,.2-.76A2.32,2.32,0,0,1,5.64,16.1c1.27-.39,2.53-.8,3.79-1.21l1.65-.53a.66.66,0,0,0,.5-.61c0-.39.06-.78.1-1.16,0-.06,0-.12,0-.19a2.48,2.48,0,0,0,1.54.64,2.32,2.32,0,0,0,1.58-.61c0,.42.07.84.1,1.25a.7.7,0,0,0,.53.69l5.68,1.82a2,2,0,0,1,1.34,1.27,3.7,3.7,0,0,1,.16,1c.09,1.76.18,3.52.26,5.28L23,26a2,2,0,0,0,.05.31.61.61,0,0,0,.69.45.58.58,0,0,0,.54-.55,1.43,1.43,0,0,0,0-.3l-.12-2.36C24.07,21.76,24,20,23.91,18.25ZM10.23,5.67l0-.18c0-.12,0-.25,0-.38a6.58,6.58,0,0,1,.13-1.2,2.83,2.83,0,0,1,1.89-2.14,3.07,3.07,0,0,1,3.91,1.62,2.73,2.73,0,0,1,.25,1c0,.74,0,1.53,0,2.49a1.93,1.93,0,0,1-.21.7,4.84,4.84,0,0,0-.49,1.54,2.7,2.7,0,0,1-1,1.78c-.29.22-.58.45-.88.66a.86.86,0,0,1-1,0l-.23-.18a8.87,8.87,0,0,1-.92-.79,2.92,2.92,0,0,1-.76-1.75,3.06,3.06,0,0,0-.29-1,3,3,0,0,1-.3-1.48,4.17,4.17,0,0,0,0-.5Z"/><path class="abf788e9-7f36-47ce-a87d-75233d4dba0c" d="M16,20.51l-.14-.23h0a.63.63,0,0,0-.81-.22l-.05,0a3,3,0,0,0-.3-1.71,4.37,4.37,0,0,0-2.32-2.19.68.68,0,0,0-.78.13.64.64,0,0,0-.1.77l.05.12a4,4,0,0,1,.2.48,2.11,2.11,0,0,1-.54,2.37c-.28.28-.56.57-.83.88a3.15,3.15,0,0,0-.87,2.76,3,3,0,0,0,2.18,2.44.64.64,0,0,0,.44-1.2L12,24.87a1.83,1.83,0,0,1-1.16-1.17,1.76,1.76,0,0,1,.26-1.57,10.94,10.94,0,0,1,1-1.14l.11-.11a3.25,3.25,0,0,0,1-2.57,2.89,2.89,0,0,1,.45.77,1.35,1.35,0,0,1-.14,1.39,2.14,2.14,0,0,0-.2.32,1.44,1.44,0,0,0,.15,1.58,1.27,1.27,0,0,0,1.47.33,1.48,1.48,0,0,0,.63-.43c0,.07,0,.14.07.21a2.06,2.06,0,0,1-.58,2.23l-.2.17-.18.16a.64.64,0,0,0-.1.87.63.63,0,0,0,.88.14A3.6,3.6,0,0,0,16.93,24a3.53,3.53,0,0,0-.26-2.36A8.87,8.87,0,0,0,16,20.51Zm-1.29.63a.38.38,0,0,1-.26.35h0s0-.06,0-.08a.92.92,0,0,1,.17-.29c0-.07.09-.14.13-.22Z"/><path class="abf788e9-7f36-47ce-a87d-75233d4dba0c" d="M1.86,6h.26l0,0a3.91,3.91,0,0,0,1.58-.42A3.94,3.94,0,0,0,5.91,2.35,3.82,3.82,0,0,0,5.64.44.69.69,0,0,0,5.28.05a.6.6,0,0,0-.49,0,.64.64,0,0,0-.35.84l0,.1c0,.11.07.22.1.33a2.64,2.64,0,0,1-.36,2.11A2.65,2.65,0,0,1,2.42,4.62,2.66,2.66,0,0,1,1,4.48a.81.81,0,0,0-.6,0,.57.57,0,0,0-.31.35.67.67,0,0,0,0,.52.76.76,0,0,0,.48.35l.93.22Z"/><path class="abf788e9-7f36-47ce-a87d-75233d4dba0c" d="M17.61,1.55h4.7a.72.72,0,0,0,.53-.2A.64.64,0,0,0,23,.9.64.64,0,0,0,22.3.27H17.61a.67.67,0,0,0-.73.63.6.6,0,0,0,.18.44A.74.74,0,0,0,17.61,1.55Z"/><path class="abf788e9-7f36-47ce-a87d-75233d4dba0c" d="M7.26,9.6,5.79,7.25C5.54,6.84,5.29,6.44,5,6a.6.6,0,0,0-.72-.29.67.67,0,0,0-.49.6v.07l.08.16A1.15,1.15,0,0,0,4,6.83c.24.39.48.78.73,1.17l.63,1,.82,1.31a.68.68,0,0,0,.55.34h0a.64.64,0,0,0,.5-.25A.67.67,0,0,0,7.26,9.6Z"/><path class="abf788e9-7f36-47ce-a87d-75233d4dba0c" d="M1.17,14.6a.69.69,0,0,0,.34.09.67.67,0,0,0,.3-.08A.72.72,0,0,0,2.14,14c0-1,0-2,0-3.06a.74.74,0,0,0-.21-.55.57.57,0,0,0-.44-.17.65.65,0,0,0-.62.74V14A.64.64,0,0,0,1.17,14.6Z"/><path class="abf788e9-7f36-47ce-a87d-75233d4dba0c" d="M19,8.29h0a.64.64,0,1,0-.53,1.16l1.88.89.24.08h.1a.65.65,0,0,0,.63-.49A.63.63,0,0,0,21,9.21Z"/><path class="abf788e9-7f36-47ce-a87d-75233d4dba0c" d="M24.25,10.74c-.4-.2-.81-.38-1.22-.57L22.69,10l-.21-.07H22.4a.64.64,0,0,0-.63.46.63.63,0,0,0,.34.76c.53.26,1.07.52,1.62.76A.66.66,0,0,0,24,12a.75.75,0,0,0,.33-.07.61.61,0,0,0,.33-.55A.68.68,0,0,0,24.25,10.74Z"/><path class="abf788e9-7f36-47ce-a87d-75233d4dba0c" d="M6.51,4.49q.74.34,1.5.66a.66.66,0,0,0,.27.06.63.63,0,0,0,.63-.65c0-.27-.13-.47-.45-.61L7,3.33a.64.64,0,0,0-.85.29.65.65,0,0,0,0,.51A.62.62,0,0,0,6.51,4.49Z"/><path class="abf788e9-7f36-47ce-a87d-75233d4dba0c" d="M.87,9.18a.64.64,0,0,0,.62.67h0a.64.64,0,0,0,.64-.64c0-.54,0-1.09,0-1.64a.62.62,0,0,0-.64-.63h0a.62.62,0,0,0-.62.64c0,.19,0,.38,0,.56v1Z"/><path class="abf788e9-7f36-47ce-a87d-75233d4dba0c" d="M7.26,1.55H8.6A.64.64,0,0,0,9.24.89.62.62,0,0,0,8.59.27c-.44,0-.88,0-1.33,0a.62.62,0,0,0-.65.64A.63.63,0,0,0,7.26,1.55Z"/><path class="abf788e9-7f36-47ce-a87d-75233d4dba0c" d="M7.3,12.11a.59.59,0,0,0,.49.26.69.69,0,0,0,.2,0,.75.75,0,0,0,.49-.56l0-.1-.16-.28c-.09-.16-.19-.32-.29-.47a.63.63,0,0,0-.84-.13.62.62,0,0,0-.23.8A3.14,3.14,0,0,0,7.3,12.11Z"/><path class="abf788e9-7f36-47ce-a87d-75233d4dba0c" d="M2.15,16c0-.18,0-.7-.44-.86a.58.58,0,0,0-.56.06.8.8,0,0,0-.28.71,1.15,1.15,0,0,0,0,.19.62.62,0,0,0,.61.54h.13A.65.65,0,0,0,2.15,16Z"/></g></g></svg>