<svg xmlns="http://www.w3.org/2000/svg" viewBox="0 0 27.92 22.05"><defs><style>.ec3323b4-a518-491d-9ac5-54365b7ad56c{fill:#fff;}</style></defs><g id="b3a1f62c-fe89-44d4-86b5-2209bd706f15" data-name="Layer 2"><g id="ec44577a-54f7-4aa3-867a-2c158af8e4f5" data-name="Layer 1"><path class="ec3323b4-a518-491d-9ac5-54365b7ad56c" d="M0,12.82A6.48,6.48,0,0,1,1.43,8.67,6.52,6.52,0,0,1,5.12,6.3,7.9,7.9,0,0,1,8,1.77,7.81,7.81,0,0,1,13,0a7.78,7.78,0,0,1,5,1.73A7.73,7.73,0,0,1,20.8,6.16h.43a6.58,6.58,0,0,1,3.34.89,6.7,6.7,0,0,1,3.35,5.77A6.35,6.35,0,0,1,26,17.43a6.34,6.34,0,0,1-4.55,2c-.18,0-.27-.08-.27-.23V17.43q0-.24.27-.24a4.19,4.19,0,0,0,2.94-1.38,4.32,4.32,0,0,0-.1-6.1A4.23,4.23,0,0,0,21.2,8.4H19a.21.21,0,0,1-.24-.23l-.11-.78a5.51,5.51,0,0,0-1.87-3.67,5.73,5.73,0,0,0-7.7,0A5.53,5.53,0,0,0,7.27,7.44l-.08.68a.24.24,0,0,1-.27.25l-.72.1a4.13,4.13,0,0,0-2.83,1.4,4.34,4.34,0,0,0,.07,6A4.24,4.24,0,0,0,6.38,17.2a.21.21,0,0,1,.23.24v1.8a.22.22,0,0,1-.23.23,6.44,6.44,0,0,1-4.59-2A6.69,6.69,0,0,1,0,12.82Zm8.57,5.49a1.09,1.09,0,0,1,.33-.79,1.07,1.07,0,0,1,.79-.32,1.13,1.13,0,0,1,.8,1.92,1.12,1.12,0,0,1-1.59,0A1.1,1.1,0,0,1,8.57,18.31Zm3.74,2.6a1.24,1.24,0,0,1,.32-.84,1.12,1.12,0,0,1,1.59,0,1.15,1.15,0,0,1-.81,2,1,1,0,0,1-.78-.33A1.17,1.17,0,0,1,12.31,20.91ZM12.87,16a1.1,1.1,0,0,1,.34-.81A1.12,1.12,0,0,1,14,14.9a1.1,1.1,0,0,1,.82.33,1.09,1.09,0,0,1,.34.81,1.07,1.07,0,0,1-.34.8,1.17,1.17,0,0,1-.82.32,1.06,1.06,0,0,1-.78-.32A1.13,1.13,0,0,1,12.87,16Zm4.34,2.28a1.08,1.08,0,0,1,.34-.79,1.16,1.16,0,0,1,1.61,0,1.11,1.11,0,0,1,.32.78,1.1,1.1,0,0,1-.32.81,1.05,1.05,0,0,1-.8.34,1.07,1.07,0,0,1-.81-.34A1.1,1.1,0,0,1,17.21,18.31Z"/></g></g></svg>