<svg xmlns="http://www.w3.org/2000/svg" viewBox="0 0 27.97 27.82"><defs><style>.eca1dc3e-888b-4d4d-8ee5-d2d5e24a3f57{fill:#fff;}</style></defs><g id="b87361d6-3011-4755-b8c1-c34da97dbefb" data-name="Layer 2"><g id="eb786e94-58e3-41d7-a1a8-a407bf6afa4d" data-name="Layer 1"><path class="eca1dc3e-888b-4d4d-8ee5-d2d5e24a3f57" d="M0,12.78a6.68,6.68,0,0,0,4.76,6.44.33.33,0,0,0,.32-.1l1.57-1.93a4.15,4.15,0,0,1-3.08-1.3,4.27,4.27,0,0,1-1.28-3.11,4.34,4.34,0,0,1,1.13-3,4.21,4.21,0,0,1,2.83-1.4L7,8.32c.15,0,.22-.06.22-.18l.1-.74A5.61,5.61,0,0,1,9.17,3.72,5.56,5.56,0,0,1,13,2.26a5.61,5.61,0,0,1,3.87,1.47A5.41,5.41,0,0,1,18.72,7.4l.1.78a.27.27,0,0,0,.3.23H21.3a4.37,4.37,0,0,1,4.38,4.37,4.28,4.28,0,0,1-1.13,2.94,4.38,4.38,0,0,1-2.79,1.45,3.36,3.36,0,0,0-.66.09.66.66,0,0,0-.56.31l-3.18,3.76a1,1,0,0,0-.21.85,1.12,1.12,0,0,0,.42.76.93.93,0,0,0,.75.26.92.92,0,0,0,.82-.47L22,19.44a6.68,6.68,0,0,0,6-6.66,6.6,6.6,0,0,0-.52-2.6A6.73,6.73,0,0,0,26,8.05,6.71,6.71,0,0,0,21.3,6.11h-.43A8.07,8.07,0,0,0,13,0,8.09,8.09,0,0,0,6.65,3.05,7.66,7.66,0,0,0,5.12,6.31a6.29,6.29,0,0,0-3.7,2.32A6.51,6.51,0,0,0,0,12.78ZM4.56,23.59a1.47,1.47,0,0,0,.08.41,1,1,0,0,0,.59.59,1.13,1.13,0,0,0,.9,0,1.18,1.18,0,0,0,.65-1.49,1,1,0,0,0-.62-.58,1,1,0,0,0-.88,0,1.18,1.18,0,0,0-.62.64A1.05,1.05,0,0,0,4.56,23.59ZM7.05,20.3v.14a1.06,1.06,0,0,0,.4.75,1.66,1.66,0,0,0,.84.26A1,1,0,0,0,9.11,21l3.13-3.73a1.3,1.3,0,0,0,.27-.89,1.09,1.09,0,0,0-.38-.72,1.07,1.07,0,0,0-.7-.29h-.19a1.18,1.18,0,0,0-.75.45L7.31,19.56A1.12,1.12,0,0,0,7.05,20.3Zm1,6.36a.9.9,0,0,0,.11.44,1.14,1.14,0,0,0,.59.63,1,1,0,0,0,.44.09.77.77,0,0,0,.42-.09,1.11,1.11,0,0,0,.64-.55,1.15,1.15,0,0,0,0-.91,1,1,0,0,0-.6-.62,1.15,1.15,0,0,0-.91,0,.94.94,0,0,0-.6.6A.77.77,0,0,0,8.09,26.66Zm2.25-3.16v.14a1.09,1.09,0,0,0,.42.75,1.06,1.06,0,0,0,1.59-.15l5.86-7.07a1,1,0,0,0,.23-.7v-.16a1,1,0,0,0-.36-.71,1,1,0,0,0-.7-.27H17.2a.9.9,0,0,0-.74.42l-5.86,7A1.14,1.14,0,0,0,10.34,23.5Zm4.73,1.55a1.29,1.29,0,0,0,.08.4,1.1,1.1,0,0,0,.62.63,1.58,1.58,0,0,0,.42.09.87.87,0,0,0,.46-.11,1.06,1.06,0,0,0,.62-.57,1.09,1.09,0,0,0,0-.9,1,1,0,0,0-.6-.59l-.48-.13-.43.1a1,1,0,0,0-.61.59A1.37,1.37,0,0,0,15.07,25.05Z"/></g></g></svg>