<svg xmlns="http://www.w3.org/2000/svg" viewBox="0 0 28.07 27.76"><defs><style>.b28fe8e7-7138-4670-a0b5-06bc0fe449f8{fill:#fff;}</style></defs><g id="a2da0d12-0bb4-433b-9256-3089b1d179a1" data-name="Layer 2"><g id="a6201791-ded7-4cca-9dcf-12eb846edcf7" data-name="Layer 1"><path class="b28fe8e7-7138-4670-a0b5-06bc0fe449f8" d="M0,12.83A6.48,6.48,0,0,1,1.46,8.67,6.47,6.47,0,0,1,5.15,6.32,8,8,0,0,1,8,1.78,7.85,7.85,0,0,1,13.06,0a7.82,7.82,0,0,1,3,.54s0,0,0,0a7.54,7.54,0,0,1,3,2.09h0a7.61,7.61,0,0,1,1.85,3.53h.42a6.44,6.44,0,0,1,3.81,1.16v0A6.74,6.74,0,0,1,27,9.13a6.37,6.37,0,0,1,1,2.34c.06.29.08.51.11.7v.08s0,.08,0,.23a2.33,2.33,0,0,1,0,.33v0a6.78,6.78,0,0,1-3.21,5.74,6.53,6.53,0,0,1-3.26,1c-.18,0-.27-.08-.27-.23V17.52c0-.17.09-.25.27-.25a4.11,4.11,0,0,0,2.93-1.38,4.29,4.29,0,0,0,1.22-3,4.16,4.16,0,0,0-1.31-3.09,4.24,4.24,0,0,0-3.11-1.29H19.16c-.17,0-.25-.09-.25-.23l-.1-.8A5.52,5.52,0,0,0,17.09,4s0,0,0,0a.05.05,0,0,1,0,0,.09.09,0,0,0-.05,0s0,0,0,0a5.74,5.74,0,0,0-3.45-1.51h-.46A5.62,5.62,0,0,0,9.19,3.76,5.46,5.46,0,0,0,7.35,7.43l-.11.79a.29.29,0,0,1-.3.19l-.66,0A4.49,4.49,0,0,0,3.44,9.89a4.2,4.2,0,0,0-1.13,2.94v.06h0a4.51,4.51,0,0,0,.4,1.82,4.42,4.42,0,0,0,1.08,1.47,4.64,4.64,0,0,0,1,.64v0a4.39,4.39,0,0,0,1.63.43.21.21,0,0,1,.23.24v1.81a.21.21,0,0,1-.23.23,7,7,0,0,1-2-.41v0a6.64,6.64,0,0,1-2.84-1.93,6.55,6.55,0,0,1-1.5-3.12v0s0,0,0-.05A5.48,5.48,0,0,1,0,12.83ZM7.41,22.5s0-.1,0-.18a1.43,1.43,0,0,0,0-.16l.12-.79a1.12,1.12,0,0,1,.55-.72,1.22,1.22,0,0,1,.92-.11,1.24,1.24,0,0,1,.69.56,1.15,1.15,0,0,1,.09.85l-.19.81a1,1,0,0,1-1,.88l-.19,0-.19,0a1,1,0,0,1-.62-.44A1.08,1.08,0,0,1,7.41,22.5Zm1-4a1.13,1.13,0,0,1,.31-.8,1,1,0,0,1,.8-.31,1.1,1.1,0,0,1,.79.31,1,1,0,0,1,.31.8,1.11,1.11,0,0,1-.31.78,1,1,0,0,1-.79.31,1,1,0,0,1-.77-.33A1,1,0,0,1,8.41,18.54Zm2.21,8.07a1.68,1.68,0,0,1,.06-.31l.17-.79a1.16,1.16,0,0,1,.55-.69,1,1,0,0,1,.85-.1,1,1,0,0,1,.72.5,1.16,1.16,0,0,1,.11.92l-.18.79a1,1,0,0,1-1.08.83,2,2,0,0,1-.32,0,1.1,1.1,0,0,1-.66-.45A1.18,1.18,0,0,1,10.62,26.61Zm1.07-3.92a1.08,1.08,0,0,1,.31-.78,1,1,0,0,1,.79-.31,1.09,1.09,0,0,1,.8.31,1.06,1.06,0,0,1,.31.78,1.1,1.1,0,0,1-.31.79,1.15,1.15,0,0,1-1.58,0A1.08,1.08,0,0,1,11.69,22.69Zm.83-3.06a2,2,0,0,1,0-.37l.31-1.21a1.25,1.25,0,0,1,.56-.71,1,1,0,0,1,.86-.11,1.15,1.15,0,0,1,.71.54,1,1,0,0,1,.1.85l-.35,1.21a1.13,1.13,0,0,1-.56.75,1.15,1.15,0,0,1-.86.09.87.87,0,0,1-.6-.41A.9.9,0,0,1,12.52,19.63Zm3.72,2.88a.56.56,0,0,1,0-.17,1,1,0,0,0,0-.15l.12-.8a1.14,1.14,0,0,1,.56-.71,1.19,1.19,0,0,1,.91-.11,1.16,1.16,0,0,1,.69.55,1,1,0,0,1,.09.85l-.19.81a1,1,0,0,1-1,.89l-.19,0-.19,0a1,1,0,0,1-.6-.45A1.25,1.25,0,0,1,16.24,22.51Zm1-4a1.14,1.14,0,0,1,.31-.8,1.09,1.09,0,0,1,.8-.31,1.1,1.1,0,0,1,.79.31,1.06,1.06,0,0,1,.31.8,1.08,1.08,0,0,1-.31.78,1.06,1.06,0,0,1-.78.31,1,1,0,0,1-.78-.32A1,1,0,0,1,17.24,18.55Z"/></g></g></svg>