<svg xmlns="http://www.w3.org/2000/svg" viewBox="0 0 38.42 34.49"><defs><style>.b3eeb53d-3352-4606-b27f-3a36711d035f{fill:#fff;}</style></defs><g id="e352caf6-3010-48c8-b339-446a213d3452" data-name="Layer 2"><g id="b2074e67-4adc-4a90-95b7-528f914a28a6" data-name="Layer 1"><path class="b3eeb53d-3352-4606-b27f-3a36711d035f" d="M10.81,29.93a.78.78,0,0,0-.26,0l-1.49.18-.45.06,0-.21a2.25,2.25,0,0,0-1.13-2.6,7.49,7.49,0,0,0-1.34-.57,11.19,11.19,0,0,1-2.79-1.3c-.16-.11-.26-.16-.36-.13s-.14.13-.19.3a4.81,4.81,0,0,0-.2,2.23A3.51,3.51,0,0,0,5.35,31a4.28,4.28,0,0,0,1.17.18,2.8,2.8,0,0,0,1.7-.56.94.94,0,0,1,.42-.13l.86-.09,1.14-.13c.08,0,.15-.09.22-.16l.08-.08L11,30l-.12,0Zm-6.53.13a3.66,3.66,0,0,1-1.15-3.71A5.71,5.71,0,0,0,7.7,30.44C6.71,31.11,5.1,30.63,4.28,30.06Zm3.94-.28c0,.22-.11.27-.35.23a5.11,5.11,0,0,1-4.1-3.25c-.07-.15-.13-.32-.19-.48l-.06-.15a.11.11,0,0,0,0-.05,14.3,14.3,0,0,0,2.57,1.1l.63.23a3.3,3.3,0,0,1,.91.53A1.76,1.76,0,0,1,8.22,29.78Z"/><path class="b3eeb53d-3352-4606-b27f-3a36711d035f" d="M13.7,6a4.94,4.94,0,0,0,2,1,3.52,3.52,0,0,0,4-1.36,4.52,4.52,0,0,0,.59-1,2.89,2.89,0,0,0,.11-1.79.92.92,0,0,1,0-.43c.08-.28.16-.57.23-.84s.21-.74.3-1.11a.38.38,0,0,0-.07-.26,1,1,0,0,0,0-.1l0-.12L20.7.1l-.07.09a.61.61,0,0,0-.13.22c-.13.47-.25,1-.38,1.45,0,.15-.07.3-.11.45l-.18-.12a2.24,2.24,0,0,0-2.83.1,7.78,7.78,0,0,0-1,1,11.38,11.38,0,0,1-2.23,2.12c-.16.11-.24.18-.25.28S13.56,5.91,13.7,6ZM20,3.26c.26,1.17-.78,2.49-1.61,3.05A3.64,3.64,0,0,1,14.49,6,5.71,5.71,0,0,0,20,3.26Zm-3.63.32.44-.5a3.24,3.24,0,0,1,.83-.65,1.75,1.75,0,0,1,1.93.1c.19.13.21.21.09.41a5.09,5.09,0,0,1-4.52,2.64h-.74A14.16,14.16,0,0,0,16.34,3.58Z"/><path class="b3eeb53d-3352-4606-b27f-3a36711d035f" d="M35.83,20a3.94,3.94,0,0,0-1.09-.45,2.78,2.78,0,0,0-1.78.13.76.76,0,0,1-.44,0l-.86-.11-1.13-.15a.4.4,0,0,0-.26.11l-.1.06-.1.05.11.06.09,0a.66.66,0,0,0,.24.11L32,20l.46.05-.1.19a2.26,2.26,0,0,0,.48,2.8,8.06,8.06,0,0,0,1.17.87,12,12,0,0,1,2.41,1.92c.13.15.21.22.31.22s.16-.1.26-.25a4.78,4.78,0,0,0,.72-2.12A3.5,3.5,0,0,0,35.83,20Zm.61,5.26a14.08,14.08,0,0,0-2.23-1.69l-.55-.37a3.26,3.26,0,0,1-.76-.73,1.73,1.73,0,0,1-.16-1.92c.1-.21.18-.24.4-.15a5.1,5.1,0,0,1,3.21,4.13c0,.17,0,.34.07.51a.88.88,0,0,1,0,.16Zm.44-.18A5.72,5.72,0,0,0,33.4,20c1.12-.41,2.58.44,3.24,1.18A3.67,3.67,0,0,1,36.88,25Z"/><path class="b3eeb53d-3352-4606-b27f-3a36711d035f" d="M24.46,26.39a4,4,0,0,0,.43-.31,5,5,0,0,0,.68-.7,1.18,1.18,0,0,0-.09-1.52c.73-.61,1.33-1.25,1-2.29.15-.08.3-.15.43-.23a5.47,5.47,0,0,0,1.38-.95,1.17,1.17,0,0,0,.08-1.74.67.67,0,0,1-.06-.12c.11-.09.23-.17.33-.27a6.4,6.4,0,0,0,.65-.73,1.48,1.48,0,0,0-.09-1.91c-.07-.1-.15-.18-.24-.29a2.73,2.73,0,0,0,.36-.3,9,9,0,0,0,1-1.08A2,2,0,0,0,30,11.37a5.54,5.54,0,0,0-2.46-1.44c.18.16.38.32.55.49a1.81,1.81,0,0,1,.19,2.52A4.3,4.3,0,0,1,27.18,14a13.3,13.3,0,0,1-4.3,1.83,26.32,26.32,0,0,1-10.34.62,12,12,0,0,1-3.65-1,4.2,4.2,0,0,1-1.48-1.06,1.72,1.72,0,0,1-.36-1.89,1.13,1.13,0,0,0,0-.2c-1.54,1.34-1.57,2.5-.14,4-.07.1-.15.2-.22.31a1.51,1.51,0,0,0,0,1.95,4.31,4.31,0,0,0,.85.74,12.41,12.41,0,0,0,1.14.63l-.1.2c-.32.59-.18,1.05.4,1.55a4.29,4.29,0,0,0,1.6.79l1.11.32a1.66,1.66,0,0,0,.9,1.84,5.82,5.82,0,0,0,1.12.55c.51.19,1,.31,1.49.44L16,26.67a1.12,1.12,0,0,0,.18,1.14c-.23.25-.46.48-.37.81a.53.53,0,0,1-.1.53.44.44,0,0,0-.07.22c0,.41-.35.78-.16,1.21,0,0,0,0,0,0a2.26,2.26,0,0,0,.11.64A2.67,2.67,0,0,0,16,32c.57.61,1.17,1.2,1.77,1.77.25.24.54.44.87.71-.08-.28-.15-.47-.19-.67A1.16,1.16,0,0,1,19,32.5a.84.84,0,0,0,.49-.77c.41-.13.74-.31.61-.8a6.5,6.5,0,0,0,.94-.33,1.28,1.28,0,0,0,.58-.49.9.9,0,0,1,.52-.46c.52-.24,1-.55.92-1.14.41-.29.79-.52,1.12-.8a1,1,0,0,0,.32-1.1A1.42,1.42,0,0,0,24.46,26.39ZM7.94,17.68a1.65,1.65,0,0,1-.57-1.12A10.76,10.76,0,0,0,10,17.66a21.13,21.13,0,0,0,4.4.7,31.31,31.31,0,0,0,7.61-.48,21.19,21.19,0,0,0,5.4-1.69l.32-.14a2,2,0,0,1-.6.93,6.07,6.07,0,0,1-1.82,1.14,18.11,18.11,0,0,1-4.22,1.17,27.41,27.41,0,0,1-6.71.31A16,16,0,0,1,9.3,18.52,4.68,4.68,0,0,1,7.94,17.68Zm3.18,3.73a3,3,0,0,1-1.58-1c0-.07-.09-.15-.15-.25A29.77,29.77,0,0,0,27,19.32c-.19.2-.33.37-.5.52a6.57,6.57,0,0,1-2,1,20.43,20.43,0,0,1-4.49,1,26.28,26.28,0,0,1-4.77.21A14.88,14.88,0,0,1,11.12,21.41Zm4.07,3a5.58,5.58,0,0,1-1.76-.65,1.69,1.69,0,0,1-.78-.79,30.08,30.08,0,0,0,12.69-1l.07.06a8,8,0,0,1-.53.61A5.92,5.92,0,0,1,22.53,24,14.3,14.3,0,0,1,15.19,24.4Zm3.64,7.67a3.46,3.46,0,0,1-1,0,3.22,3.22,0,0,1-1.76-.79,4,4,0,0,1-.38-.43l.07-.08a5.82,5.82,0,0,0,3.38,1C19.06,31.93,19,32.06,18.83,32.07Zm.48-.69a3.81,3.81,0,0,1-1.71-.13,3.67,3.67,0,0,1-1.49-.74.7.7,0,0,1-.29-.49,6.07,6.07,0,0,0,4.15.92A.79.79,0,0,1,19.31,31.38Zm1-1A5.44,5.44,0,0,1,16.9,30a1.25,1.25,0,0,1-.81-.82,7.26,7.26,0,0,0,5.08.78A1.76,1.76,0,0,1,20.3,30.38Zm1.61-1.19a5.92,5.92,0,0,1-2.73.36,5.13,5.13,0,0,1-1.9-.44,4.22,4.22,0,0,1-.71-.48.53.53,0,0,1-.18-.56,8.34,8.34,0,0,0,6.3.55A1.63,1.63,0,0,1,21.91,29.19Zm1.43-1.75a4.59,4.59,0,0,1-1.86.68,7.25,7.25,0,0,1-3.86-.26,4.28,4.28,0,0,1-.81-.45,1.89,1.89,0,0,1-.4-.48A10.53,10.53,0,0,0,24,26.67,1.49,1.49,0,0,1,23.34,27.44Zm.06-1.55a9,9,0,0,1-5.59.54,3.27,3.27,0,0,1-1.44-.68,16.07,16.07,0,0,0,8.71-1.6,1.31,1.31,0,0,1-.31.78A3.45,3.45,0,0,1,23.4,25.89Z"/><path class="b3eeb53d-3352-4606-b27f-3a36711d035f" d="M8.56,14.14A1.28,1.28,0,0,1,8.92,13a4.25,4.25,0,0,1,.7-.57,9.4,9.4,0,0,1,2.54-1.1,26.89,26.89,0,0,1,9.23-1,11.21,11.21,0,0,1,3.34.62,4.9,4.9,0,0,1,1.23.67.89.89,0,0,1,.23,1.28l-.16.28a4.82,4.82,0,0,0,1.34-1,1.15,1.15,0,0,0-.2-1.9A5.36,5.36,0,0,0,26,9.66a13.29,13.29,0,0,0-3.8-.7,30.89,30.89,0,0,0-9.53.86A13.17,13.17,0,0,0,9,11.21a3.61,3.61,0,0,0-1.13,1A1.06,1.06,0,0,0,8,13.66,5.87,5.87,0,0,0,8.56,14.14Z"/><path class="b3eeb53d-3352-4606-b27f-3a36711d035f" d="M23.67,13.54a.64.64,0,0,0-.07-1,3,3,0,0,0-.77-.45,8.13,8.13,0,0,0-2.29-.48,18,18,0,0,0-3.95.09,15,15,0,0,0-3.91.93,3.82,3.82,0,0,0-1.37.82c-.52.51-.43,1,.29,1.4a.93.93,0,0,1,.5-.94,8,8,0,0,1,1.47-.72,16.29,16.29,0,0,1,6.76-.69,5.32,5.32,0,0,1,1.93.48,2,2,0,0,1,.6.48c.19.22.06.48,0,.75A4.52,4.52,0,0,0,23.67,13.54Z"/><path class="b3eeb53d-3352-4606-b27f-3a36711d035f" d="M20.94,15c.39-.34.36-.69-.09-.94a3.09,3.09,0,0,0-.77-.28,10.3,10.3,0,0,0-3.63-.06,7.16,7.16,0,0,0-2.55.72,2.06,2.06,0,0,0-.55.42c-.26.29-.16.56.23.74A.65.65,0,0,1,14,15a5.88,5.88,0,0,1,1-.45,10.25,10.25,0,0,1,4.19-.39,5.84,5.84,0,0,1,1.16.31.57.57,0,0,1,.41.7Z"/><path class="b3eeb53d-3352-4606-b27f-3a36711d035f" d="M38.12,5.7l-.08,0a1.84,1.84,0,0,1-.49.19,1.26,1.26,0,0,1-1.49-1.13.23.23,0,0,0-.14-.21.2.2,0,0,0-.23.06,1.64,1.64,0,0,0-.57,1.62,5.3,5.3,0,0,0,.19.56h-.05a3.71,3.71,0,0,0-1.47.89.12.12,0,0,1-.16,0l-1-.45c-.16-.07-.26,0-.31.12a4.41,4.41,0,0,0-.2.71,2,2,0,0,0,.45,1.61.17.17,0,0,1,0,.12,3.84,3.84,0,0,0-.07,1.47,3.12,3.12,0,0,0,.83,1.75.36.36,0,0,0,.27.12,3.16,3.16,0,0,0,2.15-.75,4.3,4.3,0,0,0,1.47-2.36,3.73,3.73,0,0,0-.19-2.42.14.14,0,0,1,0-.07l.23-.07a1.67,1.67,0,0,0,1.14-1.67A.19.19,0,0,0,38.12,5.7Zm-5.48,2,.81.37a4.56,4.56,0,0,0-.67,1.2A1.68,1.68,0,0,1,32.64,7.74Zm3.13,4.19a3,3,0,0,1-1.93.87.33.33,0,0,1-.33-.15,3,3,0,0,1-.6-2,.11.11,0,0,1,.06-.09,2.16,2.16,0,0,1,1.44,0l.23.08a2.23,2.23,0,0,1,1.15,1.25A.14.14,0,0,1,35.77,11.93Zm-1.39-1.88a1.4,1.4,0,0,1,.78-.58,1.51,1.51,0,0,1,.07,1Zm3.43-3.38a1.27,1.27,0,0,1-1.07.54.2.2,0,0,0-.19.33,3.35,3.35,0,0,1,.15,3,3.79,3.79,0,0,1-.53.94l-.05.05,0-.07a2.46,2.46,0,0,0-.44-.66.19.19,0,0,1,0-.21c0-.22.08-.44.09-.66a1.36,1.36,0,0,0-.23-.76c-.07-.13-.13-.15-.28-.12A1.74,1.74,0,0,0,34,9.91a.18.18,0,0,1-.18.1,2.18,2.18,0,0,0-.8.11H33c0-.06,0-.1,0-.15A4,4,0,0,1,34.22,7.9a3,3,0,0,1,1.48-.74c.23,0,.28-.21.13-.38a1.28,1.28,0,0,1-.14-1.48l.08-.1a1.49,1.49,0,0,0,.88,1,1.63,1.63,0,0,0,1.35,0A1.22,1.22,0,0,1,37.81,6.67Z"/><path class="b3eeb53d-3352-4606-b27f-3a36711d035f" d="M33.54,11.14a.19.19,0,0,0,.08.26.19.19,0,0,0,.26-.08.19.19,0,0,0-.34-.18Z"/><path class="b3eeb53d-3352-4606-b27f-3a36711d035f" d="M31.94,28a2.77,2.77,0,0,0-2-.52,3.83,3.83,0,0,0-2.26,1,3.27,3.27,0,0,0-1.07,1.87l0,.07-.2-.07a1.49,1.49,0,0,0-1.67.66.17.17,0,0,0,.14.27H25a1.8,1.8,0,0,1,.46.1A1.12,1.12,0,0,1,26,32.94a.18.18,0,0,0,0,.22.19.19,0,0,0,.21.07,1.45,1.45,0,0,0,1.22-.9,3.8,3.8,0,0,0,.14-.51l0,0a3.3,3.3,0,0,0,1.53.09c.06,0,.09,0,.12.06l.51.83c.08.13.17.16.29.07a4.06,4.06,0,0,0,.5-.43A1.73,1.73,0,0,0,31,31.05.14.14,0,0,1,31,31a3.69,3.69,0,0,0,.78-1.05,2.77,2.77,0,0,0,.27-1.7A.36.36,0,0,0,31.94,28ZM30,32.5l-.41-.69a3.7,3.7,0,0,0,1.09-.54C30.74,31.55,30.34,32.28,30,32.5Zm.86-1.84a3.45,3.45,0,0,1-1.94.92,2.71,2.71,0,0,1-1.46-.19c-.19-.08-.31,0-.29.21a1.13,1.13,0,0,1-.64,1.16l-.1,0a1.37,1.37,0,0,0-.15-1.19,1.49,1.49,0,0,0-1-.68.88.88,0,0,1,.36-.23,1.09,1.09,0,0,1,1.06.13.18.18,0,0,0,.3-.15,3,3,0,0,1,1.4-2.29,3.3,3.3,0,0,1,.86-.43h.07a.2.2,0,0,0,0,.07,1.83,1.83,0,0,0,0,.7.19.19,0,0,1-.08.18,3.47,3.47,0,0,0-.4.45,1.18,1.18,0,0,0-.21.67c0,.13,0,.17.14.22a1.51,1.51,0,0,0,1.28,0,.17.17,0,0,1,.18,0,1.75,1.75,0,0,0,.64.32l.06,0S30.84,30.64,30.81,30.66Zm-1.42-1.44c.15.23.29.46.43.7A1.21,1.21,0,0,1,29,30,1.27,1.27,0,0,1,29.39,29.22Zm1.81,1a.13.13,0,0,1-.09,0A1.9,1.9,0,0,1,30,29.58l-.14-.18a2,2,0,0,1-.22-1.49s0-.07.07-.07a2.68,2.68,0,0,1,1.86.32.33.33,0,0,1,.17.28A2.69,2.69,0,0,1,31.2,30.23Z"/><path class="b3eeb53d-3352-4606-b27f-3a36711d035f" d="M30.83,29.24a.17.17,0,0,0,.15.3.16.16,0,0,0,.08-.23A.16.16,0,0,0,30.83,29.24Z"/><path class="b3eeb53d-3352-4606-b27f-3a36711d035f" d="M3.09,14.88a2.39,2.39,0,0,0,1.2-1.32,3.36,3.36,0,0,0,.13-2.19,2.92,2.92,0,0,0-1-1.6l0,0,.14-.14A1.31,1.31,0,0,0,3.63,8a.15.15,0,0,0-.27,0s0,.05,0,.07a1.94,1.94,0,0,1-.26.31A1,1,0,0,1,1.6,8.17a.17.17,0,0,0-.17-.09.16.16,0,0,0-.14.13,1.27,1.27,0,0,0,.22,1.33,3.6,3.6,0,0,0,.34.32l0,0a2.78,2.78,0,0,0-.69,1.17.1.1,0,0,1-.1.07l-.86.06c-.13,0-.19.07-.17.2A3.65,3.65,0,0,0,.14,12a1.53,1.53,0,0,0,.92.94.17.17,0,0,1,.06.08,2.92,2.92,0,0,0,.51,1,2.41,2.41,0,0,0,1.23.9A.26.26,0,0,0,3.09,14.88ZM1,12.52c-.27,0-.68-.64-.69-1l.7-.05A3.26,3.26,0,0,0,1,12.52Zm.44.49,0-.11A3.05,3.05,0,0,1,1.49,11a2.41,2.41,0,0,1,.75-1.08c.14-.11.11-.25-.06-.31a1,1,0,0,1-.65-1s0-.05,0-.1a1.21,1.21,0,0,0,1,.37,1.32,1.32,0,0,0,.93-.5A1,1,0,0,1,3,9.58a.15.15,0,0,0,0,.29,2.67,2.67,0,0,1,1.24,2,3,3,0,0,1,0,.85s0,0,0,.06a.09.09,0,0,1-.06,0,1.91,1.91,0,0,0-.55-.28c-.08,0-.09-.07-.11-.13a4.29,4.29,0,0,0-.19-.5,1.16,1.16,0,0,0-.44-.44.18.18,0,0,0-.24,0,1.36,1.36,0,0,0-.48,1A.15.15,0,0,1,2,12.6a1.79,1.79,0,0,0-.52.38Zm1.68-.64-.73.06a1.07,1.07,0,0,1,.31-.7A1.13,1.13,0,0,1,3.15,12.37Zm-1.53,1a.09.09,0,0,1,0-.09,1.71,1.71,0,0,1,1-.58l.2,0a1.75,1.75,0,0,1,1.26.43.08.08,0,0,1,0,.08,2.42,2.42,0,0,1-1,1.34.3.3,0,0,1-.29,0A2.38,2.38,0,0,1,1.62,13.39Z"/><path class="b3eeb53d-3352-4606-b27f-3a36711d035f" d="M2.4,13.34a.15.15,0,0,0-.15.15.14.14,0,0,0,.15.16.16.16,0,0,0,.15-.16A.15.15,0,0,0,2.4,13.34Z"/></g></g></svg>