<svg xmlns="http://www.w3.org/2000/svg" viewBox="0 0 24.74 25.6"><defs><style>.b1525954-ca20-49e4-b8bf-3b5099c4231a{fill:#fff;}</style></defs><g id="b7f1754c-8f8b-4024-9ce6-22cc60fe282c" data-name="Layer 2"><g id="ab8bcb8b-bdae-4cb1-bfc6-bf0403ad79cd" data-name="Layer 1"><path class="b1525954-ca20-49e4-b8bf-3b5099c4231a" d="M21.66,1a5.4,5.4,0,0,1,2.46,1.44,2,2,0,0,1,.24,2.58,8.07,8.07,0,0,1-1,1.07c-.11.12-.24.2-.36.31l.24.28a1.51,1.51,0,0,1,.09,1.92,5,5,0,0,1-.66.72c-.1.1-.22.19-.33.28s0,.09.07.11a1.17,1.17,0,0,1-.09,1.74,5.51,5.51,0,0,1-1.38,1l-.43.22c.34,1-.25,1.69-1,2.29a1.17,1.17,0,0,1,.09,1.52,5.63,5.63,0,0,1-.67.71c-.13.11-.28.19-.43.3l.06.22a1,1,0,0,1-.31,1.11c-.34.28-.72.51-1.13.8,0,.59-.39.9-.91,1.14a.86.86,0,0,0-.53.46,1.23,1.23,0,0,1-.58.49,6.87,6.87,0,0,1-.94.33c.13.49-.2.66-.61.8a.84.84,0,0,1-.48.77,1.18,1.18,0,0,0-.55,1.32c0,.2.11.39.19.67-.33-.27-.62-.47-.87-.71-.6-.58-1.19-1.16-1.77-1.77a2.87,2.87,0,0,1-.48-.76,3.16,3.16,0,0,1-.11-.64s0,0,0,0c-.19-.44.16-.8.16-1.21a.37.37,0,0,1,.08-.22.55.55,0,0,0,.1-.54c-.09-.32.14-.56.36-.8a1.1,1.1,0,0,1-.17-1.14l-.68-1.07c-.45-.12-1-.25-1.5-.43a5.82,5.82,0,0,1-1.12-.55,1.68,1.68,0,0,1-.9-1.84l-1.11-.32a4.16,4.16,0,0,1-1.6-.8,1.13,1.13,0,0,1-.4-1.54c0-.07.07-.14.11-.2-.4-.22-.79-.39-1.15-.63a4,4,0,0,1-.84-.75A1.5,1.5,0,0,1,.82,7.7l.23-.31c-1.44-1.5-1.41-2.65.14-4a1.47,1.47,0,0,1-.06.19,1.75,1.75,0,0,0,.36,1.9A4.51,4.51,0,0,0,3,6.55a12.2,12.2,0,0,0,3.64,1A26.31,26.31,0,0,0,17,7a13.26,13.26,0,0,0,4.31-1.83A4.6,4.6,0,0,0,22.4,4.05a1.82,1.82,0,0,0-.18-2.52A6.55,6.55,0,0,0,21.66,1Zm.19,6.11-.31.14A20.61,20.61,0,0,1,16.13,9a30.74,30.74,0,0,1-7.6.48,21.21,21.21,0,0,1-4.41-.69A10.58,10.58,0,0,1,1.46,7.66,1.61,1.61,0,0,0,2,8.78a4.58,4.58,0,0,0,1.36.85A16,16,0,0,0,8.5,10.71a28,28,0,0,0,6.72-.31,17.57,17.57,0,0,0,4.21-1.18,6.24,6.24,0,0,0,1.82-1.13A1.85,1.85,0,0,0,21.85,7.15ZM3.48,11.28a2.63,2.63,0,0,0,.15.26,3,3,0,0,0,1.57,1,15.31,15.31,0,0,0,4.19.69A28.22,28.22,0,0,0,14.16,13a20.3,20.3,0,0,0,4.49-1,6.54,6.54,0,0,0,2-1c.17-.14.31-.32.5-.51A29.7,29.7,0,0,1,3.48,11.28Zm16,1.88-.06-.06a30.46,30.46,0,0,1-12.7,1,1.72,1.72,0,0,0,.79.79,5.68,5.68,0,0,0,1.75.65,14.23,14.23,0,0,0,7.35-.45A6,6,0,0,0,19,13.77,5.15,5.15,0,0,0,19.49,13.16Zm-.32,2.09a16.09,16.09,0,0,1-8.72,1.61,3.28,3.28,0,0,0,1.45.67A9,9,0,0,0,17.49,17a3.52,3.52,0,0,0,1.36-1A1.35,1.35,0,0,0,19.17,15.25Zm-1.11,2.52A10.4,10.4,0,0,1,10.5,18a1.71,1.71,0,0,0,.39.48,3.91,3.91,0,0,0,.82.46,7.34,7.34,0,0,0,3.86.26,4.67,4.67,0,0,0,1.86-.69A1.36,1.36,0,0,0,18.06,17.77Zm-7.58,1.4a.51.51,0,0,0,.18.57,3.57,3.57,0,0,0,.7.47,5,5,0,0,0,1.9.44A5.94,5.94,0,0,0,16,20.3a1.63,1.63,0,0,0,.77-.58A8.27,8.27,0,0,1,10.48,19.17Zm-.3,1.15a1.24,1.24,0,0,0,.8.82,5.48,5.48,0,0,0,3.41.34,1.73,1.73,0,0,0,.87-.38A7.31,7.31,0,0,1,10.18,20.32Zm3.88,1.73a6,6,0,0,1-4.15-.93.7.7,0,0,0,.29.5,3.61,3.61,0,0,0,1.49.74,3.91,3.91,0,0,0,1.7.13A.83.83,0,0,0,14.06,22.05Zm-4.18-.13L9.82,22a5,5,0,0,0,.37.43,3.22,3.22,0,0,0,1.76.79,3.52,3.52,0,0,0,1-.05c.12,0,.23-.15.34-.22A5.92,5.92,0,0,1,9.88,21.92Z"/><path class="b1525954-ca20-49e4-b8bf-3b5099c4231a" d="M2.64,5.24c-.2-.16-.42-.3-.61-.48a1.05,1.05,0,0,1-.1-1.48,3.47,3.47,0,0,1,1.13-1A13.71,13.71,0,0,1,6.71.92,31.16,31.16,0,0,1,16.23.06,13.71,13.71,0,0,1,20,.76a5.53,5.53,0,0,1,1.21.62,1.14,1.14,0,0,1,.2,1.9,4.82,4.82,0,0,1-1.34,1L20.28,4A.9.9,0,0,0,20,2.68,5,5,0,0,0,18.81,2a10.84,10.84,0,0,0-3.34-.62,26.91,26.91,0,0,0-9.23,1A9.4,9.4,0,0,0,3.7,3.5,4.18,4.18,0,0,0,3,4.07,1.3,1.3,0,0,0,2.64,5.24Z"/><path class="b1525954-ca20-49e4-b8bf-3b5099c4231a" d="M5.68,6c-.72-.39-.81-.89-.29-1.41a4,4,0,0,1,1.37-.81,14.69,14.69,0,0,1,3.91-.94,18.62,18.62,0,0,1,3.95-.08,8.12,8.12,0,0,1,2.29.47,3.34,3.34,0,0,1,.77.46.64.64,0,0,1,.07,1,3.6,3.6,0,0,1-.82.66c.07-.26.2-.52,0-.74a1.87,1.87,0,0,0-.6-.48,5.34,5.34,0,0,0-1.92-.49,16.34,16.34,0,0,0-6.77.7A8.34,8.34,0,0,0,6.18,5,.93.93,0,0,0,5.68,6Z"/><path class="b1525954-ca20-49e4-b8bf-3b5099c4231a" d="M14.74,6.26a.57.57,0,0,0-.4-.7,4.82,4.82,0,0,0-1.17-.31A10,10,0,0,0,9,5.64a5.6,5.6,0,0,0-1,.45.67.67,0,0,0-.37.56c-.38-.18-.48-.45-.23-.73A1.82,1.82,0,0,1,8,5.49a7.53,7.53,0,0,1,2.55-.72,10.24,10.24,0,0,1,3.62.07,3,3,0,0,1,.77.28c.46.25.48.59.09.93A2,2,0,0,1,14.74,6.26Z"/></g></g></svg>