<svg xmlns="http://www.w3.org/2000/svg" viewBox="0 0 28.02 30.16"><defs><style>.b66f52f4-a589-4d7d-acfe-8d27539dd679{fill:#fff;stroke:#fff;stroke-miterlimit:10;stroke-width:0.23px;}</style></defs><g id="eba41bbb-e340-41d0-836a-14171a3f4a83" data-name="Layer 2"><g id="b4e4ee05-5950-4975-8002-6574ab723c4e" data-name="Layer 1"><path class="b66f52f4-a589-4d7d-acfe-8d27539dd679" d="M5.66,23.08c2.79,1.08,4.06,3.26,4.79,5.9.23.86-.1,1-.84,1.06-3.92.1-6.14-1.75-7.08-6a7,7,0,0,1-1.17.45,4.11,4.11,0,0,1-1-.07c.2-.26.35-.67.61-.75a71.66,71.66,0,0,1,7.23-2.09,13.25,13.25,0,0,1,8.77,1.36,12.4,12.4,0,0,0,9.86.74,2.57,2.57,0,0,1,1,.1c-.23.27-.4.68-.69.78a12.8,12.8,0,0,1-10.47-.73,14.78,14.78,0,0,0-10.41-.94A3.75,3.75,0,0,0,5.66,23.08Zm-2,.75c-.17,3.11,2.87,5.81,5.67,5.1C8.78,25.84,6.38,23.66,3.68,23.83Z"/><path class="b66f52f4-a589-4d7d-acfe-8d27539dd679" d="M25.55,11.55c-4.41.15-8.7.77-12.6,3a45.72,45.72,0,0,1-5.69,3.21,35.11,35.11,0,0,1-6,1.49c-.3.06-.69-.28-1-.43a3,3,0,0,1,1-.47,19.14,19.14,0,0,0,9.52-3.49c4.9-3.54,10.46-4.4,16.3-4.29.25,0,.5.31.75.47a2.28,2.28,0,0,1-.76.44A10.41,10.41,0,0,1,25.55,11.55Z"/><path class="b66f52f4-a589-4d7d-acfe-8d27539dd679" d="M25.72,6.54a14.27,14.27,0,0,0-6,1.26A22.07,22.07,0,0,1,2.14,7.46,8.14,8.14,0,0,1,.56,6.52C.41,6.4.43,6.06.37,5.82c.24,0,.56-.15.73,0C4.93,8.13,9.16,8.63,13.54,8.39A22.74,22.74,0,0,0,20.45,6.5,14,14,0,0,1,27,5.61c.29,0,.55.32.82.49a3.66,3.66,0,0,1-.87.42A6.86,6.86,0,0,1,25.72,6.54Z"/><path class="b66f52f4-a589-4d7d-acfe-8d27539dd679" d="M24.88,13.11c1.79.15,1.92.35,1.1,1.91a10.16,10.16,0,0,1-4.93,5,7.25,7.25,0,0,1-5.15.09c-.74-.23-.9-.6-.64-1.3A7.77,7.77,0,0,1,20.47,14,43,43,0,0,1,24.88,13.11Zm-8.65,6.05C20,20.72,23.7,18,25.1,14.37,21.58,13.93,17.1,15.84,16.23,19.16Z"/><path class="b66f52f4-a589-4d7d-acfe-8d27539dd679" d="M12.61,5.2c0,1.58-.31,1.81-1.81,1.33A4.24,4.24,0,0,1,8.09,4.17a23.16,23.16,0,0,1-1-3.33C7,.32,7.28.05,7.78.13,10.6.61,12.57,2.16,12.61,5.2Zm-1,.46A3.76,3.76,0,0,0,8.24,1.29,4.31,4.31,0,0,0,11.58,5.66Z"/></g></g></svg>