<svg xmlns="http://www.w3.org/2000/svg" viewBox="0 0 38.42 34.49"><defs><style>.e142d0ae-7507-4b98-a959-d3770fc82f78{fill:#fff;}</style></defs><g id="fc372bba-c5bd-461f-b1de-11c269413339" data-name="Layer 2"><g id="f0fef2ee-25c5-4344-b070-c597c6e2c65b" data-name="Layer 1"><path class="e142d0ae-7507-4b98-a959-d3770fc82f78" d="M10.81,29.93a.78.78,0,0,0-.26,0l-1.49.18-.45.06,0-.21a2.25,2.25,0,0,0-1.13-2.6,7.49,7.49,0,0,0-1.34-.57,11.19,11.19,0,0,1-2.79-1.3c-.16-.11-.26-.16-.36-.13s-.14.13-.19.3a4.81,4.81,0,0,0-.2,2.23A3.51,3.51,0,0,0,5.35,31a4.28,4.28,0,0,0,1.17.18,2.8,2.8,0,0,0,1.7-.56.94.94,0,0,1,.42-.13l.86-.09,1.14-.13c.08,0,.15-.09.22-.16l.08-.08L11,30l-.12,0Zm-3.11.51c-1,.67-2.6.19-3.42-.38a3.66,3.66,0,0,1-1.15-3.71A5.71,5.71,0,0,0,7.7,30.44ZM3.77,26.76c-.07-.15-.13-.32-.19-.48l-.06-.15a.11.11,0,0,0,0-.05,14.3,14.3,0,0,0,2.57,1.1l.63.23a3.3,3.3,0,0,1,.91.53,1.76,1.76,0,0,1,.6,1.84c0,.22-.11.27-.35.23A5.11,5.11,0,0,1,3.77,26.76Z"/><path class="e142d0ae-7507-4b98-a959-d3770fc82f78" d="M20.63.19a.61.61,0,0,0-.13.22c-.13.47-.25,1-.38,1.45,0,.15-.07.3-.11.45l-.18-.12a2.24,2.24,0,0,0-2.83.1,7.78,7.78,0,0,0-1,1,11.38,11.38,0,0,1-2.23,2.12c-.16.11-.24.18-.25.28s.07.18.21.3a4.94,4.94,0,0,0,2,1,3.52,3.52,0,0,0,4-1.36,4.52,4.52,0,0,0,.59-1,2.89,2.89,0,0,0,.11-1.79.92.92,0,0,1,0-.43c.08-.28.16-.57.23-.84s.21-.74.3-1.11a.38.38,0,0,0-.07-.26,1,1,0,0,0,0-.1l0-.12L20.7.1ZM20,3.26c.26,1.17-.78,2.49-1.61,3.05A3.64,3.64,0,0,1,14.49,6,5.71,5.71,0,0,0,20,3.26ZM15.11,5.58h-.74a14.16,14.16,0,0,0,2-2l.44-.5a3.24,3.24,0,0,1,.83-.65,1.75,1.75,0,0,1,1.93.1c.19.13.21.21.09.41A5.09,5.09,0,0,1,15.11,5.58Z"/><path class="e142d0ae-7507-4b98-a959-d3770fc82f78" d="M30.27,19.74a.66.66,0,0,0,.24.11L32,20l.46.05-.1.19a2.26,2.26,0,0,0,.48,2.8,8.06,8.06,0,0,0,1.17.87,12,12,0,0,1,2.41,1.92c.13.15.21.22.31.22s.16-.1.26-.25a4.78,4.78,0,0,0,.72-2.12A3.5,3.5,0,0,0,35.83,20a3.94,3.94,0,0,0-1.09-.45,2.78,2.78,0,0,0-1.78.13.76.76,0,0,1-.44,0l-.86-.11-1.13-.15a.4.4,0,0,0-.26.11l-.1.06-.1.05.11.06ZM33.4,20c1.12-.41,2.58.44,3.24,1.18A3.67,3.67,0,0,1,36.88,25,5.72,5.72,0,0,0,33.4,20Zm3,4.51c0,.17,0,.34.07.51a.88.88,0,0,1,0,.16v.06a14.08,14.08,0,0,0-2.23-1.69l-.55-.37a3.26,3.26,0,0,1-.76-.73,1.73,1.73,0,0,1-.16-1.92c.1-.21.18-.24.4-.15A5.1,5.1,0,0,1,36.35,24.49Z"/><path class="e142d0ae-7507-4b98-a959-d3770fc82f78" d="M27.58,9.93A5.54,5.54,0,0,1,30,11.37,2,2,0,0,1,30.28,14a9,9,0,0,1-1,1.08,2.73,2.73,0,0,1-.36.3c.09.11.17.19.24.29a1.48,1.48,0,0,1,.09,1.91,6.4,6.4,0,0,1-.65.73c-.1.1-.22.18-.33.27a.67.67,0,0,0,.06.12,1.17,1.17,0,0,1-.08,1.74,5.47,5.47,0,0,1-1.38.95c-.13.08-.28.15-.43.23.34,1-.26,1.68-1,2.29a1.18,1.18,0,0,1,.09,1.52,5,5,0,0,1-.68.7,4,4,0,0,1-.43.31,1.42,1.42,0,0,1,.07.22,1,1,0,0,1-.32,1.1c-.33.28-.71.51-1.12.8.05.59-.4.9-.92,1.14a.9.9,0,0,0-.52.46,1.28,1.28,0,0,1-.58.49,6.5,6.5,0,0,1-.94.33c.13.49-.2.67-.61.8a.84.84,0,0,1-.49.77,1.16,1.16,0,0,0-.54,1.32c0,.2.11.39.19.67-.33-.27-.62-.47-.87-.71-.6-.57-1.2-1.16-1.77-1.77a2.67,2.67,0,0,1-.48-.75,2.26,2.26,0,0,1-.11-.64s0,0,0,0c-.19-.43.16-.8.16-1.21a.44.44,0,0,1,.07-.22.53.53,0,0,0,.1-.53c-.09-.33.14-.56.37-.81A1.12,1.12,0,0,1,16,26.67l-.68-1.06c-.44-.13-1-.25-1.49-.44a5.82,5.82,0,0,1-1.12-.55,1.66,1.66,0,0,1-.9-1.84l-1.11-.32a4.29,4.29,0,0,1-1.6-.79c-.58-.5-.72-1-.4-1.55l.1-.2a12.41,12.41,0,0,1-1.14-.63,4.31,4.31,0,0,1-.85-.74,1.51,1.51,0,0,1,0-1.95c.07-.11.15-.21.22-.31-1.43-1.5-1.4-2.66.14-4a1.13,1.13,0,0,1,0,.2,1.72,1.72,0,0,0,.36,1.89,4.2,4.2,0,0,0,1.48,1.06,12,12,0,0,0,3.65,1,26.32,26.32,0,0,0,10.34-.62A13.3,13.3,0,0,0,27.18,14a4.3,4.3,0,0,0,1.14-1.07,1.81,1.81,0,0,0-.19-2.52C28,10.25,27.76,10.09,27.58,9.93Zm.19,6.12-.32.14a21.19,21.19,0,0,1-5.4,1.69,31.31,31.31,0,0,1-7.61.48,21.13,21.13,0,0,1-4.4-.7,10.76,10.76,0,0,1-2.67-1.1,1.65,1.65,0,0,0,.57,1.12,4.68,4.68,0,0,0,1.36.84,16,16,0,0,0,5.12,1.08,27.41,27.41,0,0,0,6.71-.31,18.11,18.11,0,0,0,4.22-1.17A6.07,6.07,0,0,0,27.17,17,2,2,0,0,0,27.77,16.05ZM9.39,20.18c.06.1.1.18.15.25a3,3,0,0,0,1.58,1,14.88,14.88,0,0,0,4.19.69,26.28,26.28,0,0,0,4.77-.21,20.43,20.43,0,0,0,4.49-1,6.57,6.57,0,0,0,2-1c.17-.15.31-.32.5-.52A29.77,29.77,0,0,1,9.39,20.18Zm16,1.87L25.34,22a30.08,30.08,0,0,1-12.69,1,1.69,1.69,0,0,0,.78.79,5.58,5.58,0,0,0,1.76.65A14.3,14.3,0,0,0,22.53,24a5.92,5.92,0,0,0,2.35-1.3A8,8,0,0,0,25.41,22.05Zm-.33,2.1a16.07,16.07,0,0,1-8.71,1.6,3.27,3.27,0,0,0,1.44.68,9,9,0,0,0,5.59-.54,3.45,3.45,0,0,0,1.37-1A1.31,1.31,0,0,0,25.08,24.15ZM24,26.67a10.53,10.53,0,0,1-7.57.26,1.89,1.89,0,0,0,.4.48,4.28,4.28,0,0,0,.81.45,7.25,7.25,0,0,0,3.86.26,4.59,4.59,0,0,0,1.86-.68A1.49,1.49,0,0,0,24,26.67Zm-7.59,1.4a.53.53,0,0,0,.18.56,4.22,4.22,0,0,0,.71.48,5.13,5.13,0,0,0,1.9.44,5.92,5.92,0,0,0,2.73-.36,1.63,1.63,0,0,0,.78-.57A8.34,8.34,0,0,1,16.39,28.07Zm-.3,1.14a1.25,1.25,0,0,0,.81.82,5.44,5.44,0,0,0,3.4.35,1.76,1.76,0,0,0,.87-.39A7.26,7.26,0,0,1,16.09,29.21ZM20,30.94A6.07,6.07,0,0,1,15.82,30a.7.7,0,0,0,.29.49,3.67,3.67,0,0,0,1.49.74,3.81,3.81,0,0,0,1.71.13A.79.79,0,0,0,20,30.94Zm-4.17-.12-.07.08a4,4,0,0,0,.38.43,3.22,3.22,0,0,0,1.76.79,3.46,3.46,0,0,0,1,0c.13,0,.23-.14.35-.22A5.82,5.82,0,0,1,15.8,30.82Z"/><path class="e142d0ae-7507-4b98-a959-d3770fc82f78" d="M8.56,14.14A5.87,5.87,0,0,1,8,13.66a1.06,1.06,0,0,1-.1-1.49,3.61,3.61,0,0,1,1.13-1,13.17,13.17,0,0,1,3.64-1.39A30.89,30.89,0,0,1,22.15,9a13.29,13.29,0,0,1,3.8.7,5.36,5.36,0,0,1,1.22.61,1.15,1.15,0,0,1,.2,1.9,4.82,4.82,0,0,1-1.34,1l.16-.28A.89.89,0,0,0,26,11.58a4.9,4.9,0,0,0-1.23-.67,11.21,11.21,0,0,0-3.34-.62,26.89,26.89,0,0,0-9.23,1,9.4,9.4,0,0,0-2.54,1.1,4.25,4.25,0,0,0-.7.57A1.28,1.28,0,0,0,8.56,14.14Z"/><path class="e142d0ae-7507-4b98-a959-d3770fc82f78" d="M11.6,14.85c-.72-.38-.81-.89-.29-1.4a3.82,3.82,0,0,1,1.37-.82,15,15,0,0,1,3.91-.93,18,18,0,0,1,3.95-.09,8.13,8.13,0,0,1,2.29.48,3,3,0,0,1,.77.45.64.64,0,0,1,.07,1,4.52,4.52,0,0,1-.82.67c.07-.27.2-.53,0-.75a2,2,0,0,0-.6-.48,5.32,5.32,0,0,0-1.93-.48,16.29,16.29,0,0,0-6.76.69,8,8,0,0,0-1.47.72A.93.93,0,0,0,11.6,14.85Z"/><path class="e142d0ae-7507-4b98-a959-d3770fc82f78" d="M20.66,15.15a.57.57,0,0,0-.41-.7,5.84,5.84,0,0,0-1.16-.31,10.25,10.25,0,0,0-4.19.39A5.88,5.88,0,0,0,14,15a.65.65,0,0,0-.37.57c-.39-.18-.49-.45-.23-.74a2.06,2.06,0,0,1,.55-.42,7.16,7.16,0,0,1,2.55-.72,10.3,10.3,0,0,1,3.63.06,3.09,3.09,0,0,1,.77.28c.45.25.48.6.09.94Z"/><path class="e142d0ae-7507-4b98-a959-d3770fc82f78" d="M35.31,6.84a5.3,5.3,0,0,1-.19-.56,1.64,1.64,0,0,1,.57-1.62.2.2,0,0,1,.23-.06.23.23,0,0,1,.14.21,1.26,1.26,0,0,0,1.49,1.13A1.84,1.84,0,0,0,38,5.75l.08,0a.19.19,0,0,1,.3.16,1.67,1.67,0,0,1-1.14,1.67l-.23.07a.14.14,0,0,0,0,.07,3.73,3.73,0,0,1,.19,2.42,4.3,4.3,0,0,1-1.47,2.36,3.16,3.16,0,0,1-2.15.75.36.36,0,0,1-.27-.12,3.12,3.12,0,0,1-.83-1.75,3.84,3.84,0,0,1,.07-1.47.17.17,0,0,0,0-.12,2,2,0,0,1-.45-1.61,4.41,4.41,0,0,1,.2-.71c.05-.16.15-.19.31-.12l1,.45a.12.12,0,0,0,.16,0,3.71,3.71,0,0,1,1.47-.89Zm.46-1.64-.08.1a1.28,1.28,0,0,0,.14,1.48c.15.17.1.34-.13.38a3,3,0,0,0-1.48.74A4,4,0,0,0,33,10s0,.09,0,.15H33a2.18,2.18,0,0,1,.8-.11.18.18,0,0,0,.18-.1,1.74,1.74,0,0,1,1.16-.84c.15,0,.21,0,.28.12a1.28,1.28,0,0,1,.22.76,5,5,0,0,1-.08.66.19.19,0,0,0,0,.21,2.46,2.46,0,0,1,.44.66l0,.07.05-.05a3.79,3.79,0,0,0,.53-.94,3.35,3.35,0,0,0-.15-3,.2.2,0,0,1,.19-.33,1.27,1.27,0,0,0,1.07-.54A1.22,1.22,0,0,0,38,6.22a1.63,1.63,0,0,1-1.35,0A1.49,1.49,0,0,1,35.77,5.2Zm-1.13,5.37-.23-.08a2.16,2.16,0,0,0-1.44,0,.11.11,0,0,0-.06.09,3,3,0,0,0,.6,2,.33.33,0,0,0,.33.15,3,3,0,0,0,1.93-.87.14.14,0,0,0,0-.11A2.23,2.23,0,0,0,34.64,10.57ZM33.45,8.11l-.81-.37a1.68,1.68,0,0,0,.14,1.57A4.56,4.56,0,0,1,33.45,8.11Zm1.78,2.32a1.51,1.51,0,0,0-.07-1,1.4,1.4,0,0,0-.78.58Z"/><path class="e142d0ae-7507-4b98-a959-d3770fc82f78" d="M33.62,11.4a.19.19,0,0,1-.08-.26.19.19,0,0,1,.34.18A.19.19,0,0,1,33.62,11.4Z"/><path class="e142d0ae-7507-4b98-a959-d3770fc82f78" d="M27.53,31.82a3.8,3.8,0,0,1-.14.51,1.45,1.45,0,0,1-1.22.9.19.19,0,0,1-.21-.07.18.18,0,0,1,0-.22,1.12,1.12,0,0,0-.53-1.58,1.8,1.8,0,0,0-.46-.1H24.9a.17.17,0,0,1-.14-.27,1.49,1.49,0,0,1,1.67-.66l.2.07,0-.07a3.27,3.27,0,0,1,1.07-1.87,3.83,3.83,0,0,1,2.26-1,2.77,2.77,0,0,1,2,.52.36.36,0,0,1,.15.23,2.77,2.77,0,0,1-.27,1.7A3.69,3.69,0,0,1,31,31a.14.14,0,0,0-.05.1,1.73,1.73,0,0,1-.47,1.41,4.06,4.06,0,0,1-.5.43c-.12.09-.21.06-.29-.07L29.22,32s-.06-.08-.12-.06a3.3,3.3,0,0,1-1.53-.09Zm-1.15,1,.1,0a1.13,1.13,0,0,0,.64-1.16c0-.2.1-.29.29-.21a2.71,2.71,0,0,0,1.46.19,3.45,3.45,0,0,0,1.94-.92s.05-.06.09-.09l-.06,0a1.75,1.75,0,0,1-.64-.32.17.17,0,0,0-.18,0,1.51,1.51,0,0,1-1.28,0c-.12,0-.15-.09-.14-.22a1.18,1.18,0,0,1,.21-.67,3.47,3.47,0,0,1,.4-.45.19.19,0,0,0,.08-.18,1.83,1.83,0,0,1,0-.7.2.2,0,0,1,0-.07h-.07a3.3,3.3,0,0,0-.86.43A3,3,0,0,0,27,30.68a.18.18,0,0,1-.3.15,1.09,1.09,0,0,0-1.06-.13.88.88,0,0,0-.36.23,1.49,1.49,0,0,1,1,.68A1.37,1.37,0,0,1,26.38,32.8Zm3.51-3.4.14.18a1.9,1.9,0,0,0,1.08.69.13.13,0,0,0,.09,0,2.69,2.69,0,0,0,.57-1.79.33.33,0,0,0-.17-.28,2.68,2.68,0,0,0-1.86-.32s-.06,0-.07.07A2,2,0,0,0,29.89,29.4Zm-.35,2.41.41.69c.39-.22.79-.95.68-1.23A3.7,3.7,0,0,1,29.54,31.81Zm-.15-2.59A1.27,1.27,0,0,0,29,30a1.21,1.21,0,0,0,.86,0Z"/><path class="e142d0ae-7507-4b98-a959-d3770fc82f78" d="M31.06,29.31a.16.16,0,0,1-.08.23.17.17,0,0,1-.15-.3A.16.16,0,0,1,31.06,29.31Z"/><path class="e142d0ae-7507-4b98-a959-d3770fc82f78" d="M1.85,9.86a3.6,3.6,0,0,1-.34-.32,1.27,1.27,0,0,1-.22-1.33.16.16,0,0,1,.14-.13.17.17,0,0,1,.17.09,1,1,0,0,0,1.46.22,1.94,1.94,0,0,0,.26-.31s0-.05,0-.07a.15.15,0,0,1,.27,0,1.31,1.31,0,0,1-.16,1.58l-.14.14,0,0a2.92,2.92,0,0,1,1,1.6,3.36,3.36,0,0,1-.13,2.19,2.39,2.39,0,0,1-1.2,1.32.26.26,0,0,1-.23,0A2.41,2.41,0,0,1,1.63,14a2.92,2.92,0,0,1-.51-1,.17.17,0,0,0-.06-.08A1.53,1.53,0,0,1,.14,12,3.65,3.65,0,0,1,0,11.38c0-.13,0-.19.17-.2L1,11.12a.1.1,0,0,0,.1-.07,2.78,2.78,0,0,1,.69-1.17ZM1.54,8.55s0,.07,0,.1a1,1,0,0,0,.65,1c.17.06.2.2.06.31A2.41,2.41,0,0,0,1.49,11a3.05,3.05,0,0,0-.05,1.89l0,.11,0,0A1.79,1.79,0,0,1,2,12.6a.15.15,0,0,0,.09-.13,1.36,1.36,0,0,1,.48-1,.18.18,0,0,1,.24,0,1.16,1.16,0,0,1,.44.44,4.29,4.29,0,0,1,.19.5c0,.06,0,.1.11.13a1.91,1.91,0,0,1,.55.28.1.1,0,0,0,0,0s0,0,0-.06a3,3,0,0,0,0-.85A2.67,2.67,0,0,0,3,9.87a.15.15,0,0,1,0-.29,1,1,0,0,0,.5-1.16,1.32,1.32,0,0,1-.93.5A1.21,1.21,0,0,1,1.54,8.55ZM2.8,12.69l-.2,0a1.68,1.68,0,0,0-1,.58.09.09,0,0,0,0,.09,2.38,2.38,0,0,0,1.17,1.17.3.3,0,0,0,.29,0,2.42,2.42,0,0,0,1-1.34.08.08,0,0,0,0-.08A1.75,1.75,0,0,0,2.8,12.69ZM1,11.44l-.7.05c0,.39.42,1,.69,1A3.26,3.26,0,0,1,1,11.44Zm2.11.93a1.13,1.13,0,0,0-.42-.64,1.07,1.07,0,0,0-.31.7Z"/><path class="e142d0ae-7507-4b98-a959-d3770fc82f78" d="M2.4,13.65a.14.14,0,0,1-.15-.16.15.15,0,0,1,.3,0A.16.16,0,0,1,2.4,13.65Z"/></g></g></svg>