<svg xmlns="http://www.w3.org/2000/svg" viewBox="0 0 35.83 29.91"><defs><style>.b2fdd57b-9b84-4c32-abc5-8e40b8eae341{fill:#fff;}</style></defs><g id="b48d2205-6b41-4d96-bcd1-f634eb10b2f2" data-name="Layer 2"><g id="f8439841-adad-4726-9b77-86433e5d4a50" data-name="Layer 1"><path class="b2fdd57b-9b84-4c32-abc5-8e40b8eae341" d="M8.22,25.35A.6.6,0,0,0,8,25.3l-1.49.19L6,25.55l0-.21a2.27,2.27,0,0,0-1.13-2.61,8.3,8.3,0,0,0-1.34-.57A11.54,11.54,0,0,1,.8,20.87c-.16-.12-.26-.17-.35-.14s-.14.13-.2.31a4.79,4.79,0,0,0-.2,2.23,3.51,3.51,0,0,0,2.71,3.19,4.66,4.66,0,0,0,1.17.17,2.79,2.79,0,0,0,1.7-.55A.83.83,0,0,1,6.05,26l.86-.1,1.14-.12a.48.48,0,0,0,.22-.16l.08-.08.09-.08-.12,0Zm-3.11.51c-1,.66-2.6.18-3.42-.38A3.68,3.68,0,0,1,.54,21.76,5.71,5.71,0,0,0,5.11,25.86ZM1.18,22.18c-.07-.16-.13-.32-.19-.48a.88.88,0,0,1-.05-.15.42.42,0,0,1,0-.06A15.47,15.47,0,0,0,3.49,22.6l.63.22a3.63,3.63,0,0,1,.91.54,1.75,1.75,0,0,1,.6,1.83c0,.23-.11.27-.34.24A5.11,5.11,0,0,1,1.18,22.18Z"/><path class="b2fdd57b-9b84-4c32-abc5-8e40b8eae341" d="M25,5.34a5.56,5.56,0,0,1,2.46,1.45,2,2,0,0,1,.24,2.58,8.92,8.92,0,0,1-1,1.07,2.73,2.73,0,0,1-.36.3l.24.29A1.49,1.49,0,0,1,26.69,13a5.56,5.56,0,0,1-.65.72c-.1.1-.22.18-.33.28l.06.11a1.17,1.17,0,0,1-.08,1.74,5.51,5.51,0,0,1-1.38,1l-.43.22c.34,1-.26,1.68-1,2.29A1.18,1.18,0,0,1,23,20.79a5.68,5.68,0,0,1-.68.71,4,4,0,0,1-.43.3c0,.08.05.15.07.22a1,1,0,0,1-.32,1.11c-.33.28-.71.51-1.12.8.05.59-.4.9-.92,1.13a.92.92,0,0,0-.52.47,1.34,1.34,0,0,1-.58.49,7.38,7.38,0,0,1-.94.33c.13.49-.2.66-.61.8a.84.84,0,0,1-.49.77,1.17,1.17,0,0,0-.54,1.32c0,.2.11.39.19.67-.33-.27-.62-.47-.87-.71-.6-.58-1.2-1.16-1.77-1.77a2.87,2.87,0,0,1-.48-.76,2.2,2.2,0,0,1-.11-.64.1.1,0,0,1,0,0c-.19-.44.16-.8.16-1.21a.41.41,0,0,1,.07-.22.55.55,0,0,0,.1-.54c-.09-.32.14-.56.37-.8a1.12,1.12,0,0,1-.18-1.14L12.71,21c-.44-.12-1-.25-1.49-.43A5.82,5.82,0,0,1,10.1,20a1.67,1.67,0,0,1-.9-1.84l-1.11-.32a4.16,4.16,0,0,1-1.6-.8c-.58-.49-.72-1-.4-1.54l.1-.2c-.39-.22-.79-.39-1.14-.63A4,4,0,0,1,4.2,14a1.51,1.51,0,0,1,0-2l.22-.31c-1.43-1.5-1.4-2.65.14-4a1,1,0,0,1,0,.19,1.74,1.74,0,0,0,.36,1.9A4.47,4.47,0,0,0,6.3,10.86a12.26,12.26,0,0,0,3.65,1,26.31,26.31,0,0,0,10.34-.62,13.3,13.3,0,0,0,4.3-1.83,4.47,4.47,0,0,0,1.14-1.07,1.81,1.81,0,0,0-.19-2.52C25.37,5.66,25.17,5.51,25,5.34Zm.19,6.12-.31.14a20.61,20.61,0,0,1-5.41,1.69,30.79,30.79,0,0,1-7.61.48,21.12,21.12,0,0,1-4.4-.69A10.8,10.8,0,0,1,4.78,12a1.62,1.62,0,0,0,.58,1.12,4.53,4.53,0,0,0,1.35.85A16.38,16.38,0,0,0,11.83,15a28.54,28.54,0,0,0,6.72-.31,17.7,17.7,0,0,0,4.21-1.18,6.24,6.24,0,0,0,1.82-1.13A2,2,0,0,0,25.18,11.46ZM6.8,15.59a1.48,1.48,0,0,0,.16.26,3,3,0,0,0,1.57,1,15.25,15.25,0,0,0,4.19.69,28.22,28.22,0,0,0,4.77-.21,21,21,0,0,0,4.49-1,6.37,6.37,0,0,0,2-1,6.37,6.37,0,0,0,.5-.52A29.61,29.61,0,0,1,6.8,15.59Zm16,1.88-.07-.06a30.41,30.41,0,0,1-12.69,1,1.69,1.69,0,0,0,.78.79,6.11,6.11,0,0,0,1.76.65,14.2,14.2,0,0,0,7.34-.45,6,6,0,0,0,2.35-1.29A7.72,7.72,0,0,0,22.82,17.47Zm-.33,2.09a16.06,16.06,0,0,1-8.71,1.61,3.42,3.42,0,0,0,1.44.67,9,9,0,0,0,5.6-.53,3.6,3.6,0,0,0,1.36-1A1.34,1.34,0,0,0,22.49,19.56Zm-1.1,2.52a10.42,10.42,0,0,1-7.57.26,1.73,1.73,0,0,0,.4.48,3.28,3.28,0,0,0,.82.45,7.21,7.21,0,0,0,3.85.27,4.61,4.61,0,0,0,1.86-.69A1.42,1.42,0,0,0,21.39,22.08Zm-7.58,1.4A.5.5,0,0,0,14,24a3.69,3.69,0,0,0,.71.48,4.94,4.94,0,0,0,1.9.44,5.91,5.91,0,0,0,2.73-.35A1.65,1.65,0,0,0,20.1,24,8.27,8.27,0,0,1,13.81,23.48Zm-.31,1.14a1.27,1.27,0,0,0,.81.83,5.44,5.44,0,0,0,3.4.34,1.66,1.66,0,0,0,.87-.38A7.27,7.27,0,0,1,13.5,24.62Zm3.88,1.74a6,6,0,0,1-4.15-.93.7.7,0,0,0,.29.5,3.64,3.64,0,0,0,1.5.74,3.9,3.9,0,0,0,1.7.13A.81.81,0,0,0,17.38,26.36Zm-4.17-.13-.07.09c.13.14.24.3.38.43a3.22,3.22,0,0,0,1.76.79,3.9,3.9,0,0,0,1-.05c.13,0,.24-.15.35-.23A5.82,5.82,0,0,1,13.21,26.23Z"/><path class="b2fdd57b-9b84-4c32-abc5-8e40b8eae341" d="M6,9.55a5.87,5.87,0,0,1-.61-.48,1.07,1.07,0,0,1-.1-1.49,3.46,3.46,0,0,1,1.13-1A13.52,13.52,0,0,1,10,5.23a31.2,31.2,0,0,1,9.53-.86,13.29,13.29,0,0,1,3.8.7,5.39,5.39,0,0,1,1.22.62,1.15,1.15,0,0,1,.2,1.9,4.61,4.61,0,0,1-1.34,1l.16-.27A.9.9,0,0,0,23.37,7a5.24,5.24,0,0,0-1.23-.67,11.19,11.19,0,0,0-3.34-.61,26.64,26.64,0,0,0-9.23,1A9.1,9.1,0,0,0,7,7.81a4.25,4.25,0,0,0-.7.57A1.26,1.26,0,0,0,6,9.55Z"/><path class="b2fdd57b-9b84-4c32-abc5-8e40b8eae341" d="M9,10.26c-.72-.38-.81-.88-.29-1.4A4.13,4.13,0,0,1,10.09,8,15,15,0,0,1,14,7.11,18.62,18.62,0,0,1,18,7a7.78,7.78,0,0,1,2.29.47A3.7,3.7,0,0,1,21,8a.65.65,0,0,1,.07,1,4.09,4.09,0,0,1-.82.66c.07-.26.2-.52,0-.74a1.9,1.9,0,0,0-.6-.49,5.54,5.54,0,0,0-1.93-.48,16.3,16.3,0,0,0-6.76.7,8,8,0,0,0-1.47.72A.92.92,0,0,0,9,10.26Z"/><path class="b2fdd57b-9b84-4c32-abc5-8e40b8eae341" d="M18.07,10.57a.56.56,0,0,0-.41-.7,4.74,4.74,0,0,0-1.16-.31,10.08,10.08,0,0,0-4.19.39,5.88,5.88,0,0,0-1,.45A.63.63,0,0,0,11,11c-.39-.18-.49-.45-.23-.73a1.91,1.91,0,0,1,.55-.43,7.6,7.6,0,0,1,2.55-.72,10.3,10.3,0,0,1,3.63.07,2.74,2.74,0,0,1,.77.28c.45.25.48.59.09.93C18.26,10.44,18.16,10.5,18.07,10.57Z"/><path class="b2fdd57b-9b84-4c32-abc5-8e40b8eae341" d="M32.72,2.26a5.43,5.43,0,0,1-.19-.57A1.63,1.63,0,0,1,33.1.08.22.22,0,0,1,33.33,0a.23.23,0,0,1,.14.22A1.27,1.27,0,0,0,35,1.36a2.92,2.92,0,0,0,.49-.19l.08-.06a.19.19,0,0,1,.3.17A1.68,1.68,0,0,1,34.7,3L34.46,3a.19.19,0,0,0,0,.08,3.72,3.72,0,0,1,.19,2.42A4.27,4.27,0,0,1,33.2,7.86a3.17,3.17,0,0,1-2.15.76.4.4,0,0,1-.27-.12A3.18,3.18,0,0,1,30,6.74,3.78,3.78,0,0,1,30,5.28a.19.19,0,0,0,0-.13,1.93,1.93,0,0,1-.46-1.61,4.72,4.72,0,0,1,.2-.71c.05-.15.15-.19.31-.12l1,.46a.14.14,0,0,0,.16,0,3.46,3.46,0,0,1,1.48-.89ZM33.18.62l-.08.1a1.27,1.27,0,0,0,.14,1.47c.15.18.1.34-.13.39a2.93,2.93,0,0,0-1.48.74A4,4,0,0,0,30.41,5.4s0,.09,0,.14h.06a2.42,2.42,0,0,1,.8-.11.16.16,0,0,0,.18-.09,1.76,1.76,0,0,1,1.16-.85.21.21,0,0,1,.28.12,1.38,1.38,0,0,1,.23.76A5.13,5.13,0,0,1,33,6a.19.19,0,0,0,0,.21,2.2,2.2,0,0,1,.44.65.3.3,0,0,0,0,.08l0-.06A3.62,3.62,0,0,0,34.11,6,3.35,3.35,0,0,0,34,3c-.1-.17,0-.32.19-.32a1.27,1.27,0,0,0,1.07-.55,1.11,1.11,0,0,0,.19-.44,1.67,1.67,0,0,1-1.35,0A1.54,1.54,0,0,1,33.18.62ZM32.06,6l-.24-.08a2.16,2.16,0,0,0-1.44,0,.11.11,0,0,0-.06.09,3,3,0,0,0,.6,2,.33.33,0,0,0,.33.15,3,3,0,0,0,1.93-.87s0-.08,0-.12A2.2,2.2,0,0,0,32.06,6Zm-1.2-2.46-.81-.38a1.67,1.67,0,0,0,.14,1.57A4.66,4.66,0,0,1,30.86,3.53Zm1.78,2.32a1.39,1.39,0,0,0-.07-1,1.27,1.27,0,0,0-.77.58Z"/><path class="b2fdd57b-9b84-4c32-abc5-8e40b8eae341" d="M31,6.82A.2.2,0,0,1,31,6.55a.19.19,0,0,1,.26-.07.19.19,0,0,1,.08.26A.2.2,0,0,1,31,6.82Z"/></g></g></svg>